G75*
G70*
%OFA0B0*%
%FSLAX24Y24*%
%IPPOS*%
%LPD*%
%AMOC8*
5,1,8,0,0,1.08239X$1,22.5*
%
%ADD10C,0.0020*%
%ADD11C,0.0000*%
%ADD12R,0.0550X0.0400*%
%ADD13R,0.0433X0.0394*%
%ADD14R,0.0394X0.0433*%
%ADD15R,0.0315X0.0315*%
%ADD16R,0.0315X0.0315*%
%ADD17R,0.0709X0.0630*%
%ADD18R,0.0472X0.0472*%
%ADD19R,0.0394X0.0551*%
%ADD20R,0.0394X0.0394*%
%ADD21R,0.0551X0.0394*%
%ADD22R,0.0591X0.0591*%
%ADD23C,0.0600*%
%ADD24R,0.0315X0.0118*%
%ADD25R,0.0118X0.0315*%
%ADD26R,0.0197X0.0591*%
%ADD27R,0.0591X0.0197*%
%ADD28OC8,0.0600*%
%ADD29R,0.0197X0.0886*%
%ADD30R,0.0787X0.0984*%
%ADD31R,0.0394X0.0567*%
%ADD32R,0.0472X0.0567*%
%ADD33R,0.0866X0.0236*%
%ADD34R,0.0551X0.0709*%
%ADD35R,0.0709X0.0551*%
%ADD36R,0.0669X0.0315*%
%ADD37C,0.0160*%
%ADD38C,0.0240*%
%ADD39C,0.0100*%
%ADD40C,0.0120*%
%ADD41C,0.0400*%
%ADD42C,0.0317*%
%ADD43C,0.0356*%
%ADD44C,0.0591*%
%ADD45C,0.0413*%
%ADD46C,0.0200*%
D10*
X016086Y010084D02*
X015454Y010945D01*
X014786Y011778D01*
X014082Y012581D01*
X013343Y013352D01*
X012572Y014091D01*
X011769Y014795D01*
X010936Y015463D01*
X010075Y016095D01*
X003446Y005046D01*
X005037Y003455D02*
X016086Y010084D01*
X017500Y009554D02*
X003977Y001334D01*
X001325Y001334D02*
X001262Y001401D01*
X001202Y001471D01*
X001145Y001543D01*
X001092Y001618D01*
X001043Y001696D01*
X000997Y001776D01*
X000956Y001858D01*
X000919Y001942D01*
X000886Y002028D01*
X000857Y002116D01*
X000832Y002204D01*
X000812Y002294D01*
X000796Y002385D01*
X000785Y002476D01*
X000778Y002568D01*
X000776Y002660D01*
X000778Y002752D01*
X000785Y002844D01*
X000796Y002935D01*
X000812Y003026D01*
X000832Y003116D01*
X000857Y003204D01*
X000886Y003292D01*
X000919Y003378D01*
X000956Y003462D01*
X000997Y003544D01*
X001043Y003624D01*
X001092Y003702D01*
X001145Y003777D01*
X001202Y003849D01*
X001262Y003919D01*
X001325Y003986D01*
X009545Y017509D01*
X009545Y022282D02*
X001325Y035805D01*
X001253Y037131D02*
X001255Y037205D01*
X001261Y037280D01*
X001271Y037353D01*
X001285Y037427D01*
X001302Y037499D01*
X001324Y037570D01*
X001349Y037640D01*
X001378Y037709D01*
X001410Y037776D01*
X001447Y037841D01*
X001486Y037904D01*
X001529Y037965D01*
X001575Y038023D01*
X001624Y038079D01*
X001676Y038133D01*
X001730Y038183D01*
X001788Y038231D01*
X001847Y038275D01*
X001909Y038316D01*
X001974Y038354D01*
X002040Y038388D01*
X002107Y038419D01*
X002177Y038446D01*
X002247Y038469D01*
X002319Y038489D01*
X002392Y038505D01*
X002465Y038517D01*
X002539Y038525D01*
X002614Y038529D01*
X002688Y038529D01*
X002763Y038525D01*
X002837Y038517D01*
X002910Y038505D01*
X002983Y038489D01*
X003055Y038469D01*
X003125Y038446D01*
X003195Y038419D01*
X003262Y038388D01*
X003328Y038354D01*
X003393Y038316D01*
X003455Y038275D01*
X003514Y038231D01*
X003572Y038183D01*
X003626Y038133D01*
X003678Y038079D01*
X003727Y038023D01*
X003773Y037965D01*
X003816Y037904D01*
X003855Y037841D01*
X003892Y037776D01*
X003924Y037709D01*
X003953Y037640D01*
X003978Y037570D01*
X004000Y037499D01*
X004017Y037427D01*
X004031Y037353D01*
X004041Y037280D01*
X004047Y037205D01*
X004049Y037131D01*
X004047Y037057D01*
X004041Y036982D01*
X004031Y036909D01*
X004017Y036835D01*
X004000Y036763D01*
X003978Y036692D01*
X003953Y036622D01*
X003924Y036553D01*
X003892Y036486D01*
X003855Y036421D01*
X003816Y036358D01*
X003773Y036297D01*
X003727Y036239D01*
X003678Y036183D01*
X003626Y036129D01*
X003572Y036079D01*
X003514Y036031D01*
X003455Y035987D01*
X003393Y035946D01*
X003328Y035908D01*
X003262Y035874D01*
X003195Y035843D01*
X003125Y035816D01*
X003055Y035793D01*
X002983Y035773D01*
X002910Y035757D01*
X002837Y035745D01*
X002763Y035737D01*
X002688Y035733D01*
X002614Y035733D01*
X002539Y035737D01*
X002465Y035745D01*
X002392Y035757D01*
X002319Y035773D01*
X002247Y035793D01*
X002177Y035816D01*
X002107Y035843D01*
X002040Y035874D01*
X001974Y035908D01*
X001909Y035946D01*
X001847Y035987D01*
X001788Y036031D01*
X001730Y036079D01*
X001676Y036129D01*
X001624Y036183D01*
X001575Y036239D01*
X001529Y036297D01*
X001486Y036358D01*
X001447Y036421D01*
X001410Y036486D01*
X001378Y036553D01*
X001349Y036622D01*
X001324Y036692D01*
X001302Y036763D01*
X001285Y036835D01*
X001271Y036909D01*
X001261Y036982D01*
X001255Y037057D01*
X001253Y037131D01*
X001325Y038457D02*
X001390Y038518D01*
X001457Y038577D01*
X001527Y038632D01*
X001600Y038684D01*
X001675Y038732D01*
X001752Y038777D01*
X001832Y038818D01*
X001913Y038855D01*
X001996Y038888D01*
X002080Y038917D01*
X002166Y038942D01*
X002252Y038963D01*
X002340Y038980D01*
X002428Y038993D01*
X002517Y039001D01*
X002606Y039005D01*
X002696Y039005D01*
X002785Y039001D01*
X002874Y038993D01*
X002962Y038980D01*
X003050Y038963D01*
X003136Y038942D01*
X003222Y038917D01*
X003306Y038888D01*
X003389Y038855D01*
X003470Y038818D01*
X003550Y038777D01*
X003627Y038732D01*
X003702Y038684D01*
X003775Y038632D01*
X003845Y038577D01*
X003912Y038518D01*
X003977Y038457D01*
X017500Y030237D01*
X016086Y029707D02*
X005037Y036336D01*
X003446Y034745D02*
X010075Y023696D01*
X009545Y022281D02*
X009648Y021855D01*
X009731Y021424D01*
X009794Y020990D01*
X009836Y020553D01*
X009856Y020114D01*
X009856Y019676D01*
X009836Y019237D01*
X009794Y018800D01*
X009731Y018366D01*
X009648Y017935D01*
X009545Y017509D01*
X022273Y009554D02*
X035796Y001334D01*
X035861Y001273D01*
X035928Y001214D01*
X035998Y001159D01*
X036071Y001107D01*
X036146Y001059D01*
X036223Y001014D01*
X036303Y000973D01*
X036384Y000936D01*
X036467Y000903D01*
X036551Y000874D01*
X036637Y000849D01*
X036723Y000828D01*
X036811Y000811D01*
X036899Y000798D01*
X036988Y000790D01*
X037077Y000786D01*
X037167Y000786D01*
X037256Y000790D01*
X037345Y000798D01*
X037433Y000811D01*
X037521Y000828D01*
X037607Y000849D01*
X037693Y000874D01*
X037777Y000903D01*
X037860Y000936D01*
X037941Y000973D01*
X038021Y001014D01*
X038098Y001059D01*
X038173Y001107D01*
X038246Y001159D01*
X038316Y001214D01*
X038383Y001273D01*
X038448Y001334D01*
X038509Y001399D01*
X038568Y001466D01*
X038623Y001536D01*
X038675Y001609D01*
X038723Y001684D01*
X038768Y001761D01*
X038809Y001841D01*
X038846Y001922D01*
X038879Y002005D01*
X038908Y002089D01*
X038933Y002175D01*
X038954Y002261D01*
X038971Y002349D01*
X038984Y002437D01*
X038992Y002526D01*
X038996Y002615D01*
X038996Y002705D01*
X038992Y002794D01*
X038984Y002883D01*
X038971Y002971D01*
X038954Y003059D01*
X038933Y003145D01*
X038908Y003231D01*
X038879Y003315D01*
X038846Y003398D01*
X038809Y003479D01*
X038768Y003559D01*
X038723Y003636D01*
X038675Y003711D01*
X038623Y003784D01*
X038568Y003854D01*
X038509Y003921D01*
X038448Y003986D01*
X030228Y017509D01*
X029698Y016095D02*
X036327Y005046D01*
X034736Y003455D02*
X023687Y010084D01*
X022273Y009554D02*
X021846Y009657D01*
X021415Y009740D01*
X020981Y009803D01*
X020544Y009845D01*
X020105Y009865D01*
X019667Y009865D01*
X019228Y009845D01*
X018791Y009803D01*
X018357Y009740D01*
X017926Y009657D01*
X017499Y009554D01*
X029609Y023785D02*
X036327Y034745D01*
X034736Y036336D02*
X023687Y029707D01*
X022185Y030325D02*
X035796Y038457D01*
X035724Y037131D02*
X035726Y037205D01*
X035732Y037280D01*
X035742Y037353D01*
X035756Y037427D01*
X035773Y037499D01*
X035795Y037570D01*
X035820Y037640D01*
X035849Y037709D01*
X035881Y037776D01*
X035918Y037841D01*
X035957Y037904D01*
X036000Y037965D01*
X036046Y038023D01*
X036095Y038079D01*
X036147Y038133D01*
X036201Y038183D01*
X036259Y038231D01*
X036318Y038275D01*
X036380Y038316D01*
X036445Y038354D01*
X036511Y038388D01*
X036578Y038419D01*
X036648Y038446D01*
X036718Y038469D01*
X036790Y038489D01*
X036863Y038505D01*
X036936Y038517D01*
X037010Y038525D01*
X037085Y038529D01*
X037159Y038529D01*
X037234Y038525D01*
X037308Y038517D01*
X037381Y038505D01*
X037454Y038489D01*
X037526Y038469D01*
X037596Y038446D01*
X037666Y038419D01*
X037733Y038388D01*
X037799Y038354D01*
X037864Y038316D01*
X037926Y038275D01*
X037985Y038231D01*
X038043Y038183D01*
X038097Y038133D01*
X038149Y038079D01*
X038198Y038023D01*
X038244Y037965D01*
X038287Y037904D01*
X038326Y037841D01*
X038363Y037776D01*
X038395Y037709D01*
X038424Y037640D01*
X038449Y037570D01*
X038471Y037499D01*
X038488Y037427D01*
X038502Y037353D01*
X038512Y037280D01*
X038518Y037205D01*
X038520Y037131D01*
X038518Y037057D01*
X038512Y036982D01*
X038502Y036909D01*
X038488Y036835D01*
X038471Y036763D01*
X038449Y036692D01*
X038424Y036622D01*
X038395Y036553D01*
X038363Y036486D01*
X038326Y036421D01*
X038287Y036358D01*
X038244Y036297D01*
X038198Y036239D01*
X038149Y036183D01*
X038097Y036129D01*
X038043Y036079D01*
X037985Y036031D01*
X037926Y035987D01*
X037864Y035946D01*
X037799Y035908D01*
X037733Y035874D01*
X037666Y035843D01*
X037596Y035816D01*
X037526Y035793D01*
X037454Y035773D01*
X037381Y035757D01*
X037308Y035745D01*
X037234Y035737D01*
X037159Y035733D01*
X037085Y035733D01*
X037010Y035737D01*
X036936Y035745D01*
X036863Y035757D01*
X036790Y035773D01*
X036718Y035793D01*
X036648Y035816D01*
X036578Y035843D01*
X036511Y035874D01*
X036445Y035908D01*
X036380Y035946D01*
X036318Y035987D01*
X036259Y036031D01*
X036201Y036079D01*
X036147Y036129D01*
X036095Y036183D01*
X036046Y036239D01*
X036000Y036297D01*
X035957Y036358D01*
X035918Y036421D01*
X035881Y036486D01*
X035849Y036553D01*
X035820Y036622D01*
X035795Y036692D01*
X035773Y036763D01*
X035756Y036835D01*
X035742Y036909D01*
X035732Y036982D01*
X035726Y037057D01*
X035724Y037131D01*
X035796Y038457D02*
X035863Y038520D01*
X035933Y038580D01*
X036005Y038637D01*
X036080Y038690D01*
X036158Y038739D01*
X036238Y038785D01*
X036320Y038826D01*
X036404Y038863D01*
X036490Y038896D01*
X036578Y038925D01*
X036666Y038950D01*
X036756Y038970D01*
X036847Y038986D01*
X036938Y038997D01*
X037030Y039004D01*
X037122Y039006D01*
X037214Y039004D01*
X037306Y038997D01*
X037397Y038986D01*
X037488Y038970D01*
X037578Y038950D01*
X037666Y038925D01*
X037754Y038896D01*
X037840Y038863D01*
X037924Y038826D01*
X038006Y038785D01*
X038086Y038739D01*
X038164Y038690D01*
X038239Y038637D01*
X038311Y038580D01*
X038381Y038520D01*
X038448Y038457D01*
X038509Y038392D01*
X038568Y038325D01*
X038623Y038255D01*
X038675Y038182D01*
X038723Y038107D01*
X038768Y038030D01*
X038809Y037950D01*
X038846Y037869D01*
X038879Y037786D01*
X038908Y037702D01*
X038933Y037616D01*
X038954Y037530D01*
X038971Y037442D01*
X038984Y037354D01*
X038992Y037265D01*
X038996Y037176D01*
X038996Y037086D01*
X038992Y036997D01*
X038984Y036908D01*
X038971Y036820D01*
X038954Y036732D01*
X038933Y036646D01*
X038908Y036560D01*
X038879Y036476D01*
X038846Y036393D01*
X038809Y036312D01*
X038768Y036232D01*
X038723Y036155D01*
X038675Y036080D01*
X038623Y036007D01*
X038568Y035937D01*
X038509Y035870D01*
X038448Y035805D01*
X036327Y034745D02*
X036099Y034912D01*
X035878Y035089D01*
X035666Y035275D01*
X035462Y035471D01*
X035266Y035675D01*
X035080Y035887D01*
X034903Y036108D01*
X034736Y036336D01*
X023687Y029706D02*
X024309Y028858D01*
X024968Y028037D01*
X025662Y027246D01*
X026389Y026486D01*
X027149Y025759D01*
X027940Y025065D01*
X028761Y024406D01*
X029609Y023784D01*
X030139Y022371D02*
X030042Y021934D01*
X029965Y021494D01*
X029910Y021050D01*
X029875Y020605D01*
X029862Y020158D01*
X029870Y019711D01*
X029900Y019265D01*
X029950Y018821D01*
X030022Y018379D01*
X030114Y017942D01*
X030228Y017509D01*
X035724Y002660D02*
X035726Y002734D01*
X035732Y002809D01*
X035742Y002882D01*
X035756Y002956D01*
X035773Y003028D01*
X035795Y003099D01*
X035820Y003169D01*
X035849Y003238D01*
X035881Y003305D01*
X035918Y003370D01*
X035957Y003433D01*
X036000Y003494D01*
X036046Y003552D01*
X036095Y003608D01*
X036147Y003662D01*
X036201Y003712D01*
X036259Y003760D01*
X036318Y003804D01*
X036380Y003845D01*
X036445Y003883D01*
X036511Y003917D01*
X036578Y003948D01*
X036648Y003975D01*
X036718Y003998D01*
X036790Y004018D01*
X036863Y004034D01*
X036936Y004046D01*
X037010Y004054D01*
X037085Y004058D01*
X037159Y004058D01*
X037234Y004054D01*
X037308Y004046D01*
X037381Y004034D01*
X037454Y004018D01*
X037526Y003998D01*
X037596Y003975D01*
X037666Y003948D01*
X037733Y003917D01*
X037799Y003883D01*
X037864Y003845D01*
X037926Y003804D01*
X037985Y003760D01*
X038043Y003712D01*
X038097Y003662D01*
X038149Y003608D01*
X038198Y003552D01*
X038244Y003494D01*
X038287Y003433D01*
X038326Y003370D01*
X038363Y003305D01*
X038395Y003238D01*
X038424Y003169D01*
X038449Y003099D01*
X038471Y003028D01*
X038488Y002956D01*
X038502Y002882D01*
X038512Y002809D01*
X038518Y002734D01*
X038520Y002660D01*
X038518Y002586D01*
X038512Y002511D01*
X038502Y002438D01*
X038488Y002364D01*
X038471Y002292D01*
X038449Y002221D01*
X038424Y002151D01*
X038395Y002082D01*
X038363Y002015D01*
X038326Y001950D01*
X038287Y001887D01*
X038244Y001826D01*
X038198Y001768D01*
X038149Y001712D01*
X038097Y001658D01*
X038043Y001608D01*
X037985Y001560D01*
X037926Y001516D01*
X037864Y001475D01*
X037799Y001437D01*
X037733Y001403D01*
X037666Y001372D01*
X037596Y001345D01*
X037526Y001322D01*
X037454Y001302D01*
X037381Y001286D01*
X037308Y001274D01*
X037234Y001266D01*
X037159Y001262D01*
X037085Y001262D01*
X037010Y001266D01*
X036936Y001274D01*
X036863Y001286D01*
X036790Y001302D01*
X036718Y001322D01*
X036648Y001345D01*
X036578Y001372D01*
X036511Y001403D01*
X036445Y001437D01*
X036380Y001475D01*
X036318Y001516D01*
X036259Y001560D01*
X036201Y001608D01*
X036147Y001658D01*
X036095Y001712D01*
X036046Y001768D01*
X036000Y001826D01*
X035957Y001887D01*
X035918Y001950D01*
X035881Y002015D01*
X035849Y002082D01*
X035820Y002151D01*
X035795Y002221D01*
X035773Y002292D01*
X035756Y002364D01*
X035742Y002438D01*
X035732Y002511D01*
X035726Y002586D01*
X035724Y002660D01*
X034737Y003455D02*
X034904Y003683D01*
X035081Y003903D01*
X035267Y004115D01*
X035462Y004320D01*
X035667Y004515D01*
X035879Y004701D01*
X036099Y004878D01*
X036327Y005045D01*
X029698Y016095D02*
X028837Y015463D01*
X028004Y014795D01*
X027201Y014091D01*
X026430Y013352D01*
X025691Y012581D01*
X024987Y011778D01*
X024319Y010945D01*
X023687Y010084D01*
X003977Y001334D02*
X003910Y001271D01*
X003840Y001211D01*
X003768Y001154D01*
X003693Y001101D01*
X003615Y001052D01*
X003535Y001006D01*
X003453Y000965D01*
X003369Y000928D01*
X003283Y000895D01*
X003195Y000866D01*
X003107Y000841D01*
X003017Y000821D01*
X002926Y000805D01*
X002835Y000794D01*
X002743Y000787D01*
X002651Y000785D01*
X002559Y000787D01*
X002467Y000794D01*
X002376Y000805D01*
X002285Y000821D01*
X002195Y000841D01*
X002107Y000866D01*
X002019Y000895D01*
X001933Y000928D01*
X001849Y000965D01*
X001767Y001006D01*
X001687Y001052D01*
X001609Y001101D01*
X001534Y001154D01*
X001462Y001211D01*
X001392Y001271D01*
X001325Y001334D01*
X001253Y002660D02*
X001255Y002734D01*
X001261Y002809D01*
X001271Y002882D01*
X001285Y002956D01*
X001302Y003028D01*
X001324Y003099D01*
X001349Y003169D01*
X001378Y003238D01*
X001410Y003305D01*
X001447Y003370D01*
X001486Y003433D01*
X001529Y003494D01*
X001575Y003552D01*
X001624Y003608D01*
X001676Y003662D01*
X001730Y003712D01*
X001788Y003760D01*
X001847Y003804D01*
X001909Y003845D01*
X001974Y003883D01*
X002040Y003917D01*
X002107Y003948D01*
X002177Y003975D01*
X002247Y003998D01*
X002319Y004018D01*
X002392Y004034D01*
X002465Y004046D01*
X002539Y004054D01*
X002614Y004058D01*
X002688Y004058D01*
X002763Y004054D01*
X002837Y004046D01*
X002910Y004034D01*
X002983Y004018D01*
X003055Y003998D01*
X003125Y003975D01*
X003195Y003948D01*
X003262Y003917D01*
X003328Y003883D01*
X003393Y003845D01*
X003455Y003804D01*
X003514Y003760D01*
X003572Y003712D01*
X003626Y003662D01*
X003678Y003608D01*
X003727Y003552D01*
X003773Y003494D01*
X003816Y003433D01*
X003855Y003370D01*
X003892Y003305D01*
X003924Y003238D01*
X003953Y003169D01*
X003978Y003099D01*
X004000Y003028D01*
X004017Y002956D01*
X004031Y002882D01*
X004041Y002809D01*
X004047Y002734D01*
X004049Y002660D01*
X004047Y002586D01*
X004041Y002511D01*
X004031Y002438D01*
X004017Y002364D01*
X004000Y002292D01*
X003978Y002221D01*
X003953Y002151D01*
X003924Y002082D01*
X003892Y002015D01*
X003855Y001950D01*
X003816Y001887D01*
X003773Y001826D01*
X003727Y001768D01*
X003678Y001712D01*
X003626Y001658D01*
X003572Y001608D01*
X003514Y001560D01*
X003455Y001516D01*
X003393Y001475D01*
X003328Y001437D01*
X003262Y001403D01*
X003195Y001372D01*
X003125Y001345D01*
X003055Y001322D01*
X002983Y001302D01*
X002910Y001286D01*
X002837Y001274D01*
X002763Y001266D01*
X002688Y001262D01*
X002614Y001262D01*
X002539Y001266D01*
X002465Y001274D01*
X002392Y001286D01*
X002319Y001302D01*
X002247Y001322D01*
X002177Y001345D01*
X002107Y001372D01*
X002040Y001403D01*
X001974Y001437D01*
X001909Y001475D01*
X001847Y001516D01*
X001788Y001560D01*
X001730Y001608D01*
X001676Y001658D01*
X001624Y001712D01*
X001575Y001768D01*
X001529Y001826D01*
X001486Y001887D01*
X001447Y001950D01*
X001410Y002015D01*
X001378Y002082D01*
X001349Y002151D01*
X001324Y002221D01*
X001302Y002292D01*
X001285Y002364D01*
X001271Y002438D01*
X001261Y002511D01*
X001255Y002586D01*
X001253Y002660D01*
X003446Y005045D02*
X003674Y004878D01*
X003894Y004701D01*
X004106Y004515D01*
X004311Y004320D01*
X004506Y004115D01*
X004692Y003903D01*
X004869Y003683D01*
X005036Y003455D01*
X001325Y035805D02*
X001262Y035872D01*
X001202Y035942D01*
X001145Y036014D01*
X001092Y036089D01*
X001043Y036167D01*
X000997Y036247D01*
X000956Y036329D01*
X000919Y036413D01*
X000886Y036499D01*
X000857Y036587D01*
X000832Y036675D01*
X000812Y036765D01*
X000796Y036856D01*
X000785Y036947D01*
X000778Y037039D01*
X000776Y037131D01*
X000778Y037223D01*
X000785Y037315D01*
X000796Y037406D01*
X000812Y037497D01*
X000832Y037587D01*
X000857Y037675D01*
X000886Y037763D01*
X000919Y037849D01*
X000956Y037933D01*
X000997Y038015D01*
X001043Y038095D01*
X001092Y038173D01*
X001145Y038248D01*
X001202Y038320D01*
X001262Y038390D01*
X001325Y038457D01*
X003446Y034745D02*
X003674Y034912D01*
X003895Y035089D01*
X004107Y035275D01*
X004311Y035471D01*
X004507Y035675D01*
X004693Y035887D01*
X004870Y036108D01*
X005037Y036336D01*
X016086Y029707D02*
X015454Y028846D01*
X014786Y028013D01*
X014082Y027210D01*
X013343Y026439D01*
X012572Y025700D01*
X011769Y024996D01*
X010936Y024328D01*
X010075Y023696D01*
X017500Y030237D02*
X017920Y030143D01*
X018345Y030070D01*
X018772Y030016D01*
X019202Y029983D01*
X019632Y029971D01*
X020063Y029979D01*
X020493Y030008D01*
X020921Y030057D01*
X021346Y030126D01*
X021768Y030216D01*
X022184Y030325D01*
D11*
X039570Y000200D02*
X000200Y000200D01*
X000200Y039570D01*
X039570Y039570D01*
X039570Y000200D01*
X023179Y016232D02*
X023181Y016259D01*
X023187Y016286D01*
X023196Y016312D01*
X023209Y016336D01*
X023225Y016359D01*
X023244Y016378D01*
X023266Y016395D01*
X023290Y016409D01*
X023315Y016419D01*
X023342Y016426D01*
X023369Y016429D01*
X023397Y016428D01*
X023424Y016423D01*
X023450Y016415D01*
X023474Y016403D01*
X023497Y016387D01*
X023518Y016369D01*
X023535Y016348D01*
X023550Y016324D01*
X023561Y016299D01*
X023569Y016273D01*
X023573Y016246D01*
X023573Y016218D01*
X023569Y016191D01*
X023561Y016165D01*
X023550Y016140D01*
X023535Y016116D01*
X023518Y016095D01*
X023497Y016077D01*
X023475Y016061D01*
X023450Y016049D01*
X023424Y016041D01*
X023397Y016036D01*
X023369Y016035D01*
X023342Y016038D01*
X023315Y016045D01*
X023290Y016055D01*
X023266Y016069D01*
X023244Y016086D01*
X023225Y016105D01*
X023209Y016128D01*
X023196Y016152D01*
X023187Y016178D01*
X023181Y016205D01*
X023179Y016232D01*
X021447Y016232D02*
X021449Y016259D01*
X021455Y016286D01*
X021464Y016312D01*
X021477Y016336D01*
X021493Y016359D01*
X021512Y016378D01*
X021534Y016395D01*
X021558Y016409D01*
X021583Y016419D01*
X021610Y016426D01*
X021637Y016429D01*
X021665Y016428D01*
X021692Y016423D01*
X021718Y016415D01*
X021742Y016403D01*
X021765Y016387D01*
X021786Y016369D01*
X021803Y016348D01*
X021818Y016324D01*
X021829Y016299D01*
X021837Y016273D01*
X021841Y016246D01*
X021841Y016218D01*
X021837Y016191D01*
X021829Y016165D01*
X021818Y016140D01*
X021803Y016116D01*
X021786Y016095D01*
X021765Y016077D01*
X021743Y016061D01*
X021718Y016049D01*
X021692Y016041D01*
X021665Y016036D01*
X021637Y016035D01*
X021610Y016038D01*
X021583Y016045D01*
X021558Y016055D01*
X021534Y016069D01*
X021512Y016086D01*
X021493Y016105D01*
X021477Y016128D01*
X021464Y016152D01*
X021455Y016178D01*
X021449Y016205D01*
X021447Y016232D01*
X030140Y022370D02*
X038448Y035805D01*
D12*
X016010Y017760D03*
X015010Y017385D03*
X015010Y018135D03*
D13*
X015175Y018760D03*
X015845Y018760D03*
X016010Y020675D03*
X016010Y021345D03*
X018135Y021300D03*
X018135Y021970D03*
X019135Y021970D03*
X019135Y021300D03*
X018260Y023175D03*
X018260Y023845D03*
X019300Y024010D03*
X019970Y024010D03*
X018385Y025925D03*
X018385Y026595D03*
X024135Y027175D03*
X024135Y027845D03*
X026175Y024260D03*
X026845Y024260D03*
X022635Y019095D03*
X022010Y019095D03*
X022010Y018425D03*
X022635Y018425D03*
X019845Y018385D03*
X019175Y018385D03*
X018260Y017345D03*
X018260Y016675D03*
X015720Y016760D03*
X015050Y016760D03*
D14*
X016925Y016135D03*
X017595Y016135D03*
X019175Y017760D03*
X019845Y017760D03*
X020635Y019300D03*
X020635Y019970D03*
X020635Y020550D03*
X020635Y021220D03*
X017635Y019720D03*
X017010Y019720D03*
X017010Y019050D03*
X017635Y019050D03*
X015345Y019385D03*
X014675Y019385D03*
X012595Y019635D03*
X011925Y019635D03*
X012260Y021175D03*
X012260Y021845D03*
G36*
X014320Y025500D02*
X014599Y025779D01*
X014904Y025474D01*
X014625Y025195D01*
X014320Y025500D01*
G37*
G36*
X014793Y025973D02*
X015072Y026252D01*
X015377Y025947D01*
X015098Y025668D01*
X014793Y025973D01*
G37*
X016925Y025135D03*
X017595Y025135D03*
X018175Y025135D03*
X018845Y025135D03*
X020800Y028135D03*
X021470Y028135D03*
X022010Y028095D03*
X022010Y027425D03*
X026175Y023010D03*
X026845Y023010D03*
X024010Y021220D03*
X024010Y020550D03*
X024885Y019595D03*
X024885Y018925D03*
X026300Y018635D03*
X026970Y018635D03*
G36*
X025914Y015234D02*
X025635Y014955D01*
X025330Y015260D01*
X025609Y015539D01*
X025914Y015234D01*
G37*
G36*
X025440Y014760D02*
X025161Y014481D01*
X024856Y014786D01*
X025135Y015065D01*
X025440Y014760D01*
G37*
G36*
X015398Y014249D02*
X015119Y013970D01*
X014814Y014275D01*
X015093Y014554D01*
X015398Y014249D01*
G37*
G36*
X014925Y013776D02*
X014646Y013497D01*
X014341Y013802D01*
X014620Y014081D01*
X014925Y013776D01*
G37*
D15*
X015840Y019385D03*
X016430Y019385D03*
D16*
G36*
X014023Y014542D02*
X013801Y014320D01*
X013579Y014542D01*
X013801Y014764D01*
X014023Y014542D01*
G37*
G36*
X014441Y014124D02*
X014219Y013902D01*
X013997Y014124D01*
X014219Y014346D01*
X014441Y014124D01*
G37*
G36*
X025551Y014152D02*
X025329Y014374D01*
X025551Y014596D01*
X025773Y014374D01*
X025551Y014152D01*
G37*
G36*
X025969Y014570D02*
X025747Y014792D01*
X025969Y015014D01*
X026191Y014792D01*
X025969Y014570D01*
G37*
G36*
X014338Y026112D02*
X014560Y025890D01*
X014338Y025668D01*
X014116Y025890D01*
X014338Y026112D01*
G37*
G36*
X014755Y026529D02*
X014977Y026307D01*
X014755Y026085D01*
X014533Y026307D01*
X014755Y026529D01*
G37*
G36*
X024918Y026807D02*
X025140Y027029D01*
X025362Y026807D01*
X025140Y026585D01*
X024918Y026807D01*
G37*
G36*
X025335Y026390D02*
X025557Y026612D01*
X025779Y026390D01*
X025557Y026168D01*
X025335Y026390D01*
G37*
D17*
X015385Y024061D03*
X015385Y022959D03*
X011510Y022061D03*
X011510Y020959D03*
D18*
X013010Y023135D03*
X013010Y024135D03*
X014635Y018760D03*
X016385Y018760D03*
X014010Y016885D03*
X028385Y019760D03*
D19*
X027009Y017943D03*
X026261Y017943D03*
X026635Y017077D03*
X017634Y016702D03*
X016886Y016702D03*
X017260Y017568D03*
X012634Y018818D03*
X011886Y018818D03*
X012260Y017952D03*
X017260Y022952D03*
X016886Y023818D03*
X017634Y023818D03*
D20*
X019760Y023135D03*
X019760Y022635D03*
X020885Y022010D03*
X021760Y020760D03*
X021760Y020135D03*
X021135Y019885D03*
X022760Y020760D03*
X023260Y020760D03*
X025010Y020760D03*
X026885Y024760D03*
X026510Y025260D03*
X025885Y025885D03*
X023385Y027635D03*
X022885Y027635D03*
X021385Y027510D03*
X020385Y027260D03*
X020385Y026760D03*
X020385Y026260D03*
X019135Y019885D03*
X018885Y017135D03*
X018885Y016135D03*
X018260Y016135D03*
D21*
X017693Y025886D03*
X017693Y026634D03*
X016827Y026260D03*
X019327Y028260D03*
X020193Y027886D03*
X020193Y028634D03*
D22*
X022760Y029510D03*
X016010Y027260D03*
X010510Y022885D03*
X012260Y017135D03*
X017135Y010385D03*
X022760Y010385D03*
X027510Y017135D03*
X028260Y023010D03*
D23*
X016010Y016060D02*
X016010Y015460D01*
X015010Y015460D02*
X015010Y016060D01*
X014010Y016060D02*
X014010Y015460D01*
X013835Y023135D02*
X014435Y023135D01*
X014435Y024135D02*
X013835Y024135D01*
D24*
X018348Y020377D03*
X018348Y020180D03*
X018348Y019983D03*
X018348Y019787D03*
X018348Y019590D03*
X018348Y019393D03*
X019922Y019393D03*
X019922Y019590D03*
X019922Y019787D03*
X019922Y019983D03*
X019922Y020180D03*
X019922Y020377D03*
D25*
X019627Y020672D03*
X019430Y020672D03*
X019233Y020672D03*
X019037Y020672D03*
X018840Y020672D03*
X018643Y020672D03*
X018643Y019098D03*
X018840Y019098D03*
X019037Y019098D03*
X019233Y019098D03*
X019430Y019098D03*
X019627Y019098D03*
D26*
X021435Y021977D03*
X021750Y021977D03*
X022065Y021977D03*
X022380Y021977D03*
X022695Y021977D03*
X023010Y021977D03*
X023325Y021977D03*
X023640Y021977D03*
X023955Y021977D03*
X024270Y021977D03*
X024585Y021977D03*
X024585Y026543D03*
X024270Y026543D03*
X023955Y026543D03*
X023640Y026543D03*
X023325Y026543D03*
X023010Y026543D03*
X022695Y026543D03*
X022380Y026543D03*
X022065Y026543D03*
X021750Y026543D03*
X021435Y026543D03*
D27*
X020727Y025835D03*
X020727Y025520D03*
X020727Y025205D03*
X020727Y024890D03*
X020727Y024575D03*
X020727Y024260D03*
X020727Y023945D03*
X020727Y023630D03*
X020727Y023315D03*
X020727Y023000D03*
X020727Y022685D03*
X025293Y022685D03*
X025293Y023000D03*
X025293Y023315D03*
X025293Y023630D03*
X025293Y023945D03*
X025293Y024260D03*
X025293Y024575D03*
X025293Y024890D03*
X025293Y025205D03*
X025293Y025520D03*
X025293Y025835D03*
D28*
X026010Y021885D03*
X027010Y021885D03*
X027010Y020885D03*
X027010Y019885D03*
X026010Y019885D03*
X026010Y020885D03*
D29*
X023140Y017293D03*
X022825Y017293D03*
X022510Y017293D03*
X022195Y017293D03*
X021880Y017293D03*
D30*
X020758Y017244D03*
X020758Y015099D03*
X024262Y015099D03*
X024262Y017244D03*
D31*
X024134Y018452D03*
X023386Y018452D03*
X023386Y019318D03*
D32*
X024055Y019318D03*
D33*
X015159Y020760D03*
X015159Y021260D03*
X015159Y021760D03*
X015159Y022260D03*
X013111Y022260D03*
X013111Y021760D03*
X013111Y021260D03*
X013111Y020760D03*
D34*
X016841Y027385D03*
X016841Y028510D03*
X018179Y028510D03*
X018179Y027385D03*
X025216Y016010D03*
X026554Y016010D03*
D35*
X011010Y018216D03*
X011010Y019554D03*
D36*
X028385Y020341D03*
X028385Y021679D03*
D37*
X027510Y024260D02*
X026845Y024260D01*
X026175Y024260D02*
X025293Y024260D01*
X023010Y024260D01*
X022380Y023630D01*
X020727Y023630D01*
X019265Y023630D01*
X019260Y023635D01*
X019260Y023970D02*
X019300Y024010D01*
X019970Y024010D02*
X020035Y023945D01*
X020727Y023945D01*
X021570Y023945D01*
X021635Y024010D01*
X022065Y025205D02*
X023010Y024260D01*
X023955Y023315D01*
X023955Y021977D01*
X023640Y021977D02*
X023640Y022630D01*
X023510Y022760D01*
X024510Y023885D02*
X024570Y023945D01*
X025293Y023945D01*
X022065Y025205D02*
X022065Y026543D01*
X024010Y020550D02*
X024010Y019363D01*
X024055Y019318D01*
X024332Y019595D01*
X024885Y019595D01*
X024885Y018925D02*
X024885Y018385D01*
X024760Y018260D01*
X024568Y018452D01*
X024134Y018452D01*
X023760Y018010D02*
X023760Y019023D01*
X024055Y019318D01*
X023760Y018010D02*
X023635Y017885D01*
X023260Y017885D01*
X023140Y017765D01*
X023140Y017293D01*
X019135Y017760D02*
X018635Y018260D01*
X018635Y018385D01*
X018510Y018510D01*
X018635Y018635D02*
X018635Y018385D01*
X018635Y018260D02*
X018260Y018635D01*
X018635Y018635D01*
X018260Y018635D02*
X018010Y018885D01*
X018010Y019635D01*
X017925Y019720D01*
X017635Y019720D01*
X018135Y018135D02*
X018885Y017385D01*
X018885Y017135D01*
X011510Y020959D02*
X011385Y020834D01*
D38*
X011510Y020959D02*
X011686Y020959D01*
X012010Y020635D01*
X012885Y020635D01*
X012986Y020635D01*
X013236Y020635D01*
X013760Y020111D01*
X013760Y017760D01*
X014010Y017510D01*
X014010Y016885D01*
X014010Y015760D01*
X015010Y015760D02*
X015050Y015800D01*
X015050Y015220D01*
X015385Y014885D01*
X018135Y014885D01*
X018885Y015635D01*
X018885Y016135D01*
X018135Y018135D02*
X017635Y018635D01*
X017635Y019050D01*
X017010Y019050D01*
X016675Y019050D01*
X016385Y018760D01*
X016385Y019340D01*
X016430Y019385D01*
X016385Y018760D02*
X015845Y018760D01*
X015845Y017925D01*
X016010Y017760D01*
X016010Y017050D01*
X015720Y016760D01*
X015050Y016760D02*
X015050Y015800D01*
X015050Y016760D02*
X015050Y017345D01*
X015010Y017385D01*
X015010Y018135D02*
X015175Y018300D01*
X015175Y018760D01*
X014635Y018760D01*
X014675Y018800D01*
X014675Y019385D01*
X014675Y019675D01*
X014885Y019885D01*
X016845Y019885D01*
X017010Y019720D01*
X017635Y019720D01*
X017635Y021885D01*
X017720Y021970D01*
X018135Y021970D01*
X019135Y021970D01*
X019135Y022760D01*
X018720Y023175D01*
X018260Y023175D01*
X019135Y022885D02*
X019135Y022760D01*
X019135Y022885D02*
X019260Y023010D01*
X019260Y023385D01*
X019220Y023425D01*
X019260Y023385D02*
X019260Y023635D01*
X019260Y023970D01*
X019300Y024010D02*
X019260Y024050D01*
X018385Y025925D02*
X017732Y025925D01*
X017693Y025886D01*
X018385Y026595D02*
X018346Y026634D01*
X016841Y027385D02*
X017966Y028510D01*
X018179Y028510D01*
X022635Y029385D02*
X022760Y029510D01*
X022760Y029635D01*
X023260Y030135D01*
X034885Y037135D01*
X026175Y024260D02*
X026175Y023970D01*
X026845Y023300D01*
X026845Y023010D01*
X026845Y022050D01*
X027010Y021885D01*
X028385Y020341D02*
X028385Y019760D01*
X028260Y019885D01*
X027010Y019885D01*
X026300Y017982D02*
X026261Y017943D01*
X026635Y016091D02*
X026554Y016010D01*
X021880Y017293D02*
X021880Y017765D01*
X021635Y018010D01*
X021385Y018010D01*
X016010Y020675D02*
X015925Y020760D01*
X015159Y020760D01*
X014510Y020760D01*
X014385Y020885D01*
X014385Y021635D01*
X014510Y021760D01*
X015159Y021760D01*
X015760Y021760D01*
X016010Y022010D01*
X016010Y023885D01*
X015834Y024061D01*
X015385Y024061D01*
X015385Y022959D02*
X014311Y022959D01*
X014135Y023135D01*
X013010Y023135D01*
X013010Y022385D01*
X013111Y022284D01*
X013111Y022260D01*
X013010Y022361D01*
X013010Y022385D01*
X011834Y022385D01*
X011510Y022061D01*
X012260Y021845D02*
X012345Y021760D01*
X013111Y021760D01*
X013111Y021260D02*
X012345Y021260D01*
X012260Y021175D01*
X012986Y020635D02*
X013111Y020760D01*
X011925Y018857D02*
X011886Y018818D01*
X015345Y019385D02*
X015840Y019385D01*
X015925Y021260D02*
X015159Y021260D01*
X015925Y021260D02*
X016010Y021345D01*
X015159Y022260D02*
X015385Y022486D01*
X015385Y022959D01*
X010510Y022885D02*
X010010Y022885D01*
X009760Y023135D01*
X002635Y035010D01*
X017135Y010385D02*
X016260Y009510D01*
X004885Y002635D01*
X017135Y010385D02*
X017260Y010385D01*
X022760Y010385D02*
X022760Y010135D01*
X023135Y009760D01*
X035010Y002635D01*
D39*
X022510Y017293D02*
X022510Y018010D01*
X022635Y018135D01*
X022635Y018425D01*
X023359Y018425D01*
X023386Y018452D01*
X023010Y018760D02*
X022135Y018760D01*
X022010Y018635D01*
X022010Y018425D01*
X022010Y018135D01*
X022195Y017950D01*
X022195Y017293D01*
X021010Y018385D02*
X021010Y018760D01*
X019760Y018760D01*
X019627Y018893D01*
X019627Y019098D01*
X019635Y019090D01*
X019430Y019098D02*
X019430Y018799D01*
X019845Y018385D01*
X020385Y018385D01*
X020385Y018010D02*
X020135Y017760D01*
X019845Y017760D01*
X019175Y017760D02*
X019135Y017760D01*
X018885Y017135D02*
X018760Y017010D01*
X017885Y017010D01*
X017634Y016759D01*
X018635Y018635D02*
X018840Y018840D01*
X018840Y019098D01*
X019037Y019098D01*
X019037Y019393D01*
X019922Y019393D01*
X019930Y019385D01*
X020260Y019385D01*
X020345Y019300D01*
X020635Y019300D01*
X021010Y018760D02*
X021635Y019385D01*
X021635Y020135D01*
X021385Y020385D01*
X021385Y021260D01*
X021760Y021635D01*
X021760Y021967D01*
X021750Y021977D01*
X022380Y021977D02*
X022380Y021505D01*
X022135Y021260D01*
X022135Y019510D01*
X022010Y019385D01*
X022010Y019095D01*
X022385Y019510D02*
X022635Y019260D01*
X022635Y019095D01*
X023010Y018942D02*
X023010Y018760D01*
X023010Y018942D02*
X023386Y019318D01*
X022385Y019510D02*
X022385Y021135D01*
X022695Y021445D01*
X022695Y021977D01*
X020635Y021220D02*
X020595Y021260D01*
X019760Y021260D01*
X019430Y020930D01*
X019430Y020672D01*
X018840Y020672D02*
X018840Y020965D01*
X019135Y021260D01*
X019135Y021300D01*
X018635Y021260D02*
X018635Y020680D01*
X018643Y020672D01*
X018348Y020377D02*
X018143Y020377D01*
X018135Y020385D01*
X018135Y020760D01*
X018348Y020377D02*
X019922Y020377D01*
X020127Y020377D01*
X020260Y020510D01*
X020595Y020510D01*
X020635Y020550D01*
X020635Y019970D01*
X019233Y019098D02*
X019233Y018443D01*
X019175Y018385D01*
X020385Y018010D02*
X020635Y018010D01*
X021010Y018385D01*
X018635Y021260D02*
X018595Y021300D01*
X018135Y021300D01*
D40*
X017135Y022260D02*
X016886Y022509D01*
X016886Y023818D01*
X016385Y024135D02*
X016385Y022010D01*
X016510Y021885D01*
X016510Y020385D01*
X016385Y020260D01*
X014635Y020260D01*
X014135Y019760D01*
X014135Y018385D01*
X014510Y018010D01*
X014510Y014885D01*
X015106Y014289D01*
X015106Y014262D01*
X014633Y013789D02*
X014297Y014124D01*
X014219Y014124D01*
X013801Y014542D02*
X013385Y014958D01*
X013385Y015010D01*
X016925Y016135D02*
X016925Y016663D01*
X016886Y016702D01*
X017634Y016702D02*
X017634Y016759D01*
X018260Y016675D02*
X019300Y016675D01*
X019510Y016885D01*
X019510Y017425D01*
X019175Y017760D01*
X018260Y017345D02*
X018037Y017568D01*
X017260Y017568D01*
X017260Y018260D01*
X017595Y016135D02*
X018260Y016135D01*
X021135Y019885D02*
X021135Y021385D01*
X021435Y021685D01*
X021435Y021977D01*
X020885Y022010D02*
X020885Y022260D01*
X020727Y022418D01*
X020727Y022685D01*
X020727Y023000D02*
X020375Y023000D01*
X020010Y022635D01*
X019760Y022635D01*
X020260Y021885D02*
X020135Y021760D01*
X019760Y021760D01*
X019300Y021300D01*
X019135Y021300D01*
X019760Y023135D02*
X019885Y023260D01*
X020260Y023260D01*
X020315Y023315D01*
X020727Y023315D01*
X020727Y024260D02*
X020385Y024260D01*
X020260Y024385D01*
X016635Y024385D01*
X016385Y024135D01*
X015464Y024635D02*
X014612Y025487D01*
X014338Y025890D02*
X014140Y025890D01*
X013885Y025635D01*
X014755Y026307D02*
X015085Y025978D01*
X015085Y025960D01*
X015464Y024635D02*
X020385Y024635D01*
X020445Y024575D01*
X020727Y024575D01*
X020727Y025520D02*
X020250Y025520D01*
X020135Y025635D01*
X020135Y026135D01*
X020260Y026260D01*
X020385Y026260D01*
X020385Y026760D02*
X020010Y026760D01*
X019885Y026635D01*
X019885Y026385D01*
X019635Y026135D01*
X019510Y026510D02*
X018925Y025925D01*
X018385Y025925D01*
X018385Y025510D02*
X019635Y025510D01*
X019760Y025635D01*
X019385Y025135D02*
X018845Y025135D01*
X018385Y025510D02*
X018175Y025300D01*
X018175Y025135D01*
X017595Y025135D01*
X018760Y023885D02*
X018720Y023845D01*
X018260Y023845D01*
X017661Y023845D01*
X017634Y023818D01*
X019510Y026510D02*
X019510Y027010D01*
X019760Y027260D01*
X020385Y027260D01*
X020760Y027260D01*
X021010Y027010D01*
X021260Y027010D01*
X021435Y026835D01*
X021435Y026543D01*
X021750Y026543D02*
X021760Y026553D01*
X021760Y027010D01*
X021385Y027385D01*
X021385Y027510D01*
X021010Y027510D01*
X020800Y027720D01*
X020800Y028135D01*
X020442Y028135D01*
X020193Y027886D01*
X020800Y028135D02*
X020885Y028135D01*
X021470Y028135D02*
X021470Y028300D01*
X021010Y028760D01*
X021470Y028135D02*
X021970Y028135D01*
X022010Y028095D01*
X022175Y028095D01*
X022385Y027885D01*
X022385Y026548D01*
X022380Y026543D01*
X022065Y026543D02*
X022065Y027370D01*
X022010Y027425D01*
X022885Y027385D02*
X023325Y026945D01*
X023325Y026543D01*
X023325Y025825D01*
X023260Y025760D01*
X023640Y025515D02*
X023260Y025135D01*
X022635Y025135D01*
X022260Y024635D02*
X022260Y024010D01*
X022260Y024635D02*
X021375Y025520D01*
X020727Y025520D01*
X020727Y025835D02*
X021210Y025835D01*
X021260Y025885D01*
X021260Y026010D01*
X020885Y026385D01*
X020885Y026635D01*
X020760Y026760D01*
X020385Y026760D01*
X022885Y027385D02*
X022885Y027635D01*
X023385Y027635D02*
X023385Y027385D01*
X023635Y027135D01*
X023635Y026548D01*
X023640Y026543D01*
X023640Y025515D01*
X024010Y025260D02*
X025135Y026385D01*
X025553Y026385D01*
X025557Y026390D01*
X025140Y026807D02*
X025140Y026840D01*
X024135Y027845D01*
X024227Y027845D01*
X024135Y027175D02*
X024175Y027135D01*
X024510Y027135D01*
X024585Y027060D01*
X024585Y026543D01*
X025293Y025835D02*
X025835Y025835D01*
X025885Y025885D01*
X025750Y025520D02*
X026010Y025260D01*
X026510Y025260D01*
X026135Y024760D02*
X026885Y024760D01*
X026135Y024760D02*
X025690Y025205D01*
X025293Y025205D01*
X025293Y025520D02*
X025750Y025520D01*
X025293Y024575D02*
X023445Y024575D01*
X023385Y024635D01*
X025293Y023000D02*
X025303Y023010D01*
X026175Y023010D01*
X026135Y022970D01*
X026135Y022635D01*
X026510Y022260D01*
X026510Y021385D01*
X028091Y021385D01*
X028385Y021679D01*
X026510Y021385D02*
X026510Y020385D01*
X026010Y019885D01*
X025385Y020010D02*
X025385Y017260D01*
X025885Y016760D01*
X025885Y015510D01*
X025622Y015247D01*
X025969Y014792D02*
X026260Y015083D01*
X026260Y015135D01*
X025551Y014374D02*
X025547Y014374D01*
X025148Y014773D01*
X027009Y017943D02*
X026970Y017982D01*
X026970Y018635D01*
X026970Y019095D01*
X027010Y019135D01*
X026300Y018635D02*
X026261Y018596D01*
X025385Y020010D02*
X025135Y020260D01*
X024885Y020260D01*
X024510Y020635D01*
X024510Y021385D01*
X024270Y021625D01*
X024270Y021977D01*
X024585Y021977D02*
X024585Y021685D01*
X025010Y021260D01*
X025010Y020760D01*
X024010Y020550D02*
X023720Y020550D01*
X023635Y020635D01*
X023635Y021972D01*
X023640Y021977D01*
X023955Y021977D02*
X023955Y021275D01*
X024010Y021220D01*
X023325Y021200D02*
X023325Y021977D01*
X023010Y021977D02*
X023010Y021385D01*
X022760Y021135D01*
X022760Y020760D01*
X022760Y019635D01*
X023260Y020135D02*
X023260Y020760D01*
X023260Y021135D01*
X023325Y021200D01*
X023325Y020825D02*
X023260Y020760D01*
X022065Y021565D02*
X022065Y021977D01*
X022065Y021565D02*
X021760Y021260D01*
X021760Y020760D01*
X021760Y020135D02*
X021635Y020135D01*
X025293Y022685D02*
X025710Y022685D01*
X026010Y022385D01*
X026010Y021885D01*
X016885Y027341D02*
X016841Y027385D01*
X013135Y019635D02*
X012595Y019635D01*
X012634Y019596D01*
X012634Y018818D01*
D41*
X011925Y018857D02*
X011925Y019635D01*
X011925Y019970D01*
X011635Y020260D01*
X011510Y020260D01*
X011010Y018216D02*
X011010Y017385D01*
X010885Y017260D01*
X011274Y017952D02*
X011010Y018216D01*
X011274Y017952D02*
X012260Y017952D01*
X012260Y017135D01*
X014209Y024061D02*
X014135Y024135D01*
X014209Y024061D02*
X015385Y024061D01*
X016135Y026260D02*
X016010Y026385D01*
X016010Y027260D01*
X016010Y027679D01*
X016841Y028510D01*
X016885Y028510D01*
X016885Y028635D01*
X017260Y029010D01*
X017510Y029010D01*
X019010Y027510D02*
X018885Y027385D01*
X018179Y027385D01*
X018346Y026634D02*
X017693Y026634D01*
X018385Y026595D02*
X018845Y026595D01*
X019010Y026760D01*
X019010Y027510D02*
X019327Y027827D01*
X019327Y028260D01*
X020193Y028634D02*
X020884Y028634D01*
X021010Y028760D01*
X016827Y026260D02*
X016135Y026260D01*
X026300Y019175D02*
X026300Y018635D01*
X026300Y017982D01*
X026693Y017135D02*
X026635Y017077D01*
X026635Y016091D01*
X026693Y017135D02*
X027510Y017135D01*
X028510Y017135D01*
X026300Y019175D02*
X027010Y019885D01*
X027510Y023010D02*
X028260Y023010D01*
D42*
X027010Y019135D03*
X023260Y020135D03*
X022760Y019635D03*
X020385Y018385D03*
X018135Y020760D03*
X018635Y021260D03*
X017135Y022260D03*
X018760Y023885D03*
X019385Y025135D03*
X019760Y025635D03*
X019635Y026135D03*
X022260Y024010D03*
X022635Y025135D03*
X023260Y025760D03*
X024010Y025260D03*
X023385Y024635D03*
X020260Y021885D03*
X017260Y018260D03*
X013135Y019635D03*
X013385Y015010D03*
X013885Y025635D03*
X026260Y015135D03*
D43*
X023510Y022760D03*
X024510Y023885D03*
X021635Y024010D03*
X027510Y024260D03*
D44*
X027510Y023010D03*
X028510Y017135D03*
X019010Y026760D03*
X019010Y027510D03*
X017510Y029010D03*
X021010Y028760D03*
X011510Y020260D03*
X010885Y017260D03*
D45*
X018135Y018135D03*
X021385Y018010D03*
X024760Y018260D03*
X037135Y004885D03*
X035010Y002635D03*
X004885Y002635D03*
X002635Y004885D03*
X002635Y035010D03*
X004885Y037135D03*
X034885Y037135D03*
X037135Y035010D03*
D46*
X036718Y035170D02*
X036175Y035170D01*
X036180Y035166D02*
X035638Y035647D01*
X035157Y036188D01*
X034944Y036474D01*
X034925Y036507D01*
X034917Y036512D01*
X034912Y036520D01*
X034877Y036542D01*
X034845Y036566D01*
X034836Y036568D01*
X034828Y036573D01*
X034788Y036580D01*
X034748Y036590D01*
X034739Y036589D01*
X034730Y036591D01*
X034690Y036582D01*
X034650Y036576D01*
X034642Y036571D01*
X034633Y036569D01*
X034600Y036546D01*
X023593Y029942D01*
X023585Y029940D01*
X023551Y029916D01*
X023516Y029895D01*
X023511Y029888D01*
X023503Y029883D01*
X023481Y029848D01*
X023457Y029815D01*
X023455Y029807D01*
X023450Y029799D01*
X023443Y029759D01*
X023433Y029719D01*
X023434Y029710D01*
X023432Y029701D01*
X023441Y029661D01*
X023447Y029621D01*
X023452Y029613D01*
X023454Y029604D01*
X023477Y029570D01*
X023498Y029535D01*
X023506Y029530D01*
X023970Y028866D01*
X024466Y028254D01*
X024399Y028281D01*
X023871Y028281D01*
X023783Y028245D01*
X023715Y028177D01*
X023678Y028089D01*
X023678Y028052D01*
X023630Y028072D01*
X023140Y028072D01*
X023135Y028070D01*
X023130Y028072D01*
X022640Y028072D01*
X022628Y028067D01*
X022555Y028139D01*
X022447Y028247D01*
X022447Y028359D01*
X022410Y028447D01*
X022343Y028515D01*
X022255Y028551D01*
X021806Y028551D01*
X021802Y028555D01*
X021714Y028592D01*
X021603Y028592D01*
X021544Y028650D01*
X021545Y028654D01*
X021545Y028866D01*
X021464Y029063D01*
X021313Y029214D01*
X021116Y029295D01*
X020904Y029295D01*
X020707Y029214D01*
X020567Y029074D01*
X020106Y029074D01*
X020098Y029071D01*
X019870Y029071D01*
X019782Y029034D01*
X019714Y028967D01*
X019677Y028879D01*
X019677Y028686D01*
X019650Y028697D01*
X019422Y028697D01*
X019414Y028700D01*
X019239Y028700D01*
X019232Y028697D01*
X019004Y028697D01*
X018915Y028660D01*
X018848Y028593D01*
X018811Y028505D01*
X018811Y028015D01*
X018814Y028008D01*
X018707Y027964D01*
X018638Y027895D01*
X018591Y027943D01*
X018529Y027968D01*
X018532Y027969D01*
X018578Y027996D01*
X018615Y028033D01*
X018641Y028078D01*
X018655Y028129D01*
X018655Y028472D01*
X018217Y028472D01*
X018217Y028548D01*
X018141Y028548D01*
X017793Y028548D01*
X017616Y028475D01*
X017404Y028475D01*
X017364Y028491D01*
X017356Y028484D01*
X017356Y028108D01*
X017320Y028020D01*
X017252Y027952D01*
X017190Y027927D01*
X017193Y027926D01*
X017239Y027899D01*
X017276Y027862D01*
X017303Y027817D01*
X017316Y027766D01*
X017316Y027423D01*
X016879Y027423D01*
X016879Y027347D01*
X017316Y027347D01*
X017316Y027049D01*
X017370Y027071D01*
X017598Y027071D01*
X017606Y027074D01*
X017664Y027074D01*
X017664Y027787D01*
X017700Y027875D01*
X017768Y027943D01*
X017830Y027968D01*
X017827Y027969D01*
X017781Y027996D01*
X017744Y028033D01*
X017717Y028078D01*
X017704Y028129D01*
X017704Y028472D01*
X018141Y028472D01*
X018141Y028548D01*
X018141Y029064D01*
X018045Y029064D01*
X018045Y029116D01*
X017964Y029313D01*
X017813Y029464D01*
X017616Y029545D01*
X017404Y029545D01*
X017207Y029464D01*
X017193Y029450D01*
X017172Y029450D01*
X017011Y029383D01*
X016887Y029259D01*
X016732Y029104D01*
X016517Y029104D01*
X016429Y029068D01*
X016362Y029000D01*
X016325Y028912D01*
X016325Y028617D01*
X015637Y027929D01*
X015570Y027767D01*
X015570Y027750D01*
X015511Y027691D01*
X015475Y027603D01*
X015475Y026917D01*
X015511Y026829D01*
X015570Y026770D01*
X015570Y026297D01*
X015637Y026136D01*
X015761Y026012D01*
X015886Y025887D01*
X016047Y025820D01*
X016914Y025820D01*
X016922Y025823D01*
X017150Y025823D01*
X017177Y025834D01*
X017177Y025641D01*
X017214Y025553D01*
X017237Y025530D01*
X017228Y025521D01*
X017199Y025538D01*
X017149Y025552D01*
X016925Y025552D01*
X016702Y025552D01*
X016651Y025538D01*
X016606Y025512D01*
X016568Y025474D01*
X016542Y025429D01*
X016529Y025378D01*
X016529Y025135D01*
X016529Y024935D01*
X015588Y024935D01*
X015131Y025392D01*
X015144Y025425D01*
X015144Y025428D01*
X015147Y025428D01*
X015235Y025464D01*
X015581Y025810D01*
X015617Y025898D01*
X015617Y025994D01*
X015581Y026082D01*
X015207Y026456D01*
X015142Y026483D01*
X014891Y026733D01*
X014803Y026770D01*
X014708Y026770D01*
X014619Y026733D01*
X014329Y026443D01*
X014293Y026355D01*
X014293Y026352D01*
X014290Y026352D01*
X014202Y026316D01*
X014073Y026187D01*
X014028Y026168D01*
X013970Y026144D01*
X013970Y026144D01*
X013970Y026144D01*
X013930Y026104D01*
X013859Y026033D01*
X013806Y026033D01*
X013659Y025973D01*
X013547Y025861D01*
X013487Y025714D01*
X013487Y025556D01*
X013547Y025409D01*
X013659Y025297D01*
X013806Y025237D01*
X013964Y025237D01*
X014111Y025297D01*
X014147Y025334D01*
X014490Y024991D01*
X014578Y024954D01*
X014673Y024954D01*
X014706Y024968D01*
X015098Y024576D01*
X015004Y024576D01*
X014953Y024563D01*
X014908Y024536D01*
X014871Y024499D01*
X014844Y024453D01*
X014838Y024431D01*
X014816Y024461D01*
X014761Y024516D01*
X014697Y024563D01*
X014627Y024598D01*
X014552Y024623D01*
X014474Y024635D01*
X014135Y024635D01*
X014135Y024135D01*
X014135Y024135D01*
X014135Y024635D01*
X013796Y024635D01*
X013718Y024623D01*
X013643Y024598D01*
X013573Y024563D01*
X013509Y024516D01*
X013454Y024461D01*
X013436Y024436D01*
X013433Y024448D01*
X013406Y024494D01*
X013369Y024531D01*
X013323Y024558D01*
X013273Y024571D01*
X013028Y024571D01*
X013028Y024153D01*
X012992Y024153D01*
X012992Y024117D01*
X013028Y024117D01*
X013028Y023699D01*
X013273Y023699D01*
X013323Y023712D01*
X013369Y023739D01*
X013406Y023776D01*
X013433Y023822D01*
X013436Y023834D01*
X013454Y023809D01*
X013509Y023754D01*
X013573Y023707D01*
X013643Y023672D01*
X013686Y023658D01*
X013529Y023593D01*
X013447Y023510D01*
X013382Y023575D01*
X013294Y023611D01*
X012726Y023611D01*
X012638Y023575D01*
X012570Y023507D01*
X012534Y023419D01*
X012534Y022851D01*
X012570Y022763D01*
X012588Y022745D01*
X011762Y022745D01*
X011630Y022690D01*
X011556Y022616D01*
X011108Y022616D01*
X011020Y022580D01*
X011005Y022565D01*
X011005Y022837D01*
X010558Y022837D01*
X010558Y022390D01*
X010832Y022390D01*
X010882Y022403D01*
X010916Y022423D01*
X010916Y021698D01*
X010952Y021610D01*
X011020Y021543D01*
X011099Y021510D01*
X011020Y021477D01*
X010952Y021410D01*
X010916Y021322D01*
X010916Y020596D01*
X010952Y020508D01*
X011010Y020451D01*
X010975Y020366D01*
X010975Y020154D01*
X011048Y019977D01*
X011048Y019592D01*
X010972Y019592D01*
X010972Y019516D01*
X011048Y019516D01*
X011048Y019079D01*
X011391Y019079D01*
X011442Y019092D01*
X011449Y019097D01*
X011449Y018716D01*
X011412Y018731D01*
X010608Y018731D01*
X010520Y018695D01*
X010452Y018627D01*
X010416Y018539D01*
X010416Y017892D01*
X010452Y017804D01*
X010520Y017737D01*
X010570Y017716D01*
X010570Y017702D01*
X010431Y017563D01*
X010350Y017366D01*
X010350Y017154D01*
X010431Y016957D01*
X010582Y016806D01*
X010779Y016725D01*
X010991Y016725D01*
X011188Y016806D01*
X011339Y016957D01*
X011420Y017154D01*
X011420Y017226D01*
X011450Y017297D01*
X011450Y017512D01*
X011739Y017512D01*
X011725Y017478D01*
X011725Y016792D01*
X011761Y016704D01*
X011829Y016636D01*
X011917Y016600D01*
X012603Y016600D01*
X012691Y016636D01*
X012759Y016704D01*
X012795Y016792D01*
X012795Y017478D01*
X012759Y017566D01*
X012700Y017625D01*
X012700Y018039D01*
X012697Y018047D01*
X012697Y018275D01*
X012686Y018302D01*
X012879Y018302D01*
X012967Y018339D01*
X013034Y018407D01*
X013071Y018495D01*
X013071Y019141D01*
X013034Y019230D01*
X013007Y019257D01*
X013056Y019237D01*
X013214Y019237D01*
X013361Y019297D01*
X013400Y019337D01*
X013400Y017688D01*
X013455Y017556D01*
X013650Y017361D01*
X013650Y017330D01*
X013638Y017325D01*
X013570Y017257D01*
X013534Y017169D01*
X013534Y016601D01*
X013570Y016513D01*
X013635Y016448D01*
X013552Y016366D01*
X013470Y016167D01*
X013470Y015406D01*
X013464Y015408D01*
X013306Y015408D01*
X013159Y015348D01*
X013047Y015236D01*
X012987Y015089D01*
X012987Y014931D01*
X013047Y014784D01*
X013159Y014672D01*
X013306Y014612D01*
X013307Y014612D01*
X013338Y014580D01*
X013338Y014494D01*
X013375Y014406D01*
X013665Y014116D01*
X013753Y014079D01*
X013756Y014079D01*
X013756Y014077D01*
X013793Y013988D01*
X014083Y013698D01*
X014133Y013678D01*
X014137Y013667D01*
X014511Y013293D01*
X014599Y013256D01*
X014695Y013256D01*
X014783Y013293D01*
X015129Y013639D01*
X015165Y013727D01*
X015165Y013730D01*
X015168Y013730D01*
X015256Y013766D01*
X015602Y014112D01*
X015639Y014200D01*
X015639Y014296D01*
X015602Y014384D01*
X015461Y014525D01*
X018207Y014525D01*
X018339Y014580D01*
X019089Y015330D01*
X019190Y015431D01*
X019245Y015563D01*
X019245Y015762D01*
X019285Y015802D01*
X019322Y015890D01*
X019322Y016375D01*
X019360Y016375D01*
X019470Y016421D01*
X019680Y016631D01*
X019764Y016715D01*
X019810Y016825D01*
X019810Y017303D01*
X020089Y017303D01*
X020124Y017318D01*
X020124Y016704D01*
X020161Y016616D01*
X020228Y016549D01*
X020317Y016512D01*
X021199Y016512D01*
X021288Y016549D01*
X021355Y016616D01*
X021392Y016704D01*
X021392Y017563D01*
X021474Y017563D01*
X021520Y017582D01*
X021520Y017222D01*
X021542Y017170D01*
X021542Y016803D01*
X021578Y016715D01*
X021624Y016669D01*
X021557Y016669D01*
X021396Y016603D01*
X021274Y016480D01*
X021207Y016319D01*
X021207Y016146D01*
X021274Y015985D01*
X021396Y015862D01*
X021557Y015796D01*
X021731Y015796D01*
X021891Y015862D01*
X022014Y015985D01*
X022081Y016146D01*
X022081Y016319D01*
X022014Y016480D01*
X021891Y016603D01*
X021873Y016611D01*
X022026Y016611D01*
X022038Y016615D01*
X022049Y016611D01*
X022341Y016611D01*
X022353Y016615D01*
X022364Y016611D01*
X022656Y016611D01*
X022667Y016615D01*
X022679Y016611D01*
X022971Y016611D01*
X022982Y016615D01*
X022994Y016611D01*
X023147Y016611D01*
X023129Y016603D01*
X023006Y016480D01*
X022939Y016319D01*
X022939Y016146D01*
X023006Y015985D01*
X023129Y015862D01*
X023289Y015796D01*
X023463Y015796D01*
X023624Y015862D01*
X023746Y015985D01*
X023813Y016146D01*
X023813Y016319D01*
X023746Y016480D01*
X023624Y016603D01*
X023463Y016669D01*
X023396Y016669D01*
X023442Y016715D01*
X023478Y016803D01*
X023478Y017565D01*
X023628Y017565D01*
X023628Y016704D01*
X023665Y016616D01*
X023732Y016549D01*
X023821Y016512D01*
X024703Y016512D01*
X024792Y016549D01*
X024859Y016616D01*
X024896Y016704D01*
X024896Y017784D01*
X024878Y017826D01*
X025013Y017881D01*
X025085Y017953D01*
X025085Y017200D01*
X025131Y017090D01*
X025585Y016636D01*
X025585Y016541D01*
X025568Y016551D01*
X025518Y016564D01*
X025254Y016564D01*
X025254Y016048D01*
X025178Y016048D01*
X025178Y016564D01*
X024914Y016564D01*
X024863Y016551D01*
X024817Y016524D01*
X024780Y016487D01*
X024754Y016442D01*
X024740Y016391D01*
X024740Y016048D01*
X025178Y016048D01*
X025178Y015972D01*
X024740Y015972D01*
X024740Y015816D01*
X024703Y015831D01*
X023821Y015831D01*
X023732Y015794D01*
X023665Y015727D01*
X023628Y015638D01*
X023628Y014559D01*
X023665Y014471D01*
X023732Y014403D01*
X023821Y014366D01*
X024703Y014366D01*
X024792Y014403D01*
X024846Y014458D01*
X025026Y014278D01*
X025115Y014241D01*
X025124Y014241D01*
X025125Y014238D01*
X025415Y013948D01*
X025503Y013912D01*
X025599Y013912D01*
X025687Y013948D01*
X025977Y014238D01*
X026014Y014327D01*
X027086Y014327D01*
X026873Y014128D02*
X025867Y014128D01*
X026014Y014327D02*
X026014Y014329D01*
X026017Y014329D01*
X026105Y014366D01*
X026395Y014656D01*
X026431Y014744D01*
X026431Y014775D01*
X026486Y014797D01*
X026598Y014909D01*
X026658Y015056D01*
X026658Y015214D01*
X026598Y015361D01*
X026543Y015416D01*
X026878Y015416D01*
X026966Y015452D01*
X027033Y015520D01*
X027070Y015608D01*
X027070Y015991D01*
X027075Y016003D01*
X027075Y016640D01*
X027079Y016636D01*
X027167Y016600D01*
X027853Y016600D01*
X027941Y016636D01*
X028000Y016695D01*
X028193Y016695D01*
X028207Y016681D01*
X028404Y016600D01*
X028616Y016600D01*
X028813Y016681D01*
X028964Y016832D01*
X029045Y017029D01*
X029045Y017241D01*
X028964Y017438D01*
X028813Y017589D01*
X028616Y017670D01*
X028404Y017670D01*
X028207Y017589D01*
X028193Y017575D01*
X028000Y017575D01*
X027941Y017634D01*
X027853Y017670D01*
X027446Y017670D01*
X027446Y018266D01*
X027409Y018355D01*
X027403Y018361D01*
X027406Y018371D01*
X027406Y018899D01*
X027375Y018975D01*
X027408Y019056D01*
X027408Y019214D01*
X027348Y019361D01*
X027299Y019410D01*
X027414Y019525D01*
X027909Y019525D01*
X027909Y019476D01*
X027945Y019388D01*
X028013Y019320D01*
X028101Y019284D01*
X028669Y019284D01*
X028757Y019320D01*
X028825Y019388D01*
X028861Y019476D01*
X028861Y019985D01*
X028923Y020047D01*
X028960Y020135D01*
X028960Y020546D01*
X028923Y020634D01*
X028856Y020702D01*
X028767Y020738D01*
X028003Y020738D01*
X027914Y020702D01*
X027847Y020634D01*
X027810Y020546D01*
X027810Y020245D01*
X027414Y020245D01*
X027274Y020385D01*
X027550Y020661D01*
X027550Y021085D01*
X028150Y021085D01*
X028261Y021131D01*
X028345Y021215D01*
X028345Y021215D01*
X028412Y021282D01*
X028767Y021282D01*
X028856Y021318D01*
X028923Y021386D01*
X028960Y021474D01*
X028960Y021885D01*
X028923Y021973D01*
X028856Y022040D01*
X028767Y022077D01*
X028003Y022077D01*
X027914Y022040D01*
X027847Y021973D01*
X027810Y021885D01*
X027810Y021685D01*
X027550Y021685D01*
X027550Y022109D01*
X027234Y022425D01*
X027205Y022425D01*
X027205Y022558D01*
X027207Y022556D01*
X027404Y022475D01*
X027616Y022475D01*
X027792Y022548D01*
X027829Y022511D01*
X027917Y022475D01*
X028603Y022475D01*
X028691Y022511D01*
X028759Y022579D01*
X028795Y022667D01*
X028795Y023353D01*
X028759Y023441D01*
X028691Y023509D01*
X028603Y023545D01*
X027917Y023545D01*
X027829Y023509D01*
X027792Y023472D01*
X027616Y023545D01*
X027404Y023545D01*
X027207Y023464D01*
X027178Y023435D01*
X027150Y023504D01*
X027049Y023606D01*
X026831Y023823D01*
X027109Y023823D01*
X027197Y023860D01*
X027258Y023921D01*
X027273Y023906D01*
X027427Y023842D01*
X027593Y023842D01*
X027747Y023906D01*
X027864Y024023D01*
X027928Y024177D01*
X027928Y024343D01*
X027864Y024497D01*
X027747Y024614D01*
X027593Y024678D01*
X027427Y024678D01*
X027322Y024635D01*
X027322Y025005D01*
X027285Y025093D01*
X027218Y025160D01*
X027130Y025197D01*
X026947Y025197D01*
X026947Y025505D01*
X026910Y025593D01*
X026843Y025660D01*
X026755Y025697D01*
X026322Y025697D01*
X026322Y026130D01*
X026285Y026218D01*
X026232Y026271D01*
X027446Y025139D01*
X028769Y024068D01*
X028769Y024068D01*
X029432Y023604D01*
X029436Y023597D01*
X029472Y023575D01*
X029507Y023551D01*
X029514Y023550D01*
X029521Y023545D01*
X029563Y023539D01*
X029604Y023530D01*
X029611Y023531D01*
X029619Y023530D01*
X029660Y023540D01*
X029702Y023547D01*
X029708Y023551D01*
X029716Y023553D01*
X029750Y023578D01*
X029785Y023600D01*
X029790Y023607D01*
X029796Y023611D01*
X029818Y023647D01*
X029843Y023682D01*
X029844Y023690D01*
X036536Y034608D01*
X036560Y034642D01*
X036562Y034650D01*
X036566Y034656D01*
X036572Y034698D01*
X036582Y034739D01*
X036580Y034747D01*
X036581Y034755D01*
X036572Y034796D01*
X036564Y034837D01*
X036560Y034844D01*
X036558Y034851D01*
X036533Y034885D01*
X036511Y034921D01*
X036504Y034925D01*
X036500Y034932D01*
X036466Y034953D01*
X036180Y035166D01*
X035952Y035368D02*
X036861Y035368D01*
X036882Y035389D02*
X036756Y035263D01*
X036688Y035099D01*
X036688Y034921D01*
X036756Y034757D01*
X036882Y034631D01*
X037046Y034563D01*
X037224Y034563D01*
X037388Y034631D01*
X037514Y034757D01*
X037582Y034921D01*
X037582Y035099D01*
X037514Y035263D01*
X037388Y035389D01*
X037224Y035457D01*
X037046Y035457D01*
X036882Y035389D01*
X036756Y035525D02*
X037245Y035488D01*
X037245Y035488D01*
X037724Y035597D01*
X037724Y035597D01*
X038150Y035843D01*
X038228Y035928D01*
X038201Y035862D01*
X029978Y022565D01*
X029968Y022559D01*
X029909Y022479D01*
X029897Y022431D01*
X029775Y021940D01*
X029635Y020939D01*
X029601Y019929D01*
X029672Y018921D01*
X029848Y017926D01*
X029848Y017926D01*
X029983Y017455D01*
X029988Y017422D01*
X029997Y017408D01*
X030001Y017392D01*
X030023Y017366D01*
X037375Y005269D01*
X037224Y005332D01*
X037046Y005332D01*
X036882Y005264D01*
X036756Y005138D01*
X036688Y004974D01*
X036688Y004796D01*
X036756Y004632D01*
X036882Y004506D01*
X037046Y004438D01*
X037224Y004438D01*
X037388Y004506D01*
X037514Y004632D01*
X037582Y004796D01*
X037582Y004930D01*
X038224Y003872D01*
X038228Y003863D01*
X038150Y003948D01*
X038150Y003948D01*
X037724Y004193D01*
X037245Y004303D01*
X036756Y004266D01*
X036298Y004087D01*
X036298Y004087D01*
X035914Y003780D01*
X035638Y003375D01*
X035638Y003375D01*
X035493Y002905D01*
X035493Y002414D01*
X035638Y001945D01*
X035638Y001945D01*
X035896Y001566D01*
X022414Y009761D01*
X022386Y009783D01*
X022372Y009786D01*
X022360Y009793D01*
X022325Y009799D01*
X021858Y009924D01*
X020878Y010079D01*
X019886Y010131D01*
X018895Y010079D01*
X017915Y009924D01*
X017448Y009799D01*
X017413Y009793D01*
X017401Y009786D01*
X017387Y009783D01*
X017359Y009761D01*
X003863Y001557D01*
X003843Y001549D01*
X004012Y001732D01*
X004225Y002174D01*
X004298Y002660D01*
X004225Y003145D01*
X004225Y003145D01*
X004012Y003588D01*
X003678Y003948D01*
X003253Y004193D01*
X003253Y004193D01*
X002774Y004303D01*
X002284Y004266D01*
X001827Y004087D01*
X001827Y004087D01*
X001544Y003861D01*
X001549Y003872D01*
X002188Y004925D01*
X002188Y004796D01*
X002256Y004632D01*
X002382Y004506D01*
X002546Y004438D01*
X002724Y004438D01*
X002888Y004506D01*
X003014Y004632D01*
X003082Y004796D01*
X003082Y004974D01*
X003014Y005138D01*
X002888Y005264D01*
X002724Y005332D01*
X002546Y005332D01*
X002399Y005271D01*
X009752Y017368D01*
X009774Y017396D01*
X009777Y017410D01*
X009785Y017422D01*
X009790Y017457D01*
X009915Y017924D01*
X010070Y018904D01*
X010070Y018904D01*
X010122Y019895D01*
X010122Y019895D01*
X010070Y020887D01*
X009915Y021867D01*
X009915Y021867D01*
X009790Y022334D01*
X009785Y022369D01*
X009777Y022381D01*
X009774Y022395D01*
X009752Y022423D01*
X001549Y035919D01*
X001544Y035930D01*
X001827Y035704D01*
X002284Y035525D01*
X002284Y035525D01*
X002774Y035488D01*
X003253Y035597D01*
X003678Y035843D01*
X003678Y035843D01*
X004012Y036203D01*
X004225Y036645D01*
X004225Y036645D01*
X004298Y037131D01*
X004225Y037617D01*
X004012Y038059D01*
X003843Y038242D01*
X003863Y038233D01*
X004935Y037582D01*
X004796Y037582D01*
X004632Y037514D01*
X004506Y037388D01*
X004438Y037224D01*
X004438Y037046D01*
X004506Y036882D01*
X004632Y036756D01*
X004796Y036688D01*
X004974Y036688D01*
X005138Y036756D01*
X005264Y036882D01*
X005332Y037046D01*
X005332Y037224D01*
X005267Y037380D01*
X017361Y030029D01*
X017392Y030006D01*
X017403Y030003D01*
X017413Y029997D01*
X017451Y029992D01*
X017913Y029877D01*
X017913Y029877D01*
X018879Y029743D01*
X019853Y029710D01*
X019853Y029710D01*
X020826Y029779D01*
X021785Y029950D01*
X021785Y029950D01*
X022238Y030080D01*
X022270Y030085D01*
X022285Y030094D01*
X022302Y030099D01*
X022327Y030119D01*
X035897Y038226D01*
X035638Y037846D01*
X035493Y037377D01*
X035493Y036886D01*
X035638Y036416D01*
X035914Y036010D01*
X036298Y035704D01*
X036298Y035704D01*
X036756Y035525D01*
X036756Y035525D01*
X036649Y035567D02*
X035729Y035567D01*
X035534Y035765D02*
X036222Y035765D01*
X035973Y035964D02*
X035357Y035964D01*
X035180Y036162D02*
X035811Y036162D01*
X035914Y036010D02*
X035914Y036010D01*
X035914Y036010D01*
X035676Y036361D02*
X035029Y036361D01*
X034854Y036559D02*
X035594Y036559D01*
X035638Y036416D02*
X035638Y036416D01*
X035533Y036758D02*
X033439Y036758D01*
X033771Y036956D02*
X035493Y036956D01*
X035493Y037155D02*
X034104Y037155D01*
X034436Y037353D02*
X035493Y037353D01*
X035547Y037552D02*
X034768Y037552D01*
X035101Y037750D02*
X035608Y037750D01*
X035638Y037846D02*
X035638Y037846D01*
X035708Y037949D02*
X035433Y037949D01*
X035765Y038147D02*
X035843Y038147D01*
X035455Y038544D02*
X004315Y038544D01*
X004132Y038655D02*
X003984Y038803D01*
X003579Y039058D01*
X003579Y039058D01*
X003127Y039216D01*
X003127Y039216D01*
X002651Y039270D01*
X002175Y039216D01*
X002175Y039216D01*
X001723Y039058D01*
X001317Y038803D01*
X001183Y038669D01*
X001175Y038660D01*
X001148Y038634D01*
X001113Y038599D01*
X001113Y038599D01*
X000950Y038436D01*
X000671Y037951D01*
X000526Y037411D01*
X000526Y036851D01*
X000671Y036311D01*
X000950Y035826D01*
X001127Y035650D01*
X009311Y022185D01*
X009413Y021761D01*
X009560Y020833D01*
X009609Y019895D01*
X009560Y018958D01*
X009413Y018030D01*
X009311Y017606D01*
X001127Y004141D01*
X000950Y003964D01*
X000671Y003480D01*
X000526Y002939D01*
X000526Y002380D01*
X000671Y001839D01*
X000950Y001355D01*
X001113Y001192D01*
X001148Y001157D01*
X001152Y001153D01*
X001183Y001122D01*
X001183Y001122D01*
X001346Y000959D01*
X001831Y000680D01*
X001831Y000680D01*
X002371Y000535D01*
X002931Y000535D01*
X003471Y000680D01*
X003956Y000959D01*
X004132Y001136D01*
X017597Y009320D01*
X018021Y009422D01*
X018949Y009569D01*
X019886Y009618D01*
X020824Y009569D01*
X021752Y009422D01*
X022176Y009320D01*
X035641Y001136D01*
X035789Y000988D01*
X036194Y000733D01*
X036646Y000575D01*
X037122Y000521D01*
X037598Y000575D01*
X038050Y000733D01*
X038456Y000988D01*
X038624Y001157D01*
X038625Y001157D01*
X038794Y001326D01*
X038794Y001326D01*
X038794Y001326D01*
X039049Y001732D01*
X039207Y002184D01*
X039261Y002660D01*
X039207Y003136D01*
X039049Y003588D01*
X038794Y003993D01*
X038646Y004141D01*
X030461Y017608D01*
X030348Y018041D01*
X030181Y018984D01*
X030114Y019938D01*
X030146Y020895D01*
X030279Y021843D01*
X030381Y022304D01*
X038615Y035618D01*
X038625Y035629D01*
X038794Y035798D01*
X039049Y036203D01*
X039049Y036203D01*
X039207Y036655D01*
X039207Y036655D01*
X039261Y037131D01*
X039261Y037131D01*
X039207Y037607D01*
X039049Y038059D01*
X038794Y038464D01*
X038660Y038599D01*
X038625Y038634D01*
X038427Y038832D01*
X037942Y039111D01*
X037402Y039256D01*
X036842Y039256D01*
X036302Y039111D01*
X035817Y038832D01*
X035642Y038656D01*
X022087Y030558D01*
X021669Y030449D01*
X020762Y030288D01*
X019843Y030223D01*
X018923Y030253D01*
X018010Y030380D01*
X017595Y030472D01*
X004132Y038655D01*
X004045Y038743D02*
X035728Y038743D01*
X035817Y038832D02*
X035817Y038832D01*
X036007Y038941D02*
X003765Y038941D01*
X003984Y038803D02*
X003984Y038803D01*
X004641Y038346D02*
X035122Y038346D01*
X034790Y038147D02*
X004968Y038147D01*
X005294Y037949D02*
X034458Y037949D01*
X034126Y037750D02*
X005621Y037750D01*
X005948Y037552D02*
X033793Y037552D01*
X033461Y037353D02*
X006274Y037353D01*
X006601Y037155D02*
X033129Y037155D01*
X032796Y036956D02*
X006927Y036956D01*
X007254Y036758D02*
X032464Y036758D01*
X032132Y036559D02*
X007580Y036559D01*
X007907Y036361D02*
X031800Y036361D01*
X031467Y036162D02*
X008233Y036162D01*
X008560Y035964D02*
X031135Y035964D01*
X030803Y035765D02*
X008887Y035765D01*
X009213Y035567D02*
X030471Y035567D01*
X030138Y035368D02*
X009540Y035368D01*
X009866Y035170D02*
X029806Y035170D01*
X029474Y034971D02*
X010193Y034971D01*
X010519Y034773D02*
X029142Y034773D01*
X028809Y034574D02*
X010846Y034574D01*
X011173Y034376D02*
X028477Y034376D01*
X028145Y034177D02*
X011499Y034177D01*
X011826Y033979D02*
X027812Y033979D01*
X027480Y033780D02*
X012152Y033780D01*
X012479Y033582D02*
X027148Y033582D01*
X026816Y033383D02*
X012805Y033383D01*
X013132Y033185D02*
X026483Y033185D01*
X026151Y032986D02*
X013458Y032986D01*
X013785Y032788D02*
X025819Y032788D01*
X025487Y032589D02*
X014112Y032589D01*
X014438Y032391D02*
X025154Y032391D01*
X024822Y032192D02*
X014765Y032192D01*
X015091Y031994D02*
X024490Y031994D01*
X024157Y031795D02*
X015418Y031795D01*
X015744Y031597D02*
X023825Y031597D01*
X023493Y031398D02*
X016071Y031398D01*
X016398Y031200D02*
X023161Y031200D01*
X022828Y031001D02*
X016724Y031001D01*
X017051Y030803D02*
X022496Y030803D01*
X022164Y030604D02*
X017377Y030604D01*
X017068Y030207D02*
X015738Y030207D01*
X016068Y030009D02*
X017388Y030009D01*
X017896Y030406D02*
X021422Y030406D01*
X021988Y030009D02*
X023705Y030009D01*
X023455Y029810D02*
X023255Y029810D01*
X023255Y029832D02*
X023255Y029558D01*
X022808Y029558D01*
X022808Y029462D01*
X023255Y029462D01*
X023255Y029188D01*
X023242Y029138D01*
X023215Y029092D01*
X023178Y029055D01*
X023132Y029028D01*
X023082Y029015D01*
X022808Y029015D01*
X022808Y029462D01*
X022712Y029462D01*
X022712Y029015D01*
X022438Y029015D01*
X022388Y029028D01*
X022342Y029055D01*
X022305Y029092D01*
X022278Y029138D01*
X022265Y029188D01*
X022265Y029462D01*
X022712Y029462D01*
X022712Y029558D01*
X022265Y029558D01*
X022265Y029832D01*
X022278Y029882D01*
X022305Y029928D01*
X022342Y029965D01*
X022388Y029992D01*
X022438Y030005D01*
X022712Y030005D01*
X022712Y029558D01*
X022808Y029558D01*
X022808Y030005D01*
X023082Y030005D01*
X023132Y029992D01*
X023178Y029965D01*
X023215Y029928D01*
X023242Y029882D01*
X023255Y029832D01*
X023255Y029612D02*
X023452Y029612D01*
X023588Y029413D02*
X023255Y029413D01*
X023255Y029215D02*
X023727Y029215D01*
X023866Y029016D02*
X023086Y029016D01*
X022808Y029016D02*
X022712Y029016D01*
X022712Y029215D02*
X022808Y029215D01*
X022808Y029413D02*
X022712Y029413D01*
X022712Y029612D02*
X022808Y029612D01*
X022808Y029810D02*
X022712Y029810D01*
X022474Y030207D02*
X024035Y030207D01*
X024366Y030406D02*
X022806Y030406D01*
X023139Y030604D02*
X024697Y030604D01*
X025028Y030803D02*
X023471Y030803D01*
X023803Y031001D02*
X025359Y031001D01*
X025690Y031200D02*
X024136Y031200D01*
X024468Y031398D02*
X026020Y031398D01*
X026351Y031597D02*
X024800Y031597D01*
X025132Y031795D02*
X026682Y031795D01*
X027013Y031994D02*
X025465Y031994D01*
X025797Y032192D02*
X027344Y032192D01*
X027675Y032391D02*
X026129Y032391D01*
X026461Y032589D02*
X028005Y032589D01*
X028336Y032788D02*
X026794Y032788D01*
X027126Y032986D02*
X028667Y032986D01*
X028998Y033185D02*
X027458Y033185D01*
X027791Y033383D02*
X029329Y033383D01*
X029660Y033582D02*
X028123Y033582D01*
X028455Y033780D02*
X029990Y033780D01*
X030321Y033979D02*
X028787Y033979D01*
X029120Y034177D02*
X030652Y034177D01*
X030983Y034376D02*
X029452Y034376D01*
X029784Y034574D02*
X031314Y034574D01*
X031645Y034773D02*
X030116Y034773D01*
X030449Y034971D02*
X031975Y034971D01*
X032306Y035170D02*
X030781Y035170D01*
X031113Y035368D02*
X032637Y035368D01*
X032968Y035567D02*
X031446Y035567D01*
X031778Y035765D02*
X033299Y035765D01*
X033630Y035964D02*
X032110Y035964D01*
X032442Y036162D02*
X033960Y036162D01*
X034291Y036361D02*
X032775Y036361D01*
X033107Y036559D02*
X034619Y036559D01*
X036441Y034971D02*
X036688Y034971D01*
X036750Y034773D02*
X036577Y034773D01*
X036515Y034574D02*
X037020Y034574D01*
X037250Y034574D02*
X037404Y034574D01*
X037520Y034773D02*
X037527Y034773D01*
X037582Y034971D02*
X037650Y034971D01*
X037552Y035170D02*
X037773Y035170D01*
X037895Y035368D02*
X037409Y035368D01*
X037589Y035567D02*
X038018Y035567D01*
X038015Y035765D02*
X038141Y035765D01*
X038150Y035843D02*
X038150Y035843D01*
X038150Y035843D01*
X038583Y035567D02*
X039330Y035567D01*
X039330Y035765D02*
X038761Y035765D01*
X038794Y035798D02*
X038794Y035798D01*
X038898Y035964D02*
X039330Y035964D01*
X039330Y036162D02*
X039023Y036162D01*
X039104Y036361D02*
X039330Y036361D01*
X039330Y036559D02*
X039173Y036559D01*
X039219Y036758D02*
X039330Y036758D01*
X039330Y036956D02*
X039241Y036956D01*
X039258Y037155D02*
X039330Y037155D01*
X039330Y037353D02*
X039236Y037353D01*
X039213Y037552D02*
X039330Y037552D01*
X039330Y037750D02*
X039157Y037750D01*
X039088Y037949D02*
X039330Y037949D01*
X039330Y038147D02*
X038994Y038147D01*
X038869Y038346D02*
X039330Y038346D01*
X039330Y038544D02*
X038715Y038544D01*
X038660Y038599D02*
X038660Y038599D01*
X038625Y038634D02*
X038625Y038634D01*
X038516Y038743D02*
X039330Y038743D01*
X039330Y038941D02*
X038237Y038941D01*
X038427Y038832D02*
X038427Y038832D01*
X038427Y038832D01*
X037942Y039111D02*
X037942Y039111D01*
X037837Y039140D02*
X039330Y039140D01*
X039330Y039330D02*
X039330Y000440D01*
X000440Y000440D01*
X000440Y039330D01*
X039330Y039330D01*
X036407Y039140D02*
X003345Y039140D01*
X002651Y039270D02*
X002651Y039270D01*
X001956Y039140D02*
X000440Y039140D01*
X000440Y038941D02*
X001537Y038941D01*
X001723Y039058D02*
X001723Y039058D01*
X001317Y038803D02*
X001317Y038803D01*
X001257Y038743D02*
X000440Y038743D01*
X000440Y038544D02*
X001058Y038544D01*
X000950Y038436D02*
X000950Y038436D01*
X000898Y038346D02*
X000440Y038346D01*
X000440Y038147D02*
X000784Y038147D01*
X000671Y037951D02*
X000671Y037951D01*
X000670Y037949D02*
X000440Y037949D01*
X000440Y037750D02*
X000617Y037750D01*
X000563Y037552D02*
X000440Y037552D01*
X000440Y037353D02*
X000526Y037353D01*
X000526Y037155D02*
X000440Y037155D01*
X000440Y036956D02*
X000526Y036956D01*
X000551Y036758D02*
X000440Y036758D01*
X000440Y036559D02*
X000604Y036559D01*
X000657Y036361D02*
X000440Y036361D01*
X000440Y036162D02*
X000757Y036162D01*
X000671Y036311D02*
X000671Y036311D01*
X000871Y035964D02*
X000440Y035964D01*
X000440Y035765D02*
X001012Y035765D01*
X000950Y035826D02*
X000950Y035826D01*
X001178Y035567D02*
X000440Y035567D01*
X000440Y035368D02*
X001298Y035368D01*
X001419Y035170D02*
X000440Y035170D01*
X000440Y034971D02*
X001540Y034971D01*
X001660Y034773D02*
X000440Y034773D01*
X000440Y034574D02*
X001781Y034574D01*
X001901Y034376D02*
X000440Y034376D01*
X000440Y034177D02*
X002022Y034177D01*
X002143Y033979D02*
X000440Y033979D01*
X000440Y033780D02*
X002263Y033780D01*
X002384Y033582D02*
X000440Y033582D01*
X000440Y033383D02*
X002505Y033383D01*
X002625Y033185D02*
X000440Y033185D01*
X000440Y032986D02*
X002746Y032986D01*
X002867Y032788D02*
X000440Y032788D01*
X000440Y032589D02*
X002987Y032589D01*
X003108Y032391D02*
X000440Y032391D01*
X000440Y032192D02*
X003229Y032192D01*
X003349Y031994D02*
X000440Y031994D01*
X000440Y031795D02*
X003470Y031795D01*
X003591Y031597D02*
X000440Y031597D01*
X000440Y031398D02*
X003711Y031398D01*
X003832Y031200D02*
X000440Y031200D01*
X000440Y031001D02*
X003953Y031001D01*
X004073Y030803D02*
X000440Y030803D01*
X000440Y030604D02*
X004194Y030604D01*
X004315Y030406D02*
X000440Y030406D01*
X000440Y030207D02*
X004435Y030207D01*
X004556Y030009D02*
X000440Y030009D01*
X000440Y029810D02*
X004677Y029810D01*
X004797Y029612D02*
X000440Y029612D01*
X000440Y029413D02*
X004918Y029413D01*
X005039Y029215D02*
X000440Y029215D01*
X000440Y029016D02*
X005159Y029016D01*
X005280Y028818D02*
X000440Y028818D01*
X000440Y028619D02*
X005401Y028619D01*
X005521Y028421D02*
X000440Y028421D01*
X000440Y028222D02*
X005642Y028222D01*
X005763Y028024D02*
X000440Y028024D01*
X000440Y027825D02*
X005883Y027825D01*
X006004Y027627D02*
X000440Y027627D01*
X000440Y027428D02*
X006124Y027428D01*
X006245Y027230D02*
X000440Y027230D01*
X000440Y027031D02*
X006366Y027031D01*
X006486Y026833D02*
X000440Y026833D01*
X000440Y026634D02*
X006607Y026634D01*
X006728Y026436D02*
X000440Y026436D01*
X000440Y026237D02*
X006848Y026237D01*
X006969Y026039D02*
X000440Y026039D01*
X000440Y025840D02*
X007090Y025840D01*
X007210Y025642D02*
X000440Y025642D01*
X000440Y025443D02*
X007331Y025443D01*
X007452Y025245D02*
X000440Y025245D01*
X000440Y025046D02*
X007572Y025046D01*
X007693Y024848D02*
X000440Y024848D01*
X000440Y024649D02*
X007814Y024649D01*
X007934Y024451D02*
X000440Y024451D01*
X000440Y024252D02*
X008055Y024252D01*
X008176Y024054D02*
X000440Y024054D01*
X000440Y023855D02*
X008296Y023855D01*
X008417Y023657D02*
X000440Y023657D01*
X000440Y023458D02*
X008538Y023458D01*
X008658Y023260D02*
X000440Y023260D01*
X000440Y023061D02*
X008779Y023061D01*
X008900Y022863D02*
X000440Y022863D01*
X000440Y022664D02*
X009020Y022664D01*
X009141Y022466D02*
X000440Y022466D01*
X000440Y022267D02*
X009262Y022267D01*
X009339Y022069D02*
X000440Y022069D01*
X000440Y021870D02*
X009387Y021870D01*
X009427Y021672D02*
X000440Y021672D01*
X000440Y021473D02*
X009459Y021473D01*
X009490Y021275D02*
X000440Y021275D01*
X000440Y021076D02*
X009522Y021076D01*
X009553Y020878D02*
X000440Y020878D01*
X000440Y020679D02*
X009568Y020679D01*
X009579Y020481D02*
X000440Y020481D01*
X000440Y020282D02*
X009589Y020282D01*
X009599Y020084D02*
X000440Y020084D01*
X000440Y019885D02*
X009609Y019885D01*
X009598Y019686D02*
X000440Y019686D01*
X000440Y019488D02*
X009588Y019488D01*
X009578Y019289D02*
X000440Y019289D01*
X000440Y019091D02*
X009567Y019091D01*
X009550Y018892D02*
X000440Y018892D01*
X000440Y018694D02*
X009518Y018694D01*
X009487Y018495D02*
X000440Y018495D01*
X000440Y018297D02*
X009455Y018297D01*
X009424Y018098D02*
X000440Y018098D01*
X000440Y017900D02*
X009382Y017900D01*
X009334Y017701D02*
X000440Y017701D01*
X000440Y017503D02*
X009249Y017503D01*
X009128Y017304D02*
X000440Y017304D01*
X000440Y017106D02*
X009008Y017106D01*
X008887Y016907D02*
X000440Y016907D01*
X000440Y016709D02*
X008766Y016709D01*
X008646Y016510D02*
X000440Y016510D01*
X000440Y016312D02*
X008525Y016312D01*
X008404Y016113D02*
X000440Y016113D01*
X000440Y015915D02*
X008284Y015915D01*
X008163Y015716D02*
X000440Y015716D01*
X000440Y015518D02*
X008042Y015518D01*
X007922Y015319D02*
X000440Y015319D01*
X000440Y015121D02*
X007801Y015121D01*
X007680Y014922D02*
X000440Y014922D01*
X000440Y014724D02*
X007560Y014724D01*
X007439Y014525D02*
X000440Y014525D01*
X000440Y014327D02*
X007318Y014327D01*
X007198Y014128D02*
X000440Y014128D01*
X000440Y013930D02*
X007077Y013930D01*
X006956Y013731D02*
X000440Y013731D01*
X000440Y013533D02*
X006836Y013533D01*
X006715Y013334D02*
X000440Y013334D01*
X000440Y013136D02*
X006594Y013136D01*
X006474Y012937D02*
X000440Y012937D01*
X000440Y012739D02*
X006353Y012739D01*
X006232Y012540D02*
X000440Y012540D01*
X000440Y012342D02*
X006112Y012342D01*
X005991Y012143D02*
X000440Y012143D01*
X000440Y011945D02*
X005871Y011945D01*
X005750Y011746D02*
X000440Y011746D01*
X000440Y011548D02*
X005629Y011548D01*
X005509Y011349D02*
X000440Y011349D01*
X000440Y011151D02*
X005388Y011151D01*
X005267Y010952D02*
X000440Y010952D01*
X000440Y010754D02*
X005147Y010754D01*
X005026Y010555D02*
X000440Y010555D01*
X000440Y010357D02*
X004905Y010357D01*
X004785Y010158D02*
X000440Y010158D01*
X000440Y009960D02*
X004664Y009960D01*
X004543Y009761D02*
X000440Y009761D01*
X000440Y009563D02*
X004423Y009563D01*
X004302Y009364D02*
X000440Y009364D01*
X000440Y009166D02*
X004181Y009166D01*
X004061Y008967D02*
X000440Y008967D01*
X000440Y008769D02*
X003940Y008769D01*
X003819Y008570D02*
X000440Y008570D01*
X000440Y008372D02*
X003699Y008372D01*
X003578Y008173D02*
X000440Y008173D01*
X000440Y007975D02*
X003457Y007975D01*
X003337Y007776D02*
X000440Y007776D01*
X000440Y007578D02*
X003216Y007578D01*
X003095Y007379D02*
X000440Y007379D01*
X000440Y007181D02*
X002975Y007181D01*
X002854Y006982D02*
X000440Y006982D01*
X000440Y006784D02*
X002733Y006784D01*
X002613Y006585D02*
X000440Y006585D01*
X000440Y006387D02*
X002492Y006387D01*
X002371Y006188D02*
X000440Y006188D01*
X000440Y005990D02*
X002251Y005990D01*
X002130Y005791D02*
X000440Y005791D01*
X000440Y005593D02*
X002009Y005593D01*
X001889Y005394D02*
X000440Y005394D01*
X000440Y005196D02*
X001768Y005196D01*
X001648Y004997D02*
X000440Y004997D01*
X000440Y004799D02*
X001527Y004799D01*
X001406Y004600D02*
X000440Y004600D01*
X000440Y004402D02*
X001286Y004402D01*
X001165Y004203D02*
X000440Y004203D01*
X000440Y004005D02*
X000991Y004005D01*
X000950Y003964D02*
X000950Y003964D01*
X000859Y003806D02*
X000440Y003806D01*
X000440Y003608D02*
X000745Y003608D01*
X000671Y003480D02*
X000671Y003480D01*
X000652Y003409D02*
X000440Y003409D01*
X000440Y003211D02*
X000599Y003211D01*
X000545Y003012D02*
X000440Y003012D01*
X000440Y002814D02*
X000526Y002814D01*
X000526Y002615D02*
X000440Y002615D01*
X000440Y002417D02*
X000526Y002417D01*
X000569Y002218D02*
X000440Y002218D01*
X000440Y002020D02*
X000622Y002020D01*
X000671Y001839D02*
X000671Y001839D01*
X000681Y001821D02*
X000440Y001821D01*
X000440Y001623D02*
X000796Y001623D01*
X000910Y001424D02*
X000440Y001424D01*
X000440Y001226D02*
X001079Y001226D01*
X001113Y001192D02*
X001113Y001192D01*
X000950Y001355D02*
X000950Y001355D01*
X001278Y001027D02*
X000440Y001027D01*
X000440Y000829D02*
X001572Y000829D01*
X002014Y000630D02*
X000440Y000630D01*
X003288Y000630D02*
X036487Y000630D01*
X036042Y000829D02*
X003730Y000829D01*
X003956Y000959D02*
X003956Y000959D01*
X004024Y001027D02*
X035749Y001027D01*
X035789Y000988D02*
X035789Y000988D01*
X035493Y001226D02*
X004280Y001226D01*
X004607Y001424D02*
X035166Y001424D01*
X034839Y001623D02*
X004934Y001623D01*
X005260Y001821D02*
X034513Y001821D01*
X034186Y002020D02*
X005587Y002020D01*
X005913Y002218D02*
X033860Y002218D01*
X033533Y002417D02*
X006240Y002417D01*
X006566Y002615D02*
X033207Y002615D01*
X032880Y002814D02*
X006893Y002814D01*
X007220Y003012D02*
X032554Y003012D01*
X032227Y003211D02*
X007546Y003211D01*
X007873Y003409D02*
X031900Y003409D01*
X031574Y003608D02*
X008199Y003608D01*
X008526Y003806D02*
X031247Y003806D01*
X030921Y004005D02*
X008852Y004005D01*
X009179Y004203D02*
X030594Y004203D01*
X030268Y004402D02*
X009505Y004402D01*
X009832Y004600D02*
X029941Y004600D01*
X029614Y004799D02*
X010159Y004799D01*
X010485Y004997D02*
X029288Y004997D01*
X028961Y005196D02*
X010812Y005196D01*
X011138Y005394D02*
X028635Y005394D01*
X028308Y005593D02*
X011465Y005593D01*
X011791Y005791D02*
X027982Y005791D01*
X027655Y005990D02*
X012118Y005990D01*
X012445Y006188D02*
X027328Y006188D01*
X027002Y006387D02*
X012771Y006387D01*
X013098Y006585D02*
X026675Y006585D01*
X026349Y006784D02*
X013424Y006784D01*
X013751Y006982D02*
X026022Y006982D01*
X025696Y007181D02*
X014077Y007181D01*
X014404Y007379D02*
X025369Y007379D01*
X025043Y007578D02*
X014730Y007578D01*
X015057Y007776D02*
X024716Y007776D01*
X024389Y007975D02*
X015384Y007975D01*
X015710Y008173D02*
X024063Y008173D01*
X023736Y008372D02*
X016037Y008372D01*
X016363Y008570D02*
X023410Y008570D01*
X023083Y008769D02*
X016690Y008769D01*
X017016Y008967D02*
X022757Y008967D01*
X022430Y009166D02*
X017343Y009166D01*
X017781Y009364D02*
X021992Y009364D01*
X022413Y009761D02*
X023739Y009761D01*
X023593Y009849D02*
X034600Y003245D01*
X034633Y003222D01*
X034642Y003220D01*
X034650Y003215D01*
X034690Y003209D01*
X034730Y003200D01*
X034739Y003202D01*
X034748Y003201D01*
X034788Y003211D01*
X034828Y003218D01*
X034836Y003223D01*
X034845Y003225D01*
X034878Y003249D01*
X034912Y003271D01*
X034917Y003279D01*
X034925Y003284D01*
X034944Y003317D01*
X035157Y003602D01*
X035638Y004144D01*
X036180Y004625D01*
X036465Y004838D01*
X036498Y004857D01*
X036503Y004865D01*
X036511Y004870D01*
X036533Y004904D01*
X036557Y004937D01*
X036559Y004946D01*
X036564Y004954D01*
X036571Y004994D01*
X036581Y005034D01*
X036580Y005043D01*
X036582Y005052D01*
X036573Y005092D01*
X036567Y005132D01*
X036562Y005140D01*
X036560Y005149D01*
X036537Y005182D01*
X029933Y016189D01*
X029931Y016197D01*
X029907Y016231D01*
X029886Y016266D01*
X029879Y016271D01*
X029874Y016279D01*
X029839Y016301D01*
X029806Y016325D01*
X029798Y016327D01*
X029790Y016332D01*
X029750Y016339D01*
X029710Y016349D01*
X029701Y016348D01*
X029692Y016350D01*
X029652Y016341D01*
X029612Y016335D01*
X029604Y016330D01*
X029595Y016328D01*
X029561Y016305D01*
X029526Y016284D01*
X029521Y016276D01*
X028847Y015804D01*
X027505Y014718D01*
X026242Y013540D01*
X025064Y012277D01*
X023978Y010935D01*
X023506Y010261D01*
X023498Y010256D01*
X023477Y010221D01*
X023454Y010187D01*
X023452Y010178D01*
X023447Y010170D01*
X023441Y010130D01*
X023432Y010090D01*
X023434Y010081D01*
X023433Y010072D01*
X023443Y010032D01*
X023450Y009992D01*
X023455Y009984D01*
X023457Y009975D01*
X023481Y009943D01*
X023503Y009908D01*
X023511Y009903D01*
X023516Y009896D01*
X023551Y009874D01*
X023585Y009851D01*
X023593Y009849D01*
X023468Y009960D02*
X023208Y009960D01*
X023215Y009967D02*
X023242Y010013D01*
X023255Y010063D01*
X023255Y010337D01*
X022808Y010337D01*
X022808Y010433D01*
X023255Y010433D01*
X023255Y010707D01*
X023242Y010757D01*
X023215Y010803D01*
X023178Y010840D01*
X023132Y010867D01*
X023082Y010880D01*
X022808Y010880D01*
X022808Y010433D01*
X022712Y010433D01*
X022712Y010337D01*
X022808Y010337D01*
X022808Y009890D01*
X023082Y009890D01*
X023132Y009903D01*
X023178Y009930D01*
X023215Y009967D01*
X023255Y010158D02*
X023445Y010158D01*
X023573Y010357D02*
X022808Y010357D01*
X022712Y010357D02*
X017183Y010357D01*
X017183Y010337D02*
X017183Y010433D01*
X017630Y010433D01*
X017630Y010707D01*
X017617Y010757D01*
X017590Y010803D01*
X017553Y010840D01*
X017507Y010867D01*
X017457Y010880D01*
X017183Y010880D01*
X017183Y010433D01*
X017087Y010433D01*
X017087Y010337D01*
X017183Y010337D01*
X017630Y010337D01*
X017630Y010063D01*
X017617Y010013D01*
X017590Y009967D01*
X017553Y009930D01*
X017507Y009903D01*
X017457Y009890D01*
X017183Y009890D01*
X017183Y010337D01*
X017087Y010337D02*
X017087Y009890D01*
X016813Y009890D01*
X016763Y009903D01*
X016717Y009930D01*
X016680Y009967D01*
X016653Y010013D01*
X016640Y010063D01*
X016640Y010337D01*
X017087Y010337D01*
X017087Y010357D02*
X016200Y010357D01*
X016267Y010261D02*
X015795Y010935D01*
X014709Y012277D01*
X013531Y013540D01*
X012268Y014718D01*
X010926Y015804D01*
X010252Y016276D01*
X010247Y016284D01*
X010212Y016305D01*
X010178Y016328D01*
X010169Y016330D01*
X010161Y016335D01*
X010121Y016341D01*
X010081Y016350D01*
X010072Y016348D01*
X010063Y016349D01*
X010023Y016339D01*
X009983Y016332D01*
X009975Y016327D01*
X009967Y016325D01*
X009934Y016301D01*
X009899Y016279D01*
X009894Y016271D01*
X009887Y016266D01*
X009866Y016231D01*
X009842Y016197D01*
X009840Y016189D01*
X003236Y005182D01*
X003213Y005149D01*
X003211Y005140D01*
X003206Y005132D01*
X003200Y005092D01*
X003191Y005052D01*
X003193Y005043D01*
X003192Y005034D01*
X003202Y004994D01*
X003209Y004954D01*
X003214Y004946D01*
X003216Y004937D01*
X003240Y004904D01*
X003262Y004870D01*
X003270Y004865D01*
X003275Y004857D01*
X003308Y004838D01*
X003593Y004625D01*
X004135Y004144D01*
X004616Y003602D01*
X004829Y003317D01*
X004848Y003284D01*
X004856Y003279D01*
X004861Y003271D01*
X004895Y003249D01*
X004928Y003225D01*
X004937Y003223D01*
X004945Y003218D01*
X004985Y003211D01*
X005025Y003201D01*
X005034Y003202D01*
X005043Y003200D01*
X005083Y003209D01*
X005123Y003215D01*
X005131Y003220D01*
X005140Y003222D01*
X005173Y003245D01*
X016180Y009849D01*
X016188Y009851D01*
X016222Y009874D01*
X016257Y009896D01*
X016262Y009903D01*
X016270Y009908D01*
X016292Y009943D01*
X016316Y009975D01*
X016318Y009984D01*
X016323Y009992D01*
X016330Y010032D01*
X016340Y010072D01*
X016339Y010081D01*
X016341Y010090D01*
X016332Y010130D01*
X016326Y010170D01*
X016321Y010178D01*
X016319Y010187D01*
X016296Y010221D01*
X016275Y010256D01*
X016267Y010261D01*
X016328Y010158D02*
X016640Y010158D01*
X016687Y009960D02*
X016305Y009960D01*
X016034Y009761D02*
X017360Y009761D01*
X017183Y009960D02*
X017087Y009960D01*
X017087Y010158D02*
X017183Y010158D01*
X017087Y010433D02*
X016640Y010433D01*
X016640Y010707D01*
X016653Y010757D01*
X016680Y010803D01*
X016717Y010840D01*
X016763Y010867D01*
X016813Y010880D01*
X017087Y010880D01*
X017087Y010433D01*
X017087Y010555D02*
X017183Y010555D01*
X017183Y010754D02*
X017087Y010754D01*
X016652Y010754D02*
X015922Y010754D01*
X015795Y010935D02*
X015795Y010935D01*
X015781Y010952D02*
X023992Y010952D01*
X023978Y010935D02*
X023978Y010935D01*
X023851Y010754D02*
X023243Y010754D01*
X023255Y010555D02*
X023712Y010555D01*
X024153Y011151D02*
X015620Y011151D01*
X015460Y011349D02*
X024313Y011349D01*
X024474Y011548D02*
X015299Y011548D01*
X015138Y011746D02*
X024635Y011746D01*
X024796Y011945D02*
X014977Y011945D01*
X014817Y012143D02*
X024956Y012143D01*
X025064Y012277D02*
X025064Y012277D01*
X025125Y012342D02*
X014648Y012342D01*
X014709Y012277D02*
X014709Y012277D01*
X014463Y012540D02*
X025310Y012540D01*
X025495Y012739D02*
X014278Y012739D01*
X014093Y012937D02*
X025680Y012937D01*
X025865Y013136D02*
X013908Y013136D01*
X013722Y013334D02*
X014469Y013334D01*
X014271Y013533D02*
X013537Y013533D01*
X013531Y013540D02*
X013531Y013540D01*
X013325Y013731D02*
X014050Y013731D01*
X013851Y013930D02*
X013113Y013930D01*
X012900Y014128D02*
X013653Y014128D01*
X013454Y014327D02*
X012687Y014327D01*
X012474Y014525D02*
X013338Y014525D01*
X013108Y014724D02*
X012260Y014724D01*
X012268Y014718D02*
X012268Y014718D01*
X012015Y014922D02*
X012990Y014922D01*
X013000Y015121D02*
X011770Y015121D01*
X011525Y015319D02*
X013131Y015319D01*
X013470Y015518D02*
X011280Y015518D01*
X011034Y015716D02*
X013470Y015716D01*
X013470Y015915D02*
X010768Y015915D01*
X010926Y015804D02*
X010926Y015804D01*
X010484Y016113D02*
X013470Y016113D01*
X013530Y016312D02*
X010201Y016312D01*
X009949Y016312D02*
X009110Y016312D01*
X008989Y016113D02*
X009795Y016113D01*
X009676Y015915D02*
X008869Y015915D01*
X008748Y015716D02*
X009557Y015716D01*
X009438Y015518D02*
X008627Y015518D01*
X008507Y015319D02*
X009319Y015319D01*
X009200Y015121D02*
X008386Y015121D01*
X008265Y014922D02*
X009081Y014922D01*
X008961Y014724D02*
X008145Y014724D01*
X008024Y014525D02*
X008842Y014525D01*
X008723Y014327D02*
X007904Y014327D01*
X007783Y014128D02*
X008604Y014128D01*
X008485Y013930D02*
X007662Y013930D01*
X007542Y013731D02*
X008366Y013731D01*
X008247Y013533D02*
X007421Y013533D01*
X007300Y013334D02*
X008128Y013334D01*
X008009Y013136D02*
X007180Y013136D01*
X007059Y012937D02*
X007890Y012937D01*
X007770Y012739D02*
X006938Y012739D01*
X006818Y012540D02*
X007651Y012540D01*
X007532Y012342D02*
X006697Y012342D01*
X006576Y012143D02*
X007413Y012143D01*
X007294Y011945D02*
X006456Y011945D01*
X006335Y011746D02*
X007175Y011746D01*
X007056Y011548D02*
X006214Y011548D01*
X006094Y011349D02*
X006937Y011349D01*
X006818Y011151D02*
X005973Y011151D01*
X005852Y010952D02*
X006699Y010952D01*
X006579Y010754D02*
X005732Y010754D01*
X005611Y010555D02*
X006460Y010555D01*
X006341Y010357D02*
X005490Y010357D01*
X005370Y010158D02*
X006222Y010158D01*
X006103Y009960D02*
X005249Y009960D01*
X005128Y009761D02*
X005984Y009761D01*
X005865Y009563D02*
X005008Y009563D01*
X004887Y009364D02*
X005746Y009364D01*
X005627Y009166D02*
X004766Y009166D01*
X004646Y008967D02*
X005508Y008967D01*
X005388Y008769D02*
X004525Y008769D01*
X004404Y008570D02*
X005269Y008570D01*
X005150Y008372D02*
X004284Y008372D01*
X004163Y008173D02*
X005031Y008173D01*
X004912Y007975D02*
X004042Y007975D01*
X003922Y007776D02*
X004793Y007776D01*
X004674Y007578D02*
X003801Y007578D01*
X003681Y007379D02*
X004555Y007379D01*
X004436Y007181D02*
X003560Y007181D01*
X003439Y006982D02*
X004316Y006982D01*
X004197Y006784D02*
X003319Y006784D01*
X003198Y006585D02*
X004078Y006585D01*
X003959Y006387D02*
X003077Y006387D01*
X002957Y006188D02*
X003840Y006188D01*
X003721Y005990D02*
X002836Y005990D01*
X002715Y005791D02*
X003602Y005791D01*
X003483Y005593D02*
X002595Y005593D01*
X002474Y005394D02*
X003364Y005394D01*
X003245Y005196D02*
X002956Y005196D01*
X003072Y004997D02*
X003201Y004997D01*
X003082Y004799D02*
X003360Y004799D01*
X003621Y004600D02*
X002982Y004600D01*
X002774Y004303D02*
X002774Y004303D01*
X002284Y004266D02*
X002284Y004266D01*
X002125Y004203D02*
X001750Y004203D01*
X001725Y004005D02*
X001629Y004005D01*
X001871Y004402D02*
X003844Y004402D01*
X004067Y004203D02*
X003209Y004203D01*
X003579Y004005D02*
X004258Y004005D01*
X004435Y003806D02*
X003809Y003806D01*
X003678Y003948D02*
X003678Y003948D01*
X003993Y003608D02*
X004611Y003608D01*
X004760Y003409D02*
X004098Y003409D01*
X004012Y003588D02*
X004012Y003588D01*
X004194Y003211D02*
X004983Y003211D01*
X005095Y003211D02*
X006583Y003211D01*
X006257Y003012D02*
X004245Y003012D01*
X004275Y002814D02*
X005930Y002814D01*
X005604Y002615D02*
X004292Y002615D01*
X004262Y002417D02*
X005277Y002417D01*
X004951Y002218D02*
X004232Y002218D01*
X004225Y002174D02*
X004225Y002174D01*
X004151Y002020D02*
X004624Y002020D01*
X004298Y001821D02*
X004055Y001821D01*
X004012Y001732D02*
X004012Y001732D01*
X003971Y001623D02*
X003911Y001623D01*
X003471Y000680D02*
X003471Y000680D01*
X005447Y003409D02*
X006910Y003409D01*
X007237Y003608D02*
X005778Y003608D01*
X006109Y003806D02*
X007563Y003806D01*
X007890Y004005D02*
X006439Y004005D01*
X006770Y004203D02*
X008216Y004203D01*
X008543Y004402D02*
X007101Y004402D01*
X007432Y004600D02*
X008869Y004600D01*
X009196Y004799D02*
X007763Y004799D01*
X008094Y004997D02*
X009523Y004997D01*
X009849Y005196D02*
X008424Y005196D01*
X008755Y005394D02*
X010176Y005394D01*
X010502Y005593D02*
X009086Y005593D01*
X009417Y005791D02*
X010829Y005791D01*
X011155Y005990D02*
X009748Y005990D01*
X010079Y006188D02*
X011482Y006188D01*
X011808Y006387D02*
X010409Y006387D01*
X010740Y006585D02*
X012135Y006585D01*
X012462Y006784D02*
X011071Y006784D01*
X011402Y006982D02*
X012788Y006982D01*
X013115Y007181D02*
X011733Y007181D01*
X012064Y007379D02*
X013441Y007379D01*
X013768Y007578D02*
X012394Y007578D01*
X012725Y007776D02*
X014094Y007776D01*
X014421Y007975D02*
X013056Y007975D01*
X013387Y008173D02*
X014748Y008173D01*
X015074Y008372D02*
X013718Y008372D01*
X014049Y008570D02*
X015401Y008570D01*
X015727Y008769D02*
X014379Y008769D01*
X014710Y008967D02*
X016054Y008967D01*
X016380Y009166D02*
X015041Y009166D01*
X015372Y009364D02*
X016707Y009364D01*
X017034Y009563D02*
X015703Y009563D01*
X016061Y010555D02*
X016640Y010555D01*
X017630Y010555D02*
X022265Y010555D01*
X022265Y010433D02*
X022712Y010433D01*
X022712Y010880D01*
X022438Y010880D01*
X022388Y010867D01*
X022342Y010840D01*
X022305Y010803D01*
X022278Y010757D01*
X022265Y010707D01*
X022265Y010433D01*
X022265Y010337D02*
X022265Y010063D01*
X022278Y010013D01*
X022305Y009967D01*
X022342Y009930D01*
X022388Y009903D01*
X022438Y009890D01*
X022712Y009890D01*
X022712Y010337D01*
X022265Y010337D01*
X022265Y010158D02*
X017630Y010158D01*
X017583Y009960D02*
X018142Y009960D01*
X018911Y009563D02*
X020862Y009563D01*
X021631Y009960D02*
X022312Y009960D01*
X022712Y009960D02*
X022808Y009960D01*
X022808Y010158D02*
X022712Y010158D01*
X022712Y010555D02*
X022808Y010555D01*
X022808Y010754D02*
X022712Y010754D01*
X022277Y010754D02*
X017618Y010754D01*
X015023Y013533D02*
X026236Y013533D01*
X026242Y013540D02*
X026242Y013540D01*
X026051Y013334D02*
X014825Y013334D01*
X015173Y013731D02*
X026448Y013731D01*
X026660Y013930D02*
X025643Y013930D01*
X025459Y013930D02*
X015420Y013930D01*
X015609Y014128D02*
X025235Y014128D01*
X024977Y014327D02*
X015626Y014327D01*
X013573Y016510D02*
X009231Y016510D01*
X009351Y016709D02*
X011759Y016709D01*
X011725Y016907D02*
X011289Y016907D01*
X011401Y017106D02*
X011725Y017106D01*
X011725Y017304D02*
X011450Y017304D01*
X011450Y017503D02*
X011735Y017503D01*
X012700Y017701D02*
X013400Y017701D01*
X013400Y017900D02*
X012700Y017900D01*
X012697Y018098D02*
X013400Y018098D01*
X013400Y018297D02*
X012688Y018297D01*
X013071Y018495D02*
X013400Y018495D01*
X013400Y018694D02*
X013071Y018694D01*
X013071Y018892D02*
X013400Y018892D01*
X013400Y019091D02*
X013071Y019091D01*
X013342Y019289D02*
X013400Y019289D01*
X014120Y020169D02*
X014120Y020183D01*
X014065Y020315D01*
X013784Y020596D01*
X013784Y020926D01*
X013750Y021010D01*
X013784Y021094D01*
X013784Y021426D01*
X013750Y021510D01*
X013784Y021594D01*
X013784Y021926D01*
X013750Y022010D01*
X013784Y022094D01*
X013784Y022426D01*
X013748Y022514D01*
X013680Y022582D01*
X013592Y022618D01*
X013370Y022618D01*
X013370Y022690D01*
X013382Y022695D01*
X013447Y022760D01*
X013529Y022677D01*
X013728Y022595D01*
X014542Y022595D01*
X014552Y022599D01*
X014631Y022599D01*
X014590Y022582D01*
X014522Y022514D01*
X014486Y022426D01*
X014486Y022094D01*
X014522Y022006D01*
X014551Y021977D01*
X014539Y021955D01*
X014526Y021904D01*
X014526Y021760D01*
X014526Y021616D01*
X014539Y021565D01*
X014551Y021543D01*
X014522Y021514D01*
X014486Y021426D01*
X014486Y021094D01*
X014522Y021006D01*
X014551Y020977D01*
X014539Y020955D01*
X014526Y020904D01*
X014526Y020760D01*
X014526Y020616D01*
X014539Y020565D01*
X014548Y020549D01*
X014465Y020514D01*
X014120Y020169D01*
X014079Y020282D02*
X014233Y020282D01*
X014431Y020481D02*
X013900Y020481D01*
X013784Y020679D02*
X014526Y020679D01*
X014526Y020760D02*
X015159Y020760D01*
X015159Y020760D01*
X014526Y020760D01*
X014526Y020878D02*
X013784Y020878D01*
X013777Y021076D02*
X014493Y021076D01*
X014486Y021275D02*
X013784Y021275D01*
X013765Y021473D02*
X014505Y021473D01*
X014526Y021672D02*
X013784Y021672D01*
X013784Y021870D02*
X014526Y021870D01*
X014526Y021760D02*
X015159Y021760D01*
X014526Y021760D01*
X014496Y022069D02*
X013774Y022069D01*
X013784Y022267D02*
X014486Y022267D01*
X014502Y022466D02*
X013768Y022466D01*
X013561Y022664D02*
X013370Y022664D01*
X012534Y022863D02*
X010558Y022863D01*
X010558Y022837D02*
X010558Y022933D01*
X010462Y022933D01*
X010462Y022837D01*
X010558Y022837D01*
X010558Y022933D02*
X011005Y022933D01*
X011005Y023207D01*
X010992Y023257D01*
X010965Y023303D01*
X010928Y023340D01*
X010882Y023367D01*
X010832Y023380D01*
X010558Y023380D01*
X010558Y022933D01*
X010462Y022933D02*
X010462Y023380D01*
X010188Y023380D01*
X010138Y023367D01*
X010092Y023340D01*
X010055Y023303D01*
X010028Y023257D01*
X010015Y023207D01*
X010015Y022933D01*
X010462Y022933D01*
X010462Y022863D02*
X009485Y022863D01*
X009364Y023061D02*
X010015Y023061D01*
X010030Y023260D02*
X009243Y023260D01*
X009123Y023458D02*
X009986Y023458D01*
X009983Y023459D02*
X010023Y023451D01*
X010063Y023442D01*
X010072Y023443D01*
X010081Y023441D01*
X010121Y023450D01*
X010161Y023456D01*
X010169Y023461D01*
X010178Y023463D01*
X010212Y023486D01*
X010247Y023507D01*
X010252Y023515D01*
X010926Y023987D01*
X012268Y025073D01*
X013531Y026251D01*
X014709Y027514D01*
X015795Y028856D01*
X016267Y029530D01*
X016275Y029535D01*
X016296Y029570D01*
X016319Y029604D01*
X016321Y029613D01*
X016326Y029621D01*
X016332Y029661D01*
X016341Y029701D01*
X016339Y029710D01*
X016340Y029719D01*
X016330Y029759D01*
X016323Y029799D01*
X016318Y029807D01*
X016316Y029815D01*
X016292Y029848D01*
X016270Y029883D01*
X016262Y029888D01*
X016257Y029895D01*
X016222Y029916D01*
X016188Y029940D01*
X016180Y029942D01*
X005173Y036546D01*
X005140Y036569D01*
X005131Y036571D01*
X005123Y036576D01*
X005083Y036582D01*
X005043Y036591D01*
X005034Y036589D01*
X005025Y036590D01*
X004985Y036580D01*
X004945Y036573D01*
X004937Y036568D01*
X004928Y036566D01*
X004895Y036542D01*
X004861Y036520D01*
X004856Y036512D01*
X004848Y036507D01*
X004829Y036474D01*
X004616Y036188D01*
X004135Y035647D01*
X003593Y035166D01*
X003308Y034953D01*
X003275Y034933D01*
X003270Y034926D01*
X003262Y034921D01*
X003240Y034886D01*
X003216Y034854D01*
X003214Y034845D01*
X003209Y034837D01*
X003202Y034797D01*
X003192Y034757D01*
X003193Y034748D01*
X003191Y034739D01*
X003200Y034699D01*
X003206Y034659D01*
X003211Y034651D01*
X003213Y034642D01*
X003236Y034609D01*
X009840Y023602D01*
X009842Y023593D01*
X009866Y023560D01*
X009887Y023525D01*
X009894Y023519D01*
X009899Y023512D01*
X009934Y023490D01*
X009967Y023466D01*
X009975Y023463D01*
X009983Y023459D01*
X010164Y023458D02*
X012550Y023458D01*
X012534Y023260D02*
X010990Y023260D01*
X011005Y023061D02*
X012534Y023061D01*
X012697Y023712D02*
X012747Y023699D01*
X012992Y023699D01*
X012992Y024117D01*
X012574Y024117D01*
X012574Y023872D01*
X012587Y023822D01*
X012614Y023776D01*
X012651Y023739D01*
X012697Y023712D01*
X012579Y023855D02*
X010738Y023855D01*
X010926Y023987D02*
X010926Y023987D01*
X011009Y024054D02*
X012574Y024054D01*
X012574Y024153D02*
X012992Y024153D01*
X012992Y024571D01*
X012747Y024571D01*
X012697Y024558D01*
X012651Y024531D01*
X012614Y024494D01*
X012587Y024448D01*
X012574Y024398D01*
X012574Y024153D01*
X012574Y024252D02*
X011254Y024252D01*
X011499Y024451D02*
X012589Y024451D01*
X012992Y024451D02*
X013028Y024451D01*
X013028Y024252D02*
X012992Y024252D01*
X012992Y024054D02*
X013028Y024054D01*
X013028Y023855D02*
X012992Y023855D01*
X013683Y023657D02*
X010455Y023657D01*
X010462Y023260D02*
X010558Y023260D01*
X010558Y023061D02*
X010462Y023061D01*
X010462Y022837D02*
X010015Y022837D01*
X010015Y022563D01*
X010028Y022513D01*
X010055Y022467D01*
X010092Y022430D01*
X010138Y022403D01*
X010188Y022390D01*
X010462Y022390D01*
X010462Y022837D01*
X010462Y022664D02*
X010558Y022664D01*
X010558Y022466D02*
X010462Y022466D01*
X010056Y022466D02*
X009726Y022466D01*
X009808Y022267D02*
X010916Y022267D01*
X010916Y022069D02*
X009861Y022069D01*
X009914Y021870D02*
X010916Y021870D01*
X010927Y021672D02*
X009946Y021672D01*
X009977Y021473D02*
X011015Y021473D01*
X010916Y021275D02*
X010009Y021275D01*
X010040Y021076D02*
X010916Y021076D01*
X010916Y020878D02*
X010071Y020878D01*
X010070Y020887D02*
X010070Y020887D01*
X010081Y020679D02*
X010916Y020679D01*
X010980Y020481D02*
X010092Y020481D01*
X010102Y020282D02*
X010975Y020282D01*
X011004Y020084D02*
X010112Y020084D01*
X010122Y019885D02*
X010463Y019885D01*
X010469Y019907D02*
X010456Y019856D01*
X010456Y019592D01*
X010972Y019592D01*
X010972Y020030D01*
X010629Y020030D01*
X010578Y020016D01*
X010533Y019990D01*
X010496Y019953D01*
X010469Y019907D01*
X010456Y019686D02*
X010111Y019686D01*
X010101Y019488D02*
X010456Y019488D01*
X010456Y019516D02*
X010456Y019252D01*
X010469Y019202D01*
X010496Y019156D01*
X010533Y019119D01*
X010578Y019092D01*
X010629Y019079D01*
X010972Y019079D01*
X010972Y019516D01*
X010456Y019516D01*
X010456Y019289D02*
X010091Y019289D01*
X010080Y019091D02*
X010583Y019091D01*
X010972Y019091D02*
X011048Y019091D01*
X011048Y019289D02*
X010972Y019289D01*
X010972Y019488D02*
X011048Y019488D01*
X011048Y019686D02*
X010972Y019686D01*
X010972Y019885D02*
X011048Y019885D01*
X011437Y019091D02*
X011449Y019091D01*
X011449Y018892D02*
X010068Y018892D01*
X010037Y018694D02*
X010519Y018694D01*
X010416Y018495D02*
X010006Y018495D01*
X009974Y018297D02*
X010416Y018297D01*
X010416Y018098D02*
X009943Y018098D01*
X009915Y017924D02*
X009915Y017924D01*
X009909Y017900D02*
X010416Y017900D01*
X010570Y017701D02*
X009855Y017701D01*
X009802Y017503D02*
X010406Y017503D01*
X010350Y017304D02*
X009713Y017304D01*
X009593Y017106D02*
X010369Y017106D01*
X010481Y016907D02*
X009472Y016907D01*
X012761Y016709D02*
X013534Y016709D01*
X013534Y016907D02*
X012795Y016907D01*
X012795Y017106D02*
X013534Y017106D01*
X013618Y017304D02*
X012795Y017304D01*
X012785Y017503D02*
X013508Y017503D01*
X015159Y021760D02*
X015159Y021760D01*
X015792Y021781D02*
X015792Y021904D01*
X015778Y021955D01*
X015766Y021977D01*
X015795Y022006D01*
X015832Y022094D01*
X015832Y022422D01*
X015875Y022440D01*
X015943Y022508D01*
X015979Y022596D01*
X015979Y023322D01*
X015943Y023410D01*
X015875Y023477D01*
X015787Y023514D01*
X014983Y023514D01*
X014895Y023477D01*
X014876Y023458D01*
X014741Y023593D01*
X014584Y023658D01*
X014627Y023672D01*
X014697Y023707D01*
X014761Y023754D01*
X014816Y023809D01*
X014831Y023829D01*
X014831Y023720D01*
X014844Y023669D01*
X014871Y023623D01*
X014908Y023586D01*
X014953Y023560D01*
X015004Y023546D01*
X015328Y023546D01*
X015328Y024004D01*
X015442Y024004D01*
X015442Y023546D01*
X015766Y023546D01*
X015817Y023560D01*
X015862Y023586D01*
X015899Y023623D01*
X015926Y023669D01*
X015939Y023720D01*
X015939Y024004D01*
X015442Y024004D01*
X015442Y024119D01*
X015939Y024119D01*
X015939Y024335D01*
X016161Y024335D01*
X016131Y024305D01*
X016085Y024195D01*
X016085Y021950D01*
X016131Y021840D01*
X016189Y021781D01*
X015792Y021781D01*
X015792Y021870D02*
X016118Y021870D01*
X016085Y022069D02*
X015821Y022069D01*
X015832Y022267D02*
X016085Y022267D01*
X016085Y022466D02*
X015900Y022466D01*
X015979Y022664D02*
X016085Y022664D01*
X016085Y022863D02*
X015979Y022863D01*
X015979Y023061D02*
X016085Y023061D01*
X016085Y023260D02*
X015979Y023260D01*
X015895Y023458D02*
X016085Y023458D01*
X016085Y023657D02*
X015918Y023657D01*
X015939Y023855D02*
X016085Y023855D01*
X016085Y024054D02*
X015442Y024054D01*
X015442Y023855D02*
X015328Y023855D01*
X015328Y023657D02*
X015442Y023657D01*
X014852Y023657D02*
X014587Y023657D01*
X014135Y024252D02*
X014135Y024252D01*
X014135Y024451D02*
X014135Y024451D01*
X014435Y025046D02*
X012234Y025046D01*
X012268Y025073D02*
X012268Y025073D01*
X012452Y025245D02*
X013787Y025245D01*
X013983Y025245D02*
X014236Y025245D01*
X013533Y025443D02*
X012664Y025443D01*
X012877Y025642D02*
X013487Y025642D01*
X013539Y025840D02*
X013090Y025840D01*
X013303Y026039D02*
X013864Y026039D01*
X014123Y026237D02*
X013516Y026237D01*
X013531Y026251D02*
X013531Y026251D01*
X013703Y026436D02*
X014326Y026436D01*
X014520Y026634D02*
X013888Y026634D01*
X014073Y026833D02*
X015510Y026833D01*
X015475Y027031D02*
X014258Y027031D01*
X014443Y027230D02*
X015475Y027230D01*
X015475Y027428D02*
X014629Y027428D01*
X014709Y027514D02*
X014709Y027514D01*
X014800Y027627D02*
X015484Y027627D01*
X015594Y027825D02*
X014961Y027825D01*
X015121Y028024D02*
X015732Y028024D01*
X015930Y028222D02*
X015282Y028222D01*
X015443Y028421D02*
X016129Y028421D01*
X016325Y028619D02*
X015604Y028619D01*
X015764Y028818D02*
X016325Y028818D01*
X016377Y029016D02*
X015907Y029016D01*
X015795Y028856D02*
X015795Y028856D01*
X016046Y029215D02*
X016842Y029215D01*
X016887Y029259D02*
X016887Y029259D01*
X017083Y029413D02*
X016185Y029413D01*
X016321Y029612D02*
X022265Y029612D01*
X022265Y029810D02*
X020998Y029810D01*
X020826Y029779D02*
X020826Y029779D01*
X020709Y029215D02*
X018005Y029215D01*
X018141Y029016D02*
X018217Y029016D01*
X018217Y029064D02*
X018217Y028548D01*
X018655Y028548D01*
X018655Y028891D01*
X018641Y028942D01*
X018615Y028987D01*
X018578Y029024D01*
X018532Y029051D01*
X018481Y029064D01*
X018217Y029064D01*
X018217Y028818D02*
X018141Y028818D01*
X018141Y028619D02*
X018217Y028619D01*
X018655Y028619D02*
X018874Y028619D01*
X018811Y028421D02*
X018655Y028421D01*
X018655Y028222D02*
X018811Y028222D01*
X018811Y028024D02*
X018606Y028024D01*
X018655Y028818D02*
X019677Y028818D01*
X019763Y029016D02*
X018586Y029016D01*
X018879Y029743D02*
X018879Y029743D01*
X018394Y029810D02*
X016318Y029810D01*
X016741Y030406D02*
X015407Y030406D01*
X015076Y030604D02*
X016415Y030604D01*
X016088Y030803D02*
X014745Y030803D01*
X014414Y031001D02*
X015762Y031001D01*
X015435Y031200D02*
X014083Y031200D01*
X013753Y031398D02*
X015108Y031398D01*
X014782Y031597D02*
X013422Y031597D01*
X013091Y031795D02*
X014455Y031795D01*
X014129Y031994D02*
X012760Y031994D01*
X012429Y032192D02*
X013802Y032192D01*
X013476Y032391D02*
X012098Y032391D01*
X011768Y032589D02*
X013149Y032589D01*
X012822Y032788D02*
X011437Y032788D01*
X011106Y032986D02*
X012496Y032986D01*
X012169Y033185D02*
X010775Y033185D01*
X010444Y033383D02*
X011843Y033383D01*
X011516Y033582D02*
X010113Y033582D01*
X009783Y033780D02*
X011190Y033780D01*
X010863Y033979D02*
X009452Y033979D01*
X009121Y034177D02*
X010536Y034177D01*
X010210Y034376D02*
X008790Y034376D01*
X008459Y034574D02*
X009883Y034574D01*
X009557Y034773D02*
X008128Y034773D01*
X007798Y034971D02*
X009230Y034971D01*
X008904Y035170D02*
X007467Y035170D01*
X007136Y035368D02*
X008577Y035368D01*
X008251Y035567D02*
X006805Y035567D01*
X006474Y035765D02*
X007924Y035765D01*
X007597Y035964D02*
X006143Y035964D01*
X005813Y036162D02*
X007271Y036162D01*
X006944Y036361D02*
X005482Y036361D01*
X005154Y036559D02*
X006618Y036559D01*
X006291Y036758D02*
X005139Y036758D01*
X005294Y036956D02*
X005965Y036956D01*
X005638Y037155D02*
X005332Y037155D01*
X005311Y037353D02*
X005278Y037353D01*
X004723Y037552D02*
X004235Y037552D01*
X004225Y037617D02*
X004225Y037617D01*
X004161Y037750D02*
X004658Y037750D01*
X004332Y037949D02*
X004065Y037949D01*
X004012Y038059D02*
X004012Y038059D01*
X004005Y038147D02*
X003931Y038147D01*
X004265Y037353D02*
X004492Y037353D01*
X004438Y037155D02*
X004295Y037155D01*
X004272Y036956D02*
X004476Y036956D01*
X004631Y036758D02*
X004242Y036758D01*
X004184Y036559D02*
X004919Y036559D01*
X004744Y036361D02*
X004088Y036361D01*
X004012Y036203D02*
X004012Y036203D01*
X003974Y036162D02*
X004593Y036162D01*
X004416Y035964D02*
X003790Y035964D01*
X003678Y035843D02*
X003678Y035843D01*
X003543Y035765D02*
X004239Y035765D01*
X004044Y035567D02*
X003117Y035567D01*
X003253Y035597D02*
X003253Y035597D01*
X003598Y035170D02*
X002004Y035170D01*
X001883Y035368D02*
X003821Y035368D01*
X003332Y034971D02*
X002125Y034971D01*
X002245Y034773D02*
X003196Y034773D01*
X003257Y034574D02*
X002366Y034574D01*
X002487Y034376D02*
X003376Y034376D01*
X003495Y034177D02*
X002607Y034177D01*
X002728Y033979D02*
X003614Y033979D01*
X003734Y033780D02*
X002849Y033780D01*
X002969Y033582D02*
X003853Y033582D01*
X003972Y033383D02*
X003090Y033383D01*
X003211Y033185D02*
X004091Y033185D01*
X004210Y032986D02*
X003331Y032986D01*
X003452Y032788D02*
X004329Y032788D01*
X004448Y032589D02*
X003573Y032589D01*
X003693Y032391D02*
X004567Y032391D01*
X004686Y032192D02*
X003814Y032192D01*
X003935Y031994D02*
X004805Y031994D01*
X004925Y031795D02*
X004055Y031795D01*
X004176Y031597D02*
X005044Y031597D01*
X005163Y031398D02*
X004296Y031398D01*
X004417Y031200D02*
X005282Y031200D01*
X005401Y031001D02*
X004538Y031001D01*
X004658Y030803D02*
X005520Y030803D01*
X005639Y030604D02*
X004779Y030604D01*
X004900Y030406D02*
X005758Y030406D01*
X005877Y030207D02*
X005020Y030207D01*
X005141Y030009D02*
X005996Y030009D01*
X006116Y029810D02*
X005262Y029810D01*
X005382Y029612D02*
X006235Y029612D01*
X006354Y029413D02*
X005503Y029413D01*
X005624Y029215D02*
X006473Y029215D01*
X006592Y029016D02*
X005744Y029016D01*
X005865Y028818D02*
X006711Y028818D01*
X006830Y028619D02*
X005986Y028619D01*
X006106Y028421D02*
X006949Y028421D01*
X007068Y028222D02*
X006227Y028222D01*
X006348Y028024D02*
X007187Y028024D01*
X007307Y027825D02*
X006468Y027825D01*
X006589Y027627D02*
X007426Y027627D01*
X007545Y027428D02*
X006710Y027428D01*
X006830Y027230D02*
X007664Y027230D01*
X007783Y027031D02*
X006951Y027031D01*
X007072Y026833D02*
X007902Y026833D01*
X008021Y026634D02*
X007192Y026634D01*
X007313Y026436D02*
X008140Y026436D01*
X008259Y026237D02*
X007434Y026237D01*
X007554Y026039D02*
X008378Y026039D01*
X008498Y025840D02*
X007675Y025840D01*
X007796Y025642D02*
X008617Y025642D01*
X008736Y025443D02*
X007916Y025443D01*
X008037Y025245D02*
X008855Y025245D01*
X008974Y025046D02*
X008158Y025046D01*
X008278Y024848D02*
X009093Y024848D01*
X009212Y024649D02*
X008399Y024649D01*
X008519Y024451D02*
X009331Y024451D01*
X009450Y024252D02*
X008640Y024252D01*
X008761Y024054D02*
X009569Y024054D01*
X009689Y023855D02*
X008881Y023855D01*
X009002Y023657D02*
X009808Y023657D01*
X009605Y022664D02*
X010015Y022664D01*
X011005Y022664D02*
X011604Y022664D01*
X011744Y024649D02*
X015025Y024649D01*
X014844Y024451D02*
X014824Y024451D01*
X014827Y024848D02*
X011989Y024848D01*
X013431Y024451D02*
X013446Y024451D01*
X015278Y025245D02*
X016529Y025245D01*
X016529Y025135D02*
X016925Y025135D01*
X016529Y025135D01*
X016529Y025046D02*
X015477Y025046D01*
X015184Y025443D02*
X016550Y025443D01*
X016925Y025443D02*
X016925Y025443D01*
X016925Y025552D02*
X016925Y025135D01*
X016925Y025135D01*
X016925Y025135D01*
X016925Y025552D01*
X017177Y025642D02*
X015412Y025642D01*
X015593Y025840D02*
X015999Y025840D01*
X015734Y026039D02*
X015599Y026039D01*
X015595Y026237D02*
X015426Y026237D01*
X015570Y026436D02*
X015227Y026436D01*
X014991Y026634D02*
X015570Y026634D01*
X016925Y025245D02*
X016925Y025245D01*
X016109Y024252D02*
X015939Y024252D01*
X017316Y027230D02*
X017664Y027230D01*
X017664Y027428D02*
X017316Y027428D01*
X017316Y027627D02*
X017664Y027627D01*
X017679Y027825D02*
X017298Y027825D01*
X017321Y028024D02*
X017753Y028024D01*
X017704Y028222D02*
X017356Y028222D01*
X017356Y028421D02*
X017704Y028421D01*
X017864Y029413D02*
X022265Y029413D01*
X022265Y029215D02*
X021311Y029215D01*
X021483Y029016D02*
X022434Y029016D01*
X022421Y028421D02*
X024331Y028421D01*
X024171Y028619D02*
X021575Y028619D01*
X021545Y028818D02*
X024010Y028818D01*
X023970Y028866D02*
X023970Y028866D01*
X023760Y028222D02*
X022472Y028222D01*
X026266Y026237D02*
X026269Y026237D01*
X026322Y026039D02*
X026481Y026039D01*
X026322Y025840D02*
X026694Y025840D01*
X026862Y025642D02*
X026907Y025642D01*
X026947Y025443D02*
X027120Y025443D01*
X026947Y025245D02*
X027333Y025245D01*
X027446Y025139D02*
X027446Y025139D01*
X027561Y025046D02*
X027305Y025046D01*
X027322Y024848D02*
X027806Y024848D01*
X027663Y024649D02*
X028051Y024649D01*
X027884Y024451D02*
X028296Y024451D01*
X028541Y024252D02*
X027928Y024252D01*
X027877Y024054D02*
X028789Y024054D01*
X029073Y023855D02*
X027625Y023855D01*
X027395Y023855D02*
X027186Y023855D01*
X026998Y023657D02*
X029356Y023657D01*
X029825Y023657D02*
X030653Y023657D01*
X030776Y023855D02*
X029946Y023855D01*
X030067Y024054D02*
X030898Y024054D01*
X031021Y024252D02*
X030189Y024252D01*
X030311Y024451D02*
X031144Y024451D01*
X031267Y024649D02*
X030432Y024649D01*
X030554Y024848D02*
X031389Y024848D01*
X031512Y025046D02*
X030676Y025046D01*
X030797Y025245D02*
X031635Y025245D01*
X031758Y025443D02*
X030919Y025443D01*
X031041Y025642D02*
X031880Y025642D01*
X032003Y025840D02*
X031162Y025840D01*
X031284Y026039D02*
X032126Y026039D01*
X032249Y026237D02*
X031406Y026237D01*
X031527Y026436D02*
X032371Y026436D01*
X032494Y026634D02*
X031649Y026634D01*
X031771Y026833D02*
X032617Y026833D01*
X032740Y027031D02*
X031892Y027031D01*
X032014Y027230D02*
X032862Y027230D01*
X032985Y027428D02*
X032136Y027428D01*
X032257Y027627D02*
X033108Y027627D01*
X033231Y027825D02*
X032379Y027825D01*
X032501Y028024D02*
X033353Y028024D01*
X033476Y028222D02*
X032622Y028222D01*
X032744Y028421D02*
X033599Y028421D01*
X033722Y028619D02*
X032866Y028619D01*
X032987Y028818D02*
X033844Y028818D01*
X033967Y029016D02*
X033109Y029016D01*
X033230Y029215D02*
X034090Y029215D01*
X034213Y029413D02*
X033352Y029413D01*
X033474Y029612D02*
X034335Y029612D01*
X034458Y029810D02*
X033595Y029810D01*
X033717Y030009D02*
X034581Y030009D01*
X034704Y030207D02*
X033839Y030207D01*
X033960Y030406D02*
X034827Y030406D01*
X034949Y030604D02*
X034082Y030604D01*
X034204Y030803D02*
X035072Y030803D01*
X035195Y031001D02*
X034325Y031001D01*
X034447Y031200D02*
X035318Y031200D01*
X035440Y031398D02*
X034569Y031398D01*
X034690Y031597D02*
X035563Y031597D01*
X035686Y031795D02*
X034812Y031795D01*
X034934Y031994D02*
X035809Y031994D01*
X035931Y032192D02*
X035055Y032192D01*
X035177Y032391D02*
X036054Y032391D01*
X036177Y032589D02*
X035299Y032589D01*
X035420Y032788D02*
X036300Y032788D01*
X036422Y032986D02*
X035542Y032986D01*
X035664Y033185D02*
X036545Y033185D01*
X036668Y033383D02*
X035785Y033383D01*
X035907Y033582D02*
X036791Y033582D01*
X036913Y033780D02*
X036029Y033780D01*
X036150Y033979D02*
X037036Y033979D01*
X037159Y034177D02*
X036272Y034177D01*
X036394Y034376D02*
X037282Y034376D01*
X037723Y034177D02*
X039330Y034177D01*
X039330Y033979D02*
X037601Y033979D01*
X037478Y033780D02*
X039330Y033780D01*
X039330Y033582D02*
X037355Y033582D01*
X037232Y033383D02*
X039330Y033383D01*
X039330Y033185D02*
X037109Y033185D01*
X036987Y032986D02*
X039330Y032986D01*
X039330Y032788D02*
X036864Y032788D01*
X036741Y032589D02*
X039330Y032589D01*
X039330Y032391D02*
X036618Y032391D01*
X036496Y032192D02*
X039330Y032192D01*
X039330Y031994D02*
X036373Y031994D01*
X036250Y031795D02*
X039330Y031795D01*
X039330Y031597D02*
X036127Y031597D01*
X036005Y031398D02*
X039330Y031398D01*
X039330Y031200D02*
X035882Y031200D01*
X035759Y031001D02*
X039330Y031001D01*
X039330Y030803D02*
X035636Y030803D01*
X035514Y030604D02*
X039330Y030604D01*
X039330Y030406D02*
X035391Y030406D01*
X035268Y030207D02*
X039330Y030207D01*
X039330Y030009D02*
X035145Y030009D01*
X035023Y029810D02*
X039330Y029810D01*
X039330Y029612D02*
X034900Y029612D01*
X034777Y029413D02*
X039330Y029413D01*
X039330Y029215D02*
X034654Y029215D01*
X034532Y029016D02*
X039330Y029016D01*
X039330Y028818D02*
X034409Y028818D01*
X034286Y028619D02*
X039330Y028619D01*
X039330Y028421D02*
X034163Y028421D01*
X034041Y028222D02*
X039330Y028222D01*
X039330Y028024D02*
X033918Y028024D01*
X033795Y027825D02*
X039330Y027825D01*
X039330Y027627D02*
X033672Y027627D01*
X033550Y027428D02*
X039330Y027428D01*
X039330Y027230D02*
X033427Y027230D01*
X033304Y027031D02*
X039330Y027031D01*
X039330Y026833D02*
X033181Y026833D01*
X033059Y026634D02*
X039330Y026634D01*
X039330Y026436D02*
X032936Y026436D01*
X032813Y026237D02*
X039330Y026237D01*
X039330Y026039D02*
X032690Y026039D01*
X032567Y025840D02*
X039330Y025840D01*
X039330Y025642D02*
X032445Y025642D01*
X032322Y025443D02*
X039330Y025443D01*
X039330Y025245D02*
X032199Y025245D01*
X032076Y025046D02*
X039330Y025046D01*
X039330Y024848D02*
X031954Y024848D01*
X031831Y024649D02*
X039330Y024649D01*
X039330Y024451D02*
X031708Y024451D01*
X031585Y024252D02*
X039330Y024252D01*
X039330Y024054D02*
X031463Y024054D01*
X031340Y023855D02*
X039330Y023855D01*
X039330Y023657D02*
X031217Y023657D01*
X031094Y023458D02*
X039330Y023458D01*
X039330Y023260D02*
X030972Y023260D01*
X030849Y023061D02*
X039330Y023061D01*
X039330Y022863D02*
X030726Y022863D01*
X030603Y022664D02*
X039330Y022664D01*
X039330Y022466D02*
X030481Y022466D01*
X030373Y022267D02*
X039330Y022267D01*
X039330Y022069D02*
X030329Y022069D01*
X030285Y021870D02*
X039330Y021870D01*
X039330Y021672D02*
X030255Y021672D01*
X030227Y021473D02*
X039330Y021473D01*
X039330Y021275D02*
X030199Y021275D01*
X030172Y021076D02*
X039330Y021076D01*
X039330Y020878D02*
X030146Y020878D01*
X030139Y020679D02*
X039330Y020679D01*
X039330Y020481D02*
X030132Y020481D01*
X030125Y020282D02*
X039330Y020282D01*
X039330Y020084D02*
X030119Y020084D01*
X030117Y019885D02*
X039330Y019885D01*
X039330Y019686D02*
X030132Y019686D01*
X030146Y019488D02*
X039330Y019488D01*
X039330Y019289D02*
X030160Y019289D01*
X030174Y019091D02*
X039330Y019091D01*
X039330Y018892D02*
X030197Y018892D01*
X030232Y018694D02*
X039330Y018694D01*
X039330Y018495D02*
X030268Y018495D01*
X030303Y018297D02*
X039330Y018297D01*
X039330Y018098D02*
X030338Y018098D01*
X030385Y017900D02*
X039330Y017900D01*
X039330Y017701D02*
X030436Y017701D01*
X030524Y017503D02*
X039330Y017503D01*
X039330Y017304D02*
X030645Y017304D01*
X030765Y017106D02*
X039330Y017106D01*
X039330Y016907D02*
X030886Y016907D01*
X031007Y016709D02*
X039330Y016709D01*
X039330Y016510D02*
X031127Y016510D01*
X031248Y016312D02*
X039330Y016312D01*
X039330Y016113D02*
X031369Y016113D01*
X031489Y015915D02*
X039330Y015915D01*
X039330Y015716D02*
X031610Y015716D01*
X031731Y015518D02*
X039330Y015518D01*
X039330Y015319D02*
X031851Y015319D01*
X031972Y015121D02*
X039330Y015121D01*
X039330Y014922D02*
X032093Y014922D01*
X032213Y014724D02*
X039330Y014724D01*
X039330Y014525D02*
X032334Y014525D01*
X032455Y014327D02*
X039330Y014327D01*
X039330Y014128D02*
X032575Y014128D01*
X032696Y013930D02*
X039330Y013930D01*
X039330Y013731D02*
X032817Y013731D01*
X032937Y013533D02*
X039330Y013533D01*
X039330Y013334D02*
X033058Y013334D01*
X033179Y013136D02*
X039330Y013136D01*
X039330Y012937D02*
X033299Y012937D01*
X033420Y012739D02*
X039330Y012739D01*
X039330Y012540D02*
X033541Y012540D01*
X033661Y012342D02*
X039330Y012342D01*
X039330Y012143D02*
X033782Y012143D01*
X033903Y011945D02*
X039330Y011945D01*
X039330Y011746D02*
X034023Y011746D01*
X034144Y011548D02*
X039330Y011548D01*
X039330Y011349D02*
X034264Y011349D01*
X034385Y011151D02*
X039330Y011151D01*
X039330Y010952D02*
X034506Y010952D01*
X034626Y010754D02*
X039330Y010754D01*
X039330Y010555D02*
X034747Y010555D01*
X034868Y010357D02*
X039330Y010357D01*
X039330Y010158D02*
X034988Y010158D01*
X035109Y009960D02*
X039330Y009960D01*
X039330Y009761D02*
X035230Y009761D01*
X035350Y009563D02*
X039330Y009563D01*
X039330Y009364D02*
X035471Y009364D01*
X035592Y009166D02*
X039330Y009166D01*
X039330Y008967D02*
X035712Y008967D01*
X035833Y008769D02*
X039330Y008769D01*
X039330Y008570D02*
X035954Y008570D01*
X036074Y008372D02*
X039330Y008372D01*
X039330Y008173D02*
X036195Y008173D01*
X036316Y007975D02*
X039330Y007975D01*
X039330Y007776D02*
X036436Y007776D01*
X036557Y007578D02*
X039330Y007578D01*
X039330Y007379D02*
X036678Y007379D01*
X036798Y007181D02*
X039330Y007181D01*
X039330Y006982D02*
X036919Y006982D01*
X037040Y006784D02*
X039330Y006784D01*
X039330Y006585D02*
X037160Y006585D01*
X037281Y006387D02*
X039330Y006387D01*
X039330Y006188D02*
X037402Y006188D01*
X037522Y005990D02*
X039330Y005990D01*
X039330Y005791D02*
X037643Y005791D01*
X037764Y005593D02*
X039330Y005593D01*
X039330Y005394D02*
X037884Y005394D01*
X038005Y005196D02*
X039330Y005196D01*
X039330Y004997D02*
X038126Y004997D01*
X038246Y004799D02*
X039330Y004799D01*
X039330Y004600D02*
X038367Y004600D01*
X038487Y004402D02*
X039330Y004402D01*
X039330Y004203D02*
X038608Y004203D01*
X038782Y004005D02*
X039330Y004005D01*
X039330Y003806D02*
X038911Y003806D01*
X038794Y003993D02*
X038794Y003993D01*
X039036Y003608D02*
X039330Y003608D01*
X039330Y003409D02*
X039111Y003409D01*
X039049Y003588D02*
X039049Y003588D01*
X039181Y003211D02*
X039330Y003211D01*
X039207Y003136D02*
X039207Y003136D01*
X039221Y003012D02*
X039330Y003012D01*
X039330Y002814D02*
X039243Y002814D01*
X039261Y002660D02*
X039261Y002660D01*
X039256Y002615D02*
X039330Y002615D01*
X039330Y002417D02*
X039233Y002417D01*
X039211Y002218D02*
X039330Y002218D01*
X039207Y002184D02*
X039207Y002184D01*
X039150Y002020D02*
X039330Y002020D01*
X039330Y001821D02*
X039080Y001821D01*
X039049Y001732D02*
X039049Y001732D01*
X038981Y001623D02*
X039330Y001623D01*
X039330Y001424D02*
X038856Y001424D01*
X038694Y001226D02*
X039330Y001226D01*
X039330Y001027D02*
X038495Y001027D01*
X038456Y000988D02*
X038456Y000988D01*
X038203Y000829D02*
X039330Y000829D01*
X039330Y000630D02*
X037757Y000630D01*
X035857Y001623D02*
X035802Y001623D01*
X035722Y001821D02*
X035476Y001821D01*
X035615Y002020D02*
X035149Y002020D01*
X034822Y002218D02*
X035553Y002218D01*
X035493Y002417D02*
X034496Y002417D01*
X034169Y002615D02*
X035493Y002615D01*
X035493Y002814D02*
X033843Y002814D01*
X033516Y003012D02*
X035526Y003012D01*
X035587Y003211D02*
X034790Y003211D01*
X034678Y003211D02*
X033190Y003211D01*
X032863Y003409D02*
X034326Y003409D01*
X033995Y003608D02*
X032536Y003608D01*
X032210Y003806D02*
X033664Y003806D01*
X033334Y004005D02*
X031883Y004005D01*
X031557Y004203D02*
X033003Y004203D01*
X032672Y004402D02*
X031230Y004402D01*
X030904Y004600D02*
X032341Y004600D01*
X032010Y004799D02*
X030577Y004799D01*
X030250Y004997D02*
X031679Y004997D01*
X031349Y005196D02*
X029924Y005196D01*
X029597Y005394D02*
X031018Y005394D01*
X030687Y005593D02*
X029271Y005593D01*
X028944Y005791D02*
X030356Y005791D01*
X030025Y005990D02*
X028618Y005990D01*
X028291Y006188D02*
X029694Y006188D01*
X029364Y006387D02*
X027965Y006387D01*
X027638Y006585D02*
X029033Y006585D01*
X028702Y006784D02*
X027311Y006784D01*
X026985Y006982D02*
X028371Y006982D01*
X028040Y007181D02*
X026658Y007181D01*
X026332Y007379D02*
X027709Y007379D01*
X027379Y007578D02*
X026005Y007578D01*
X025679Y007776D02*
X027048Y007776D01*
X026717Y007975D02*
X025352Y007975D01*
X025025Y008173D02*
X026386Y008173D01*
X026055Y008372D02*
X024699Y008372D01*
X024372Y008570D02*
X025724Y008570D01*
X025394Y008769D02*
X024046Y008769D01*
X023719Y008967D02*
X025063Y008967D01*
X024732Y009166D02*
X023393Y009166D01*
X023066Y009364D02*
X024401Y009364D01*
X024070Y009563D02*
X022739Y009563D01*
X023642Y014525D02*
X021378Y014525D01*
X021392Y014559D02*
X021392Y015638D01*
X021355Y015727D01*
X021288Y015794D01*
X021199Y015831D01*
X020317Y015831D01*
X020228Y015794D01*
X020161Y015727D01*
X020124Y015638D01*
X020124Y014559D01*
X020161Y014471D01*
X020228Y014403D01*
X020317Y014366D01*
X021199Y014366D01*
X021288Y014403D01*
X021355Y014471D01*
X021392Y014559D01*
X021392Y014724D02*
X023628Y014724D01*
X023628Y014922D02*
X021392Y014922D01*
X021392Y015121D02*
X023628Y015121D01*
X023628Y015319D02*
X021392Y015319D01*
X021392Y015518D02*
X023628Y015518D01*
X023661Y015716D02*
X021359Y015716D01*
X021344Y015915D02*
X019322Y015915D01*
X019322Y016113D02*
X021220Y016113D01*
X021207Y016312D02*
X019322Y016312D01*
X019560Y016510D02*
X021304Y016510D01*
X021392Y016709D02*
X021584Y016709D01*
X021542Y016907D02*
X021392Y016907D01*
X021392Y017106D02*
X021542Y017106D01*
X021520Y017304D02*
X021392Y017304D01*
X021392Y017503D02*
X021520Y017503D01*
X021984Y016510D02*
X023036Y016510D01*
X022939Y016312D02*
X022081Y016312D01*
X022067Y016113D02*
X022953Y016113D01*
X023076Y015915D02*
X021944Y015915D01*
X023436Y016709D02*
X023628Y016709D01*
X023628Y016907D02*
X023478Y016907D01*
X023478Y017106D02*
X023628Y017106D01*
X023628Y017304D02*
X023478Y017304D01*
X023478Y017503D02*
X023628Y017503D01*
X023716Y016510D02*
X024803Y016510D01*
X024740Y016312D02*
X023813Y016312D01*
X023800Y016113D02*
X024740Y016113D01*
X024740Y015915D02*
X023676Y015915D01*
X024896Y016709D02*
X025512Y016709D01*
X025313Y016907D02*
X024896Y016907D01*
X024896Y017106D02*
X025124Y017106D01*
X025085Y017304D02*
X024896Y017304D01*
X024896Y017503D02*
X025085Y017503D01*
X025085Y017701D02*
X024896Y017701D01*
X025032Y017900D02*
X025085Y017900D01*
X025178Y016510D02*
X025254Y016510D01*
X025254Y016312D02*
X025178Y016312D01*
X025178Y016113D02*
X025254Y016113D01*
X026615Y015319D02*
X028248Y015319D01*
X028003Y015121D02*
X026658Y015121D01*
X026603Y014922D02*
X027758Y014922D01*
X027513Y014724D02*
X026423Y014724D01*
X026264Y014525D02*
X027299Y014525D01*
X027505Y014718D02*
X027505Y014718D01*
X027032Y015518D02*
X028493Y015518D01*
X028739Y015716D02*
X027070Y015716D01*
X027070Y015915D02*
X029005Y015915D01*
X028847Y015804D02*
X028847Y015804D01*
X029289Y016113D02*
X027075Y016113D01*
X027075Y016312D02*
X029572Y016312D01*
X029824Y016312D02*
X030663Y016312D01*
X030784Y016113D02*
X029978Y016113D01*
X030097Y015915D02*
X030904Y015915D01*
X031025Y015716D02*
X030216Y015716D01*
X030335Y015518D02*
X031146Y015518D01*
X031266Y015319D02*
X030454Y015319D01*
X030573Y015121D02*
X031387Y015121D01*
X031508Y014922D02*
X030692Y014922D01*
X030812Y014724D02*
X031628Y014724D01*
X031749Y014525D02*
X030931Y014525D01*
X031050Y014327D02*
X031870Y014327D01*
X031990Y014128D02*
X031169Y014128D01*
X031288Y013930D02*
X032111Y013930D01*
X032231Y013731D02*
X031407Y013731D01*
X031526Y013533D02*
X032352Y013533D01*
X032473Y013334D02*
X031645Y013334D01*
X031764Y013136D02*
X032593Y013136D01*
X032714Y012937D02*
X031883Y012937D01*
X032003Y012739D02*
X032835Y012739D01*
X032955Y012540D02*
X032122Y012540D01*
X032241Y012342D02*
X033076Y012342D01*
X033197Y012143D02*
X032360Y012143D01*
X032479Y011945D02*
X033317Y011945D01*
X033438Y011746D02*
X032598Y011746D01*
X032717Y011548D02*
X033559Y011548D01*
X033679Y011349D02*
X032836Y011349D01*
X032955Y011151D02*
X033800Y011151D01*
X033921Y010952D02*
X033074Y010952D01*
X033194Y010754D02*
X034041Y010754D01*
X034162Y010555D02*
X033313Y010555D01*
X033432Y010357D02*
X034283Y010357D01*
X034403Y010158D02*
X033551Y010158D01*
X033670Y009960D02*
X034524Y009960D01*
X034645Y009761D02*
X033789Y009761D01*
X033908Y009563D02*
X034765Y009563D01*
X034886Y009364D02*
X034027Y009364D01*
X034146Y009166D02*
X035007Y009166D01*
X035127Y008967D02*
X034265Y008967D01*
X034385Y008769D02*
X035248Y008769D01*
X035369Y008570D02*
X034504Y008570D01*
X034623Y008372D02*
X035489Y008372D01*
X035610Y008173D02*
X034742Y008173D01*
X034861Y007975D02*
X035731Y007975D01*
X035851Y007776D02*
X034980Y007776D01*
X035099Y007578D02*
X035972Y007578D01*
X036093Y007379D02*
X035218Y007379D01*
X035337Y007181D02*
X036213Y007181D01*
X036334Y006982D02*
X035456Y006982D01*
X035576Y006784D02*
X036454Y006784D01*
X036575Y006585D02*
X035695Y006585D01*
X035814Y006387D02*
X036696Y006387D01*
X036816Y006188D02*
X035933Y006188D01*
X036052Y005990D02*
X036937Y005990D01*
X037058Y005791D02*
X036171Y005791D01*
X036290Y005593D02*
X037178Y005593D01*
X037299Y005394D02*
X036409Y005394D01*
X036528Y005196D02*
X036814Y005196D01*
X036698Y004997D02*
X036572Y004997D01*
X036688Y004799D02*
X036413Y004799D01*
X036152Y004600D02*
X036788Y004600D01*
X036596Y004203D02*
X035706Y004203D01*
X035515Y004005D02*
X036196Y004005D01*
X035947Y003806D02*
X035338Y003806D01*
X035162Y003608D02*
X035797Y003608D01*
X035914Y003780D02*
X035914Y003780D01*
X035662Y003409D02*
X035013Y003409D01*
X035929Y004402D02*
X037902Y004402D01*
X037782Y004600D02*
X037482Y004600D01*
X037582Y004799D02*
X037661Y004799D01*
X037680Y004203D02*
X038023Y004203D01*
X038051Y004005D02*
X038144Y004005D01*
X037724Y004193D02*
X037724Y004193D01*
X037245Y004303D02*
X037245Y004303D01*
X030542Y016510D02*
X027075Y016510D01*
X027446Y017701D02*
X029912Y017701D01*
X029970Y017503D02*
X028899Y017503D01*
X029019Y017304D02*
X030060Y017304D01*
X030180Y017106D02*
X029045Y017106D01*
X028995Y016907D02*
X030301Y016907D01*
X030422Y016709D02*
X028841Y016709D01*
X029855Y017900D02*
X027446Y017900D01*
X027446Y018098D02*
X029817Y018098D01*
X029782Y018297D02*
X027433Y018297D01*
X027406Y018495D02*
X029747Y018495D01*
X029712Y018694D02*
X027406Y018694D01*
X027406Y018892D02*
X029677Y018892D01*
X029672Y018921D02*
X029672Y018921D01*
X029660Y019091D02*
X027408Y019091D01*
X027377Y019289D02*
X028087Y019289D01*
X027909Y019488D02*
X027377Y019488D01*
X027377Y020282D02*
X027810Y020282D01*
X027810Y020481D02*
X027369Y020481D01*
X027550Y020679D02*
X027892Y020679D01*
X027550Y020878D02*
X029633Y020878D01*
X029635Y020939D02*
X029635Y020939D01*
X029654Y021076D02*
X027550Y021076D01*
X027550Y021870D02*
X027810Y021870D01*
X027983Y022069D02*
X027550Y022069D01*
X027392Y022267D02*
X029856Y022267D01*
X029807Y022069D02*
X028787Y022069D01*
X028960Y021870D02*
X029765Y021870D01*
X029737Y021672D02*
X028960Y021672D01*
X028959Y021473D02*
X029710Y021473D01*
X029682Y021275D02*
X028404Y021275D01*
X028878Y020679D02*
X029626Y020679D01*
X029619Y020481D02*
X028960Y020481D01*
X028960Y020282D02*
X029613Y020282D01*
X029606Y020084D02*
X028938Y020084D01*
X028861Y019885D02*
X029604Y019885D01*
X029601Y019929D02*
X029601Y019929D01*
X029618Y019686D02*
X028861Y019686D01*
X028861Y019488D02*
X029632Y019488D01*
X029646Y019289D02*
X028683Y019289D01*
X028794Y022664D02*
X030039Y022664D01*
X030162Y022863D02*
X028795Y022863D01*
X028795Y023061D02*
X030285Y023061D01*
X030407Y023260D02*
X028795Y023260D01*
X028742Y023458D02*
X030530Y023458D01*
X029906Y022466D02*
X027205Y022466D01*
X027169Y023458D02*
X027201Y023458D01*
X027322Y024649D02*
X027357Y024649D01*
X020124Y017304D02*
X020092Y017304D01*
X020124Y017106D02*
X019810Y017106D01*
X019810Y016907D02*
X020124Y016907D01*
X020124Y016709D02*
X019758Y016709D01*
X020157Y015716D02*
X019245Y015716D01*
X019226Y015518D02*
X020124Y015518D01*
X020124Y015319D02*
X019079Y015319D01*
X018880Y015121D02*
X020124Y015121D01*
X020124Y014922D02*
X018682Y014922D01*
X018483Y014724D02*
X020124Y014724D01*
X020138Y014525D02*
X018208Y014525D01*
X002188Y004799D02*
X002112Y004799D01*
X001991Y004600D02*
X002288Y004600D01*
X002774Y035488D02*
X002774Y035488D01*
X002178Y035567D02*
X001763Y035567D01*
X001827Y035704D02*
X001827Y035704D01*
X001751Y035765D02*
X001642Y035765D01*
X036302Y039111D02*
X036302Y039111D01*
X038460Y035368D02*
X039330Y035368D01*
X039330Y035170D02*
X038337Y035170D01*
X038214Y034971D02*
X039330Y034971D01*
X039330Y034773D02*
X038092Y034773D01*
X037969Y034574D02*
X039330Y034574D01*
X039330Y034376D02*
X037846Y034376D01*
M02*
