%
M48
M72
T01C0.0197
T02C0.0236
T03C0.0276
T04C0.0394
T05C0.0400
%
T01
X13385Y15010
X17260Y18260
X18135Y20760
X18635Y21260
X17135Y22260
X18760Y23885
X19385Y25135
X19760Y25635
X19635Y26135
X22260Y24010
X22635Y25135
X23260Y25760
X24010Y25260
X23385Y24635
X20260Y21885
X22760Y19635
X23260Y20135
X20385Y18385
X26260Y15135
X27010Y19135
X13885Y25635
X13135Y19635
T02
X21635Y24010
X23510Y22760
X24510Y23885
X27510Y24260
T03
X2635Y4885
X4885Y2635
X18135Y18135
X21385Y18010
X24760Y18260
X37135Y4885
X35010Y2635
X37135Y35010
X34885Y37135
X4885Y37135
X2635Y35010
T04
X17510Y29010
X19010Y27510
X19010Y26760
X21010Y28760
X27510Y23010
X28510Y17135
X23376Y16232
X21644Y16232
X11510Y20260
X10885Y17260
T05
X14010Y15760
X15010Y15760
X16010Y15760
X14135Y23135
X14135Y24135
X26010Y21885
X27010Y21885
X27010Y20885
X27010Y19885
X26010Y19885
X26010Y20885
M30
