G75*
G70*
%OFA0B0*%
%FSLAX24Y24*%
%IPPOS*%
%LPD*%
%AMOC8*
5,1,8,0,0,1.08239X$1,22.5*
%
%ADD10C,0.0020*%
%ADD11C,0.0000*%
%ADD12C,0.0080*%
%ADD13C,0.0040*%
%ADD14C,0.0030*%
%ADD15C,0.0060*%
%ADD16C,0.0050*%
%ADD17R,0.0098X0.0098*%
%ADD18R,0.0098X0.0098*%
%ADD19C,0.0010*%
%ADD20C,0.0100*%
%ADD21R,0.0240X0.0620*%
%ADD22R,0.0620X0.0240*%
D10*
X016086Y010084D02*
X015454Y010945D01*
X014786Y011778D01*
X014082Y012581D01*
X013343Y013352D01*
X012572Y014091D01*
X011769Y014795D01*
X010936Y015463D01*
X010075Y016095D01*
X003446Y005046D01*
X005037Y003455D02*
X016086Y010084D01*
X017500Y009554D02*
X003977Y001334D01*
X001325Y001334D02*
X001262Y001401D01*
X001202Y001471D01*
X001145Y001543D01*
X001092Y001618D01*
X001043Y001696D01*
X000997Y001776D01*
X000956Y001858D01*
X000919Y001942D01*
X000886Y002028D01*
X000857Y002116D01*
X000832Y002204D01*
X000812Y002294D01*
X000796Y002385D01*
X000785Y002476D01*
X000778Y002568D01*
X000776Y002660D01*
X000778Y002752D01*
X000785Y002844D01*
X000796Y002935D01*
X000812Y003026D01*
X000832Y003116D01*
X000857Y003204D01*
X000886Y003292D01*
X000919Y003378D01*
X000956Y003462D01*
X000997Y003544D01*
X001043Y003624D01*
X001092Y003702D01*
X001145Y003777D01*
X001202Y003849D01*
X001262Y003919D01*
X001325Y003986D01*
X009545Y017509D01*
X010345Y018618D02*
X010345Y018758D01*
X010391Y018804D01*
X010578Y018804D01*
X010625Y018758D01*
X010625Y018618D01*
X010345Y018618D01*
X010391Y018894D02*
X010345Y018940D01*
X010345Y019034D01*
X010391Y019081D01*
X010438Y019081D01*
X010485Y019034D01*
X010532Y019081D01*
X010578Y019081D01*
X010625Y019034D01*
X010625Y018940D01*
X010578Y018894D01*
X010485Y018987D02*
X010485Y019034D01*
X011816Y019970D02*
X011816Y020250D01*
X011956Y020250D01*
X012003Y020204D01*
X012003Y020110D01*
X011956Y020063D01*
X011816Y020063D01*
X011910Y020063D02*
X012003Y019970D01*
X012093Y019970D02*
X012279Y019970D01*
X012186Y019970D02*
X012186Y020250D01*
X012093Y020157D01*
X012369Y020204D02*
X012415Y020250D01*
X012509Y020250D01*
X012556Y020204D01*
X012556Y020157D01*
X012509Y020110D01*
X012556Y020063D01*
X012556Y020017D01*
X012509Y019970D01*
X012415Y019970D01*
X012369Y020017D01*
X012462Y020110D02*
X012509Y020110D01*
X012566Y021218D02*
X012753Y021218D01*
X012800Y021264D01*
X012800Y021358D01*
X012753Y021404D01*
X012800Y021494D02*
X012520Y021681D01*
X012520Y021494D02*
X012800Y021681D01*
X012566Y021404D02*
X012520Y021358D01*
X012520Y021264D01*
X012566Y021218D01*
X011125Y021192D02*
X011125Y021285D01*
X011078Y021332D01*
X011078Y021421D02*
X011125Y021468D01*
X011125Y021561D01*
X011078Y021608D01*
X010891Y021608D01*
X010845Y021561D01*
X010845Y021468D01*
X010891Y021421D01*
X011078Y021421D01*
X010891Y021332D02*
X010845Y021285D01*
X010845Y021192D01*
X010891Y021145D01*
X011078Y021145D01*
X011125Y021192D01*
X011078Y021697D02*
X011125Y021744D01*
X011125Y021838D01*
X011078Y021884D01*
X010845Y021884D01*
X010845Y021974D02*
X010845Y022161D01*
X010845Y022067D02*
X011125Y022067D01*
X011078Y021697D02*
X010845Y021697D01*
X009545Y022282D02*
X001325Y035805D01*
X001253Y037131D02*
X001255Y037205D01*
X001261Y037280D01*
X001271Y037353D01*
X001285Y037427D01*
X001302Y037499D01*
X001324Y037570D01*
X001349Y037640D01*
X001378Y037709D01*
X001410Y037776D01*
X001447Y037841D01*
X001486Y037904D01*
X001529Y037965D01*
X001575Y038023D01*
X001624Y038079D01*
X001676Y038133D01*
X001730Y038183D01*
X001788Y038231D01*
X001847Y038275D01*
X001909Y038316D01*
X001974Y038354D01*
X002040Y038388D01*
X002107Y038419D01*
X002177Y038446D01*
X002247Y038469D01*
X002319Y038489D01*
X002392Y038505D01*
X002465Y038517D01*
X002539Y038525D01*
X002614Y038529D01*
X002688Y038529D01*
X002763Y038525D01*
X002837Y038517D01*
X002910Y038505D01*
X002983Y038489D01*
X003055Y038469D01*
X003125Y038446D01*
X003195Y038419D01*
X003262Y038388D01*
X003328Y038354D01*
X003393Y038316D01*
X003455Y038275D01*
X003514Y038231D01*
X003572Y038183D01*
X003626Y038133D01*
X003678Y038079D01*
X003727Y038023D01*
X003773Y037965D01*
X003816Y037904D01*
X003855Y037841D01*
X003892Y037776D01*
X003924Y037709D01*
X003953Y037640D01*
X003978Y037570D01*
X004000Y037499D01*
X004017Y037427D01*
X004031Y037353D01*
X004041Y037280D01*
X004047Y037205D01*
X004049Y037131D01*
X004047Y037057D01*
X004041Y036982D01*
X004031Y036909D01*
X004017Y036835D01*
X004000Y036763D01*
X003978Y036692D01*
X003953Y036622D01*
X003924Y036553D01*
X003892Y036486D01*
X003855Y036421D01*
X003816Y036358D01*
X003773Y036297D01*
X003727Y036239D01*
X003678Y036183D01*
X003626Y036129D01*
X003572Y036079D01*
X003514Y036031D01*
X003455Y035987D01*
X003393Y035946D01*
X003328Y035908D01*
X003262Y035874D01*
X003195Y035843D01*
X003125Y035816D01*
X003055Y035793D01*
X002983Y035773D01*
X002910Y035757D01*
X002837Y035745D01*
X002763Y035737D01*
X002688Y035733D01*
X002614Y035733D01*
X002539Y035737D01*
X002465Y035745D01*
X002392Y035757D01*
X002319Y035773D01*
X002247Y035793D01*
X002177Y035816D01*
X002107Y035843D01*
X002040Y035874D01*
X001974Y035908D01*
X001909Y035946D01*
X001847Y035987D01*
X001788Y036031D01*
X001730Y036079D01*
X001676Y036129D01*
X001624Y036183D01*
X001575Y036239D01*
X001529Y036297D01*
X001486Y036358D01*
X001447Y036421D01*
X001410Y036486D01*
X001378Y036553D01*
X001349Y036622D01*
X001324Y036692D01*
X001302Y036763D01*
X001285Y036835D01*
X001271Y036909D01*
X001261Y036982D01*
X001255Y037057D01*
X001253Y037131D01*
X001325Y038457D02*
X001390Y038518D01*
X001457Y038577D01*
X001527Y038632D01*
X001600Y038684D01*
X001675Y038732D01*
X001752Y038777D01*
X001832Y038818D01*
X001913Y038855D01*
X001996Y038888D01*
X002080Y038917D01*
X002166Y038942D01*
X002252Y038963D01*
X002340Y038980D01*
X002428Y038993D01*
X002517Y039001D01*
X002606Y039005D01*
X002696Y039005D01*
X002785Y039001D01*
X002874Y038993D01*
X002962Y038980D01*
X003050Y038963D01*
X003136Y038942D01*
X003222Y038917D01*
X003306Y038888D01*
X003389Y038855D01*
X003470Y038818D01*
X003550Y038777D01*
X003627Y038732D01*
X003702Y038684D01*
X003775Y038632D01*
X003845Y038577D01*
X003912Y038518D01*
X003977Y038457D01*
X017500Y030237D01*
X016784Y029175D02*
X016644Y029035D01*
X016831Y029035D01*
X016784Y028895D02*
X016784Y029175D01*
X016554Y029129D02*
X016554Y028942D01*
X016508Y028895D01*
X016368Y028895D01*
X016368Y029175D01*
X016508Y029175D01*
X016554Y029129D01*
X016086Y029707D02*
X005037Y036336D01*
X003446Y034745D02*
X010075Y023696D01*
X013685Y026119D02*
X013883Y025921D01*
X014015Y026053D01*
X014078Y026116D02*
X014210Y026248D01*
X014273Y026312D02*
X014373Y026411D01*
X014373Y026477D01*
X014240Y026609D01*
X014174Y026609D01*
X014075Y026510D01*
X014273Y026312D01*
X014045Y026281D02*
X013979Y026215D01*
X013880Y026314D02*
X014078Y026116D01*
X013880Y026314D02*
X014012Y026446D01*
X014370Y026606D02*
X014502Y026738D01*
X014568Y026606D02*
X014370Y026804D01*
X014370Y026606D01*
X015271Y025778D02*
X015370Y025679D01*
X015403Y025778D01*
X015436Y025811D01*
X015502Y025811D01*
X015568Y025745D01*
X015568Y025679D01*
X015502Y025613D01*
X015436Y025613D01*
X015406Y025517D02*
X015273Y025385D01*
X015210Y025322D02*
X015078Y025322D01*
X015111Y025355D02*
X015012Y025255D01*
X015078Y025189D02*
X014880Y025388D01*
X014979Y025487D01*
X015045Y025487D01*
X015111Y025421D01*
X015111Y025355D01*
X015141Y025517D02*
X015141Y025649D01*
X015340Y025451D01*
X015271Y025778D02*
X015403Y025910D01*
X016343Y026000D02*
X016529Y026000D01*
X016436Y026000D02*
X016436Y025720D01*
X016619Y025860D02*
X016806Y025860D01*
X016759Y025720D02*
X016759Y026000D01*
X016619Y025860D01*
X016968Y024750D02*
X017108Y024750D01*
X017154Y024704D01*
X017154Y024610D01*
X017108Y024563D01*
X016968Y024563D01*
X017061Y024563D02*
X017154Y024470D01*
X017244Y024470D02*
X017431Y024470D01*
X017337Y024470D02*
X017337Y024750D01*
X017244Y024657D01*
X016968Y024750D02*
X016968Y024470D01*
X016125Y023792D02*
X015845Y023792D01*
X015845Y023605D02*
X016125Y023792D01*
X016125Y023605D02*
X015845Y023605D01*
X015845Y023515D02*
X015845Y023421D01*
X015845Y023468D02*
X016125Y023468D01*
X016125Y023421D02*
X016125Y023515D01*
X016078Y023332D02*
X016125Y023285D01*
X016125Y023192D01*
X016078Y023145D01*
X015891Y023145D01*
X015845Y023192D01*
X015845Y023285D01*
X015891Y023332D01*
X017470Y021858D02*
X017470Y021671D01*
X017610Y021671D01*
X017563Y021765D01*
X017563Y021811D01*
X017610Y021858D01*
X017703Y021858D01*
X017750Y021811D01*
X017750Y021718D01*
X017703Y021671D01*
X017750Y021582D02*
X017657Y021488D01*
X017657Y021535D02*
X017657Y021395D01*
X017750Y021395D02*
X017470Y021395D01*
X017470Y021535D01*
X017516Y021582D01*
X017610Y021582D01*
X017657Y021535D01*
X017703Y020759D02*
X017516Y020759D01*
X017470Y020713D01*
X017470Y020619D01*
X017516Y020572D01*
X017563Y020572D01*
X017610Y020619D01*
X017610Y020759D01*
X017703Y020759D02*
X017750Y020713D01*
X017750Y020619D01*
X017703Y020572D01*
X017750Y020483D02*
X017750Y020296D01*
X017750Y020390D02*
X017470Y020390D01*
X017563Y020296D01*
X017516Y020207D02*
X017470Y020160D01*
X017470Y020067D01*
X017516Y020020D01*
X017703Y020020D01*
X017750Y020067D01*
X017750Y020160D01*
X017703Y020207D01*
X017125Y020160D02*
X017078Y020207D01*
X017125Y020160D02*
X017125Y020067D01*
X017078Y020020D01*
X016891Y020020D01*
X016845Y020067D01*
X016845Y020160D01*
X016891Y020207D01*
X016891Y020296D02*
X016845Y020343D01*
X016845Y020436D01*
X016891Y020483D01*
X016938Y020483D01*
X017125Y020296D01*
X017125Y020483D01*
X017078Y020572D02*
X017125Y020619D01*
X017125Y020713D01*
X017078Y020759D01*
X016891Y020759D01*
X017078Y020572D01*
X016891Y020572D01*
X016845Y020619D01*
X016845Y020713D01*
X016891Y020759D01*
X016675Y020691D02*
X016675Y020878D01*
X016675Y020968D02*
X016395Y021154D01*
X016395Y021244D02*
X016395Y021431D01*
X016395Y021337D02*
X016675Y021337D01*
X016675Y021154D02*
X016395Y020968D01*
X016395Y020878D02*
X016395Y020691D01*
X016675Y020691D01*
X016675Y020602D02*
X016582Y020508D01*
X016582Y020555D02*
X016582Y020415D01*
X016675Y020415D02*
X016395Y020415D01*
X016395Y020555D01*
X016441Y020602D01*
X016535Y020602D01*
X016582Y020555D01*
X016535Y020691D02*
X016535Y020785D01*
X016463Y019925D02*
X016509Y019879D01*
X016509Y019785D01*
X016463Y019738D01*
X016322Y019738D01*
X016322Y019645D02*
X016322Y019925D01*
X016463Y019925D01*
X016416Y019738D02*
X016509Y019645D01*
X016233Y019645D02*
X016233Y019925D01*
X016046Y019925D02*
X016046Y019645D01*
X016140Y019738D01*
X016233Y019645D01*
X015957Y019785D02*
X015910Y019738D01*
X015770Y019738D01*
X015770Y019645D02*
X015770Y019925D01*
X015910Y019925D01*
X015957Y019879D01*
X015957Y019785D01*
X015306Y019720D02*
X015119Y019720D01*
X015306Y019907D01*
X015306Y019954D01*
X015259Y020000D01*
X015165Y020000D01*
X015119Y019954D01*
X015029Y019954D02*
X015029Y019860D01*
X014983Y019813D01*
X014843Y019813D01*
X014936Y019813D02*
X015029Y019720D01*
X014843Y019720D02*
X014843Y020000D01*
X014983Y020000D01*
X015029Y019954D01*
X016067Y018425D02*
X016020Y018379D01*
X016020Y018192D01*
X016067Y018145D01*
X016160Y018145D01*
X016207Y018192D01*
X016296Y018145D02*
X016483Y018145D01*
X016390Y018145D02*
X016390Y018425D01*
X016296Y018332D01*
X016207Y018379D02*
X016160Y018425D01*
X016067Y018425D01*
X016520Y017300D02*
X016707Y017300D01*
X016796Y017300D02*
X016796Y017160D01*
X016890Y017207D01*
X016936Y017207D01*
X016983Y017160D01*
X016983Y017067D01*
X016936Y017020D01*
X016843Y017020D01*
X016796Y017067D01*
X016613Y017020D02*
X016613Y017300D01*
X016796Y017300D02*
X016983Y017300D01*
X017720Y017285D02*
X017766Y017332D01*
X017860Y017332D01*
X017907Y017285D01*
X017907Y017145D01*
X018000Y017145D02*
X017720Y017145D01*
X017720Y017285D01*
X017766Y017421D02*
X017720Y017468D01*
X017720Y017561D01*
X017766Y017608D01*
X017813Y017608D01*
X018000Y017421D01*
X018000Y017608D01*
X017953Y017697D02*
X017766Y017884D01*
X017953Y017884D01*
X018000Y017838D01*
X018000Y017744D01*
X017953Y017697D01*
X017766Y017697D01*
X017720Y017744D01*
X017720Y017838D01*
X017766Y017884D01*
X018000Y017332D02*
X017907Y017238D01*
X019236Y017081D02*
X019236Y016941D01*
X019516Y016941D01*
X019516Y017081D01*
X019470Y017127D01*
X019283Y017127D01*
X019236Y017081D01*
X019236Y016851D02*
X019516Y016851D01*
X019236Y016664D01*
X019516Y016664D01*
X019470Y016575D02*
X019516Y016528D01*
X019516Y016435D01*
X019470Y016388D01*
X019283Y016388D01*
X019236Y016435D01*
X019236Y016528D01*
X019283Y016575D01*
X019376Y016575D02*
X019376Y016482D01*
X019376Y016575D02*
X019470Y016575D01*
X019563Y016299D02*
X019563Y016112D01*
X019516Y016023D02*
X019236Y016023D01*
X019330Y015929D01*
X019236Y015836D01*
X019516Y015836D01*
X019423Y015700D02*
X019423Y015559D01*
X019516Y015559D02*
X019236Y015559D01*
X019236Y015700D01*
X019283Y015746D01*
X019376Y015746D01*
X019423Y015700D01*
X019376Y015470D02*
X019423Y015423D01*
X019423Y015283D01*
X019516Y015283D02*
X019236Y015283D01*
X019236Y015423D01*
X019283Y015470D01*
X019376Y015470D01*
X019016Y015430D02*
X019016Y015336D01*
X018970Y015289D01*
X018876Y015289D02*
X018830Y015383D01*
X018830Y015430D01*
X018876Y015476D01*
X018970Y015476D01*
X019016Y015430D01*
X018923Y015566D02*
X019016Y015659D01*
X018923Y015752D01*
X018736Y015752D01*
X018736Y015566D02*
X018923Y015566D01*
X018736Y015476D02*
X018736Y015289D01*
X018876Y015289D01*
X018876Y015200D02*
X018876Y015013D01*
X018783Y015107D02*
X018970Y015107D01*
X019063Y014924D02*
X019063Y014737D01*
X019016Y014648D02*
X018736Y014648D01*
X018830Y014554D01*
X018736Y014461D01*
X019016Y014461D01*
X018923Y014325D02*
X018923Y014184D01*
X019016Y014184D02*
X018736Y014184D01*
X018736Y014325D01*
X018783Y014371D01*
X018876Y014371D01*
X018923Y014325D01*
X018876Y014095D02*
X018923Y014048D01*
X018923Y013908D01*
X019016Y013908D02*
X018736Y013908D01*
X018736Y014048D01*
X018783Y014095D01*
X018876Y014095D01*
X018391Y014277D02*
X018111Y014277D01*
X018111Y014417D01*
X018158Y014463D01*
X018251Y014463D01*
X018298Y014417D01*
X018298Y014277D01*
X018298Y014553D02*
X018298Y014693D01*
X018251Y014740D01*
X018158Y014740D01*
X018111Y014693D01*
X018111Y014553D01*
X018391Y014553D01*
X018391Y014829D02*
X018111Y014829D01*
X018205Y014922D01*
X018111Y015016D01*
X018391Y015016D01*
X018438Y015105D02*
X018438Y015292D01*
X018391Y015381D02*
X018391Y015475D01*
X018391Y015428D02*
X018111Y015428D01*
X018111Y015381D02*
X018111Y015475D01*
X018111Y015566D02*
X018391Y015752D01*
X018111Y015752D01*
X018111Y015566D02*
X018391Y015566D01*
X017556Y015610D02*
X017415Y015610D01*
X017369Y015657D01*
X017369Y015704D01*
X017415Y015750D01*
X017509Y015750D01*
X017556Y015704D01*
X017556Y015517D01*
X017509Y015470D01*
X017415Y015470D01*
X017369Y015517D01*
X017279Y015470D02*
X017093Y015470D01*
X017003Y015470D02*
X016910Y015563D01*
X016956Y015563D02*
X016816Y015563D01*
X016816Y015470D02*
X016816Y015750D01*
X016956Y015750D01*
X017003Y015704D01*
X017003Y015610D01*
X016956Y015563D01*
X017093Y015657D02*
X017186Y015750D01*
X017186Y015470D01*
X015733Y016317D02*
X015686Y016270D01*
X015593Y016270D01*
X015546Y016317D01*
X015457Y016317D02*
X015410Y016270D01*
X015317Y016270D01*
X015270Y016317D01*
X015270Y016504D01*
X015317Y016550D01*
X015410Y016550D01*
X015457Y016504D01*
X015546Y016504D02*
X015593Y016550D01*
X015686Y016550D01*
X015733Y016504D01*
X015733Y016457D01*
X015686Y016410D01*
X015733Y016363D01*
X015733Y016317D01*
X015686Y016410D02*
X015640Y016410D01*
X014101Y015000D02*
X013903Y014802D01*
X014035Y014670D01*
X014098Y014606D02*
X014197Y014507D01*
X014263Y014507D01*
X014395Y014639D01*
X014395Y014705D01*
X014296Y014805D01*
X014098Y014606D01*
X014068Y014835D02*
X014002Y014901D01*
X014101Y015000D02*
X014233Y014868D01*
X014459Y014576D02*
X014525Y014576D01*
X014591Y014510D01*
X014591Y014444D01*
X014558Y014411D01*
X014492Y014411D01*
X014492Y014345D01*
X014459Y014312D01*
X014393Y014312D01*
X014326Y014378D01*
X014326Y014444D01*
X014459Y014444D02*
X014492Y014411D01*
X013840Y014865D02*
X013707Y014997D01*
X013906Y015195D01*
X015237Y013907D02*
X015304Y013907D01*
X015337Y013874D01*
X015337Y013808D01*
X015403Y013808D01*
X015436Y013775D01*
X015436Y013709D01*
X015370Y013643D01*
X015304Y013643D01*
X015273Y013546D02*
X015141Y013546D01*
X015174Y013579D02*
X015075Y013480D01*
X015141Y013414D02*
X014943Y013612D01*
X015042Y013712D01*
X015108Y013712D01*
X015174Y013646D01*
X015174Y013579D01*
X015171Y013775D02*
X015171Y013841D01*
X015237Y013907D01*
X015337Y013808D02*
X015304Y013775D01*
X012645Y017468D02*
X012645Y017654D01*
X012645Y017561D02*
X012925Y017561D01*
X012878Y017744D02*
X012925Y017790D01*
X012925Y017884D01*
X012878Y017931D01*
X012832Y017931D01*
X012785Y017884D01*
X012785Y017837D01*
X012785Y017884D02*
X012738Y017931D01*
X012691Y017931D01*
X012645Y017884D01*
X012645Y017790D01*
X012691Y017744D01*
X017645Y022468D02*
X017645Y022608D01*
X017691Y022654D01*
X017878Y022654D01*
X017925Y022608D01*
X017925Y022468D01*
X017645Y022468D01*
X017645Y022744D02*
X017785Y022744D01*
X017738Y022837D01*
X017738Y022884D01*
X017785Y022931D01*
X017878Y022931D01*
X017925Y022884D01*
X017925Y022790D01*
X017878Y022744D01*
X017645Y022744D02*
X017645Y022931D01*
X018448Y022767D02*
X018635Y022486D01*
X018724Y022533D02*
X018724Y022720D01*
X018771Y022767D01*
X018864Y022767D01*
X018911Y022720D01*
X019001Y022767D02*
X019001Y022486D01*
X019001Y022580D02*
X019187Y022767D01*
X019277Y022720D02*
X019324Y022767D01*
X019417Y022767D01*
X019464Y022720D01*
X019277Y022533D01*
X019324Y022486D01*
X019417Y022486D01*
X019464Y022533D01*
X019464Y022720D01*
X019277Y022720D02*
X019277Y022533D01*
X019187Y022486D02*
X019047Y022627D01*
X018911Y022533D02*
X018864Y022486D01*
X018771Y022486D01*
X018724Y022533D01*
X018635Y022767D02*
X018448Y022486D01*
X018573Y022986D02*
X018573Y023267D01*
X018713Y023267D01*
X018760Y023220D01*
X018760Y023127D01*
X018713Y023080D01*
X018573Y023080D01*
X018849Y022986D02*
X018989Y022986D01*
X019036Y023033D01*
X019036Y023220D01*
X018989Y023267D01*
X018849Y023267D01*
X018849Y022986D01*
X019126Y023033D02*
X019312Y023220D01*
X019312Y023033D01*
X019266Y022986D01*
X019172Y022986D01*
X019126Y023033D01*
X019126Y023220D01*
X019172Y023267D01*
X019266Y023267D01*
X019312Y023220D01*
X019573Y022392D02*
X019713Y022392D01*
X019760Y022345D01*
X019760Y022252D01*
X019713Y022205D01*
X019573Y022205D01*
X019573Y022111D02*
X019573Y022392D01*
X019667Y022205D02*
X019760Y022111D01*
X019849Y022111D02*
X020036Y022392D01*
X020126Y022392D02*
X020266Y022392D01*
X020312Y022345D01*
X020312Y022158D01*
X020266Y022111D01*
X020126Y022111D01*
X020126Y022392D01*
X019849Y022392D02*
X020036Y022111D01*
X020402Y022158D02*
X020589Y022345D01*
X020589Y022158D01*
X020542Y022111D01*
X020449Y022111D01*
X020402Y022158D01*
X020402Y022345D01*
X020449Y022392D01*
X020542Y022392D01*
X020589Y022345D01*
X020328Y021384D02*
X020282Y021384D01*
X020235Y021338D01*
X020235Y021244D01*
X020188Y021197D01*
X020141Y021197D01*
X020095Y021244D01*
X020095Y021338D01*
X020141Y021384D01*
X020188Y021384D01*
X020235Y021338D01*
X020235Y021244D02*
X020282Y021197D01*
X020328Y021197D01*
X020375Y021244D01*
X020375Y021338D01*
X020328Y021384D01*
X020375Y021108D02*
X020375Y020921D01*
X020375Y021015D02*
X020095Y021015D01*
X020188Y020921D01*
X020141Y020832D02*
X020095Y020785D01*
X020095Y020692D01*
X020141Y020645D01*
X020328Y020645D01*
X020375Y020692D01*
X020375Y020785D01*
X020328Y020832D01*
X021323Y020986D02*
X021323Y021267D01*
X021463Y021267D01*
X021510Y021220D01*
X021510Y021127D01*
X021463Y021080D01*
X021323Y021080D01*
X021599Y020986D02*
X021739Y020986D01*
X021786Y021033D01*
X021786Y021220D01*
X021739Y021267D01*
X021599Y021267D01*
X021599Y020986D01*
X021876Y021033D02*
X021922Y020986D01*
X022016Y020986D01*
X022062Y021033D01*
X022062Y021127D01*
X022016Y021173D01*
X021969Y021173D01*
X021876Y021127D01*
X021876Y021267D01*
X022062Y021267D01*
X022448Y021298D02*
X022495Y021252D01*
X022588Y021252D01*
X022635Y021205D01*
X022635Y021158D01*
X022588Y021111D01*
X022495Y021111D01*
X022448Y021158D01*
X022448Y021298D02*
X022448Y021345D01*
X022495Y021392D01*
X022588Y021392D01*
X022635Y021345D01*
X022724Y021392D02*
X022864Y021392D01*
X022911Y021345D01*
X022911Y021158D01*
X022864Y021111D01*
X022724Y021111D01*
X022724Y021392D01*
X023001Y021298D02*
X023094Y021392D01*
X023187Y021298D01*
X023187Y021111D01*
X023187Y021252D02*
X023001Y021252D01*
X023001Y021298D02*
X023001Y021111D01*
X023028Y020534D02*
X022935Y020534D01*
X022888Y020487D01*
X022888Y020440D01*
X022935Y020394D01*
X023028Y020394D01*
X023075Y020347D01*
X023075Y020300D01*
X023028Y020254D01*
X022935Y020254D01*
X022888Y020300D01*
X022903Y020267D02*
X022903Y019986D01*
X022810Y019986D02*
X022997Y019986D01*
X022810Y020173D02*
X022903Y020267D01*
X022720Y020267D02*
X022534Y020267D01*
X022444Y020267D02*
X022444Y019986D01*
X022257Y020267D01*
X022257Y019986D01*
X022167Y019986D02*
X022073Y019986D01*
X022120Y019986D02*
X022120Y020267D01*
X022073Y020267D02*
X022167Y020267D01*
X022627Y020267D02*
X022627Y019986D01*
X022619Y019625D02*
X022806Y019625D01*
X022806Y019579D01*
X022619Y019392D01*
X022619Y019345D01*
X022529Y019345D02*
X022436Y019438D01*
X022483Y019438D02*
X022343Y019438D01*
X022343Y019345D02*
X022343Y019625D01*
X022483Y019625D01*
X022529Y019579D01*
X022529Y019485D01*
X022483Y019438D01*
X022181Y019438D02*
X022181Y019392D01*
X022134Y019345D01*
X022040Y019345D01*
X021994Y019392D01*
X021994Y019438D01*
X022040Y019485D01*
X022134Y019485D01*
X022181Y019438D01*
X022134Y019485D02*
X022181Y019532D01*
X022181Y019579D01*
X022134Y019625D01*
X022040Y019625D01*
X021994Y019579D01*
X021994Y019532D01*
X022040Y019485D01*
X021904Y019485D02*
X021858Y019438D01*
X021718Y019438D01*
X021811Y019438D02*
X021904Y019345D01*
X021904Y019485D02*
X021904Y019579D01*
X021858Y019625D01*
X021718Y019625D01*
X021718Y019345D01*
X021391Y019362D02*
X021345Y019316D01*
X021158Y019502D01*
X021345Y019502D01*
X021391Y019456D01*
X021391Y019362D01*
X021345Y019316D02*
X021158Y019316D01*
X021111Y019362D01*
X021111Y019456D01*
X021158Y019502D01*
X021158Y019226D02*
X021111Y019180D01*
X021111Y019039D01*
X021391Y019039D01*
X021391Y019180D01*
X021345Y019226D01*
X021158Y019226D01*
X021111Y018950D02*
X021391Y018763D01*
X021391Y018580D02*
X021111Y018580D01*
X021111Y018487D02*
X021111Y018674D01*
X021111Y018763D02*
X021391Y018950D01*
X020425Y019113D02*
X020378Y019066D01*
X020191Y019066D01*
X020145Y019113D01*
X020145Y019206D01*
X020191Y019253D01*
X020191Y019343D02*
X020145Y019389D01*
X020145Y019483D01*
X020191Y019529D01*
X020238Y019529D01*
X020425Y019343D01*
X020425Y019529D01*
X020425Y019619D02*
X020425Y019806D01*
X020425Y019712D02*
X020145Y019712D01*
X020238Y019619D01*
X020378Y019253D02*
X020425Y019206D01*
X020425Y019113D01*
X019806Y018875D02*
X019806Y018829D01*
X019619Y018642D01*
X019619Y018595D01*
X019529Y018595D02*
X019343Y018595D01*
X019436Y018595D02*
X019436Y018875D01*
X019343Y018782D01*
X019253Y018829D02*
X019206Y018875D01*
X019113Y018875D01*
X019066Y018829D01*
X019066Y018642D01*
X019113Y018595D01*
X019206Y018595D01*
X019253Y018642D01*
X018828Y018622D02*
X018641Y018622D01*
X018734Y018622D02*
X018734Y018903D01*
X018641Y018809D01*
X018551Y018856D02*
X018505Y018903D01*
X018411Y018903D01*
X018365Y018856D01*
X018365Y018669D01*
X018411Y018622D01*
X018505Y018622D01*
X018551Y018669D01*
X018274Y018622D02*
X018180Y018622D01*
X018227Y018622D02*
X018227Y018903D01*
X018180Y018903D02*
X018274Y018903D01*
X019619Y018875D02*
X019806Y018875D01*
X019843Y017425D02*
X019796Y017379D01*
X019843Y017425D02*
X019936Y017425D01*
X019983Y017379D01*
X019983Y017332D01*
X019796Y017145D01*
X019983Y017145D01*
X020072Y017192D02*
X020119Y017145D01*
X020213Y017145D01*
X020259Y017192D01*
X020259Y017285D01*
X020213Y017332D01*
X020166Y017332D01*
X020072Y017285D01*
X020072Y017425D01*
X020259Y017425D01*
X019707Y017379D02*
X019707Y017285D01*
X019660Y017238D01*
X019520Y017238D01*
X019520Y017145D02*
X019520Y017425D01*
X019660Y017425D01*
X019707Y017379D01*
X019613Y017238D02*
X019707Y017145D01*
X023075Y020487D02*
X023028Y020534D01*
X023164Y020487D02*
X023164Y020300D01*
X023211Y020254D01*
X023305Y020254D01*
X023351Y020300D01*
X023441Y020254D02*
X023441Y020534D01*
X023351Y020487D02*
X023305Y020534D01*
X023211Y020534D01*
X023164Y020487D01*
X023441Y020254D02*
X023627Y020254D01*
X024345Y020567D02*
X024391Y020520D01*
X024578Y020520D01*
X024625Y020567D01*
X024625Y020660D01*
X024578Y020707D01*
X024625Y020796D02*
X024625Y020983D01*
X024625Y021072D02*
X024438Y021259D01*
X024391Y021259D01*
X024345Y021213D01*
X024345Y021119D01*
X024391Y021072D01*
X024345Y020890D02*
X024625Y020890D01*
X024625Y021072D02*
X024625Y021259D01*
X024698Y021205D02*
X024838Y021205D01*
X024885Y021252D01*
X024885Y021345D01*
X024838Y021392D01*
X024698Y021392D01*
X024698Y021111D01*
X024974Y021111D02*
X025161Y021111D01*
X025251Y021158D02*
X025297Y021111D01*
X025391Y021111D01*
X025437Y021158D01*
X025437Y021205D01*
X025391Y021252D01*
X025344Y021252D01*
X025391Y021252D02*
X025437Y021298D01*
X025437Y021345D01*
X025391Y021392D01*
X025297Y021392D01*
X025251Y021345D01*
X025161Y021392D02*
X024974Y021392D01*
X024974Y021111D01*
X024974Y021252D02*
X025068Y021252D01*
X025135Y021635D02*
X025135Y022135D01*
X025385Y021885D01*
X025135Y021635D01*
X025135Y021643D02*
X025143Y021643D01*
X025135Y021661D02*
X025161Y021661D01*
X025180Y021680D02*
X025135Y021680D01*
X025135Y021698D02*
X025198Y021698D01*
X025217Y021717D02*
X025135Y021717D01*
X025135Y021735D02*
X025235Y021735D01*
X025254Y021754D02*
X025135Y021754D01*
X025135Y021772D02*
X025272Y021772D01*
X025291Y021791D02*
X025135Y021791D01*
X025135Y021809D02*
X025309Y021809D01*
X025328Y021828D02*
X025135Y021828D01*
X025135Y021846D02*
X025346Y021846D01*
X025365Y021865D02*
X025135Y021865D01*
X025135Y021883D02*
X025383Y021883D01*
X025368Y021902D02*
X025135Y021902D01*
X025135Y021920D02*
X025350Y021920D01*
X025331Y021939D02*
X025135Y021939D01*
X025135Y021957D02*
X025313Y021957D01*
X025294Y021976D02*
X025135Y021976D01*
X025135Y021994D02*
X025276Y021994D01*
X025257Y022013D02*
X025135Y022013D01*
X025135Y022031D02*
X025239Y022031D01*
X025220Y022050D02*
X025135Y022050D01*
X025135Y022068D02*
X025202Y022068D01*
X025183Y022087D02*
X025135Y022087D01*
X025135Y022105D02*
X025165Y022105D01*
X025146Y022124D02*
X025135Y022124D01*
X024345Y020890D02*
X024438Y020796D01*
X024391Y020707D02*
X024345Y020660D01*
X024345Y020567D01*
X024514Y020125D02*
X024468Y020079D01*
X024468Y019892D01*
X024514Y019845D01*
X024608Y019845D01*
X024654Y019892D01*
X024744Y019985D02*
X024931Y019985D01*
X024884Y019845D02*
X024884Y020125D01*
X024744Y019985D01*
X024654Y020079D02*
X024608Y020125D01*
X024514Y020125D01*
X025691Y018931D02*
X025645Y018884D01*
X025645Y018790D01*
X025691Y018744D01*
X025691Y018931D02*
X025738Y018931D01*
X025925Y018744D01*
X025925Y018931D01*
X025925Y018654D02*
X025925Y018468D01*
X025925Y018378D02*
X025832Y018285D01*
X025832Y018331D02*
X025832Y018191D01*
X025925Y018191D02*
X025645Y018191D01*
X025645Y018331D01*
X025691Y018378D01*
X025785Y018378D01*
X025832Y018331D01*
X025738Y018468D02*
X025645Y018561D01*
X025925Y018561D01*
X025925Y017681D02*
X025925Y017494D01*
X025738Y017681D01*
X025691Y017681D01*
X025645Y017634D01*
X025645Y017540D01*
X025691Y017494D01*
X025645Y017404D02*
X025645Y017218D01*
X025645Y017311D02*
X025925Y017311D01*
X025885Y016750D02*
X025745Y016750D01*
X025745Y016470D01*
X025885Y016470D01*
X025932Y016517D01*
X025932Y016704D01*
X025885Y016750D01*
X026021Y016704D02*
X026068Y016750D01*
X026161Y016750D01*
X026208Y016704D01*
X026208Y016657D01*
X026021Y016470D01*
X026208Y016470D01*
X025356Y015745D02*
X025323Y015646D01*
X025323Y015514D01*
X025422Y015613D01*
X025488Y015613D01*
X025521Y015580D01*
X025521Y015514D01*
X025455Y015448D01*
X025389Y015448D01*
X025323Y015514D01*
X025359Y015352D02*
X025227Y015219D01*
X025164Y015156D02*
X025031Y015156D01*
X025064Y015189D02*
X024965Y015090D01*
X025031Y015024D02*
X024833Y015222D01*
X024932Y015321D01*
X024998Y015321D01*
X025064Y015255D01*
X025064Y015189D01*
X025095Y015352D02*
X025095Y015484D01*
X025293Y015286D01*
X026047Y014509D02*
X026146Y014608D01*
X026212Y014608D01*
X026344Y014476D01*
X026344Y014410D01*
X026245Y014311D01*
X026047Y014509D01*
X025984Y014446D02*
X025852Y014314D01*
X026050Y014116D01*
X026182Y014248D01*
X026017Y014281D02*
X025951Y014215D01*
X025987Y014053D02*
X025855Y013921D01*
X025656Y014119D01*
X026275Y014672D02*
X026275Y014738D01*
X026342Y014804D01*
X026408Y014804D01*
X026441Y014771D01*
X026441Y014507D01*
X026573Y014639D01*
X029698Y016095D02*
X036327Y005046D01*
X034736Y003455D02*
X023687Y010084D01*
X022273Y009554D02*
X035796Y001334D01*
X035861Y001273D01*
X035928Y001214D01*
X035998Y001159D01*
X036071Y001107D01*
X036146Y001059D01*
X036223Y001014D01*
X036303Y000973D01*
X036384Y000936D01*
X036467Y000903D01*
X036551Y000874D01*
X036637Y000849D01*
X036723Y000828D01*
X036811Y000811D01*
X036899Y000798D01*
X036988Y000790D01*
X037077Y000786D01*
X037167Y000786D01*
X037256Y000790D01*
X037345Y000798D01*
X037433Y000811D01*
X037521Y000828D01*
X037607Y000849D01*
X037693Y000874D01*
X037777Y000903D01*
X037860Y000936D01*
X037941Y000973D01*
X038021Y001014D01*
X038098Y001059D01*
X038173Y001107D01*
X038246Y001159D01*
X038316Y001214D01*
X038383Y001273D01*
X038448Y001334D01*
X038509Y001399D01*
X038568Y001466D01*
X038623Y001536D01*
X038675Y001609D01*
X038723Y001684D01*
X038768Y001761D01*
X038809Y001841D01*
X038846Y001922D01*
X038879Y002005D01*
X038908Y002089D01*
X038933Y002175D01*
X038954Y002261D01*
X038971Y002349D01*
X038984Y002437D01*
X038992Y002526D01*
X038996Y002615D01*
X038996Y002705D01*
X038992Y002794D01*
X038984Y002883D01*
X038971Y002971D01*
X038954Y003059D01*
X038933Y003145D01*
X038908Y003231D01*
X038879Y003315D01*
X038846Y003398D01*
X038809Y003479D01*
X038768Y003559D01*
X038723Y003636D01*
X038675Y003711D01*
X038623Y003784D01*
X038568Y003854D01*
X038509Y003921D01*
X038448Y003986D01*
X030228Y017509D01*
X029162Y020520D02*
X028942Y020520D01*
X028942Y020630D01*
X028979Y020667D01*
X029052Y020667D01*
X029089Y020630D01*
X029089Y020520D01*
X029089Y020593D02*
X029162Y020667D01*
X029126Y020741D02*
X029162Y020778D01*
X029162Y020851D01*
X029126Y020888D01*
X029089Y020888D01*
X029052Y020851D01*
X029052Y020778D01*
X029016Y020741D01*
X028979Y020741D01*
X028942Y020778D01*
X028942Y020851D01*
X028979Y020888D01*
X028942Y020962D02*
X028942Y021109D01*
X028942Y021035D02*
X029162Y021035D01*
X026681Y023392D02*
X026681Y023438D01*
X026634Y023485D01*
X026494Y023485D01*
X026494Y023392D01*
X026540Y023345D01*
X026634Y023345D01*
X026681Y023392D01*
X026494Y023485D02*
X026587Y023579D01*
X026681Y023625D01*
X026712Y023720D02*
X026712Y024000D01*
X026619Y023907D01*
X026619Y023720D02*
X026806Y023720D01*
X026529Y023720D02*
X026343Y023720D01*
X026436Y023720D02*
X026436Y024000D01*
X026343Y023907D01*
X026253Y023954D02*
X026206Y024000D01*
X026113Y024000D01*
X026066Y023954D01*
X026066Y023767D01*
X026113Y023720D01*
X026206Y023720D01*
X026253Y023767D01*
X026218Y023625D02*
X026358Y023625D01*
X026404Y023579D01*
X026404Y023485D01*
X026358Y023438D01*
X026218Y023438D01*
X026311Y023438D02*
X026404Y023345D01*
X026218Y023345D02*
X026218Y023625D01*
X026823Y024986D02*
X026823Y025267D01*
X026963Y025267D01*
X027010Y025220D01*
X027010Y025127D01*
X026963Y025080D01*
X026823Y025080D01*
X027099Y025127D02*
X027286Y025127D01*
X027286Y025173D02*
X027286Y024986D01*
X027376Y024986D02*
X027562Y025173D01*
X027562Y025220D01*
X027516Y025267D01*
X027422Y025267D01*
X027376Y025220D01*
X027286Y025173D02*
X027193Y025267D01*
X027099Y025173D01*
X027099Y024986D01*
X027376Y024986D02*
X027562Y024986D01*
X027016Y025486D02*
X026922Y025486D01*
X026876Y025533D01*
X026786Y025486D02*
X026786Y025673D01*
X026693Y025767D01*
X026599Y025673D01*
X026599Y025486D01*
X026599Y025627D02*
X026786Y025627D01*
X026876Y025720D02*
X026922Y025767D01*
X027016Y025767D01*
X027062Y025720D01*
X027062Y025673D01*
X027016Y025627D01*
X027062Y025580D01*
X027062Y025533D01*
X027016Y025486D01*
X027016Y025627D02*
X026969Y025627D01*
X026510Y025627D02*
X026463Y025580D01*
X026323Y025580D01*
X026323Y025486D02*
X026323Y025767D01*
X026463Y025767D01*
X026510Y025720D01*
X026510Y025627D01*
X026492Y026111D02*
X026492Y026382D01*
X026357Y026247D01*
X026537Y026247D01*
X026270Y026247D02*
X026090Y026247D01*
X026090Y026292D02*
X026090Y026111D01*
X025958Y026202D02*
X025823Y026202D01*
X025823Y026111D02*
X025823Y026382D01*
X025958Y026382D01*
X026003Y026337D01*
X026003Y026247D01*
X025958Y026202D01*
X026090Y026292D02*
X026180Y026382D01*
X026270Y026292D01*
X026270Y026111D01*
X025904Y026411D02*
X025772Y026543D01*
X025838Y026477D02*
X026036Y026675D01*
X025904Y026675D01*
X025874Y026771D02*
X025874Y026837D01*
X025775Y026936D01*
X025576Y026738D01*
X025675Y026639D01*
X025742Y026639D01*
X025874Y026771D01*
X025711Y026999D02*
X025579Y027132D01*
X025381Y026933D01*
X025513Y026801D01*
X025546Y026966D02*
X025480Y027032D01*
X025318Y026997D02*
X025186Y027129D01*
X025384Y027327D01*
X024800Y027343D02*
X024800Y027529D01*
X024800Y027619D02*
X024753Y027619D01*
X024566Y027806D01*
X024520Y027806D01*
X024520Y027619D01*
X024520Y027436D02*
X024800Y027436D01*
X024800Y027253D02*
X024707Y027160D01*
X024707Y027206D02*
X024707Y027066D01*
X024800Y027066D02*
X024520Y027066D01*
X024520Y027206D01*
X024566Y027253D01*
X024660Y027253D01*
X024707Y027206D01*
X024613Y027343D02*
X024520Y027436D01*
X023409Y027948D02*
X023222Y027948D01*
X023128Y028042D01*
X023222Y028135D01*
X023409Y028135D01*
X023409Y028224D02*
X023128Y028224D01*
X023128Y028364D01*
X023175Y028411D01*
X023268Y028411D01*
X023315Y028364D01*
X023315Y028224D01*
X023315Y028318D02*
X023409Y028411D01*
X023409Y028501D02*
X023409Y028687D01*
X023409Y028777D02*
X023128Y028777D01*
X023128Y028964D01*
X023268Y028870D02*
X023268Y028777D01*
X023128Y028687D02*
X023128Y028501D01*
X023409Y028501D01*
X023268Y028501D02*
X023268Y028594D01*
X022909Y028529D02*
X022658Y028529D01*
X022658Y028612D02*
X022658Y028445D01*
X022658Y028364D02*
X022909Y028364D01*
X022658Y028197D01*
X022909Y028197D01*
X022867Y028115D02*
X022909Y028073D01*
X022909Y027990D01*
X022867Y027948D01*
X022700Y027948D01*
X022658Y027990D01*
X022658Y028073D01*
X022700Y028115D01*
X023268Y028135D02*
X023268Y027948D01*
X022909Y028694D02*
X022658Y028694D01*
X022658Y028819D01*
X022700Y028861D01*
X022783Y028861D01*
X022825Y028819D01*
X022825Y028694D01*
X022825Y028777D02*
X022909Y028861D01*
X022909Y028943D02*
X022909Y029109D01*
X022909Y028943D02*
X022658Y028943D01*
X022041Y028800D02*
X022041Y028520D01*
X022134Y028520D02*
X021947Y028520D01*
X021858Y028520D02*
X021671Y028520D01*
X021582Y028520D02*
X021488Y028613D01*
X021535Y028613D02*
X021395Y028613D01*
X021395Y028520D02*
X021395Y028800D01*
X021535Y028800D01*
X021582Y028754D01*
X021582Y028660D01*
X021535Y028613D01*
X021671Y028707D02*
X021765Y028800D01*
X021765Y028520D01*
X021947Y028707D02*
X022041Y028800D01*
X022316Y027556D02*
X022270Y027509D01*
X022270Y027415D01*
X022316Y027369D01*
X022503Y027369D01*
X022316Y027556D01*
X022503Y027556D01*
X022550Y027509D01*
X022550Y027415D01*
X022503Y027369D01*
X022550Y027279D02*
X022550Y027093D01*
X022550Y027186D02*
X022270Y027186D01*
X022363Y027093D01*
X022316Y027003D02*
X022270Y026956D01*
X022270Y026863D01*
X022316Y026816D01*
X022503Y026816D01*
X022550Y026863D01*
X022550Y026956D01*
X022503Y027003D01*
X021016Y027075D02*
X020923Y026982D01*
X021016Y026888D01*
X020736Y026888D01*
X020783Y026799D02*
X020876Y026799D01*
X020923Y026752D01*
X020923Y026612D01*
X021016Y026612D02*
X020736Y026612D01*
X020736Y026752D01*
X020783Y026799D01*
X020736Y027075D02*
X021016Y027075D01*
X021016Y027164D02*
X020736Y027164D01*
X020830Y027258D01*
X020736Y027351D01*
X021016Y027351D01*
X021016Y027441D02*
X021016Y027627D01*
X021016Y027534D02*
X020736Y027534D01*
X020830Y027441D01*
X019931Y027220D02*
X019744Y027220D01*
X019837Y027220D02*
X019837Y027500D01*
X019744Y027407D01*
X019654Y027500D02*
X019468Y027500D01*
X019561Y027500D02*
X019561Y027220D01*
X019050Y026259D02*
X018770Y026259D01*
X018910Y026119D01*
X018910Y026306D01*
X019050Y026029D02*
X019050Y025843D01*
X019050Y025753D02*
X018957Y025660D01*
X018957Y025706D02*
X018957Y025566D01*
X019050Y025566D02*
X018770Y025566D01*
X018770Y025706D01*
X018816Y025753D01*
X018910Y025753D01*
X018957Y025706D01*
X018863Y025843D02*
X018770Y025936D01*
X019050Y025936D01*
X018686Y024800D02*
X018593Y024800D01*
X018546Y024754D01*
X018546Y024707D01*
X018593Y024660D01*
X018733Y024660D01*
X018733Y024567D02*
X018733Y024754D01*
X018686Y024800D01*
X018457Y024754D02*
X018457Y024660D01*
X018410Y024613D01*
X018270Y024613D01*
X018270Y024520D02*
X018270Y024800D01*
X018410Y024800D01*
X018457Y024754D01*
X018363Y024613D02*
X018457Y024520D01*
X018546Y024567D02*
X018593Y024520D01*
X018686Y024520D01*
X018733Y024567D01*
X018634Y024375D02*
X018681Y024329D01*
X018494Y024142D01*
X018540Y024095D01*
X018634Y024095D01*
X018681Y024142D01*
X018681Y024329D01*
X018634Y024375D02*
X018540Y024375D01*
X018494Y024329D01*
X018494Y024142D01*
X018404Y024095D02*
X018218Y024095D01*
X018128Y024095D02*
X018035Y024188D01*
X018081Y024188D02*
X017941Y024188D01*
X017941Y024095D02*
X017941Y024375D01*
X018081Y024375D01*
X018128Y024329D01*
X018128Y024235D01*
X018081Y024188D01*
X018218Y024282D02*
X018311Y024375D01*
X018311Y024095D01*
X019343Y024392D02*
X019389Y024345D01*
X019483Y024345D01*
X019529Y024392D01*
X019619Y024345D02*
X019806Y024532D01*
X019806Y024579D01*
X019759Y024625D01*
X019665Y024625D01*
X019619Y024579D01*
X019529Y024579D02*
X019483Y024625D01*
X019389Y024625D01*
X019343Y024579D01*
X019343Y024392D01*
X019619Y024345D02*
X019806Y024345D01*
X018750Y021811D02*
X018470Y021811D01*
X018610Y021671D01*
X018610Y021858D01*
X018610Y021582D02*
X018657Y021535D01*
X018657Y021395D01*
X018750Y021395D02*
X018470Y021395D01*
X018470Y021535D01*
X018516Y021582D01*
X018610Y021582D01*
X018657Y021488D02*
X018750Y021582D01*
X023968Y018125D02*
X023968Y017892D01*
X024014Y017845D01*
X024108Y017845D01*
X024154Y017892D01*
X024154Y018125D01*
X024244Y018079D02*
X024290Y018125D01*
X024384Y018125D01*
X024431Y018079D01*
X024431Y018032D01*
X024244Y017845D01*
X024431Y017845D01*
X029609Y023785D02*
X036327Y034745D01*
X034736Y036336D02*
X023687Y029707D01*
X022185Y030325D02*
X035796Y038457D01*
X035724Y037131D02*
X035726Y037205D01*
X035732Y037280D01*
X035742Y037353D01*
X035756Y037427D01*
X035773Y037499D01*
X035795Y037570D01*
X035820Y037640D01*
X035849Y037709D01*
X035881Y037776D01*
X035918Y037841D01*
X035957Y037904D01*
X036000Y037965D01*
X036046Y038023D01*
X036095Y038079D01*
X036147Y038133D01*
X036201Y038183D01*
X036259Y038231D01*
X036318Y038275D01*
X036380Y038316D01*
X036445Y038354D01*
X036511Y038388D01*
X036578Y038419D01*
X036648Y038446D01*
X036718Y038469D01*
X036790Y038489D01*
X036863Y038505D01*
X036936Y038517D01*
X037010Y038525D01*
X037085Y038529D01*
X037159Y038529D01*
X037234Y038525D01*
X037308Y038517D01*
X037381Y038505D01*
X037454Y038489D01*
X037526Y038469D01*
X037596Y038446D01*
X037666Y038419D01*
X037733Y038388D01*
X037799Y038354D01*
X037864Y038316D01*
X037926Y038275D01*
X037985Y038231D01*
X038043Y038183D01*
X038097Y038133D01*
X038149Y038079D01*
X038198Y038023D01*
X038244Y037965D01*
X038287Y037904D01*
X038326Y037841D01*
X038363Y037776D01*
X038395Y037709D01*
X038424Y037640D01*
X038449Y037570D01*
X038471Y037499D01*
X038488Y037427D01*
X038502Y037353D01*
X038512Y037280D01*
X038518Y037205D01*
X038520Y037131D01*
X038518Y037057D01*
X038512Y036982D01*
X038502Y036909D01*
X038488Y036835D01*
X038471Y036763D01*
X038449Y036692D01*
X038424Y036622D01*
X038395Y036553D01*
X038363Y036486D01*
X038326Y036421D01*
X038287Y036358D01*
X038244Y036297D01*
X038198Y036239D01*
X038149Y036183D01*
X038097Y036129D01*
X038043Y036079D01*
X037985Y036031D01*
X037926Y035987D01*
X037864Y035946D01*
X037799Y035908D01*
X037733Y035874D01*
X037666Y035843D01*
X037596Y035816D01*
X037526Y035793D01*
X037454Y035773D01*
X037381Y035757D01*
X037308Y035745D01*
X037234Y035737D01*
X037159Y035733D01*
X037085Y035733D01*
X037010Y035737D01*
X036936Y035745D01*
X036863Y035757D01*
X036790Y035773D01*
X036718Y035793D01*
X036648Y035816D01*
X036578Y035843D01*
X036511Y035874D01*
X036445Y035908D01*
X036380Y035946D01*
X036318Y035987D01*
X036259Y036031D01*
X036201Y036079D01*
X036147Y036129D01*
X036095Y036183D01*
X036046Y036239D01*
X036000Y036297D01*
X035957Y036358D01*
X035918Y036421D01*
X035881Y036486D01*
X035849Y036553D01*
X035820Y036622D01*
X035795Y036692D01*
X035773Y036763D01*
X035756Y036835D01*
X035742Y036909D01*
X035732Y036982D01*
X035726Y037057D01*
X035724Y037131D01*
X035796Y038457D02*
X035863Y038520D01*
X035933Y038580D01*
X036005Y038637D01*
X036080Y038690D01*
X036158Y038739D01*
X036238Y038785D01*
X036320Y038826D01*
X036404Y038863D01*
X036490Y038896D01*
X036578Y038925D01*
X036666Y038950D01*
X036756Y038970D01*
X036847Y038986D01*
X036938Y038997D01*
X037030Y039004D01*
X037122Y039006D01*
X037214Y039004D01*
X037306Y038997D01*
X037397Y038986D01*
X037488Y038970D01*
X037578Y038950D01*
X037666Y038925D01*
X037754Y038896D01*
X037840Y038863D01*
X037924Y038826D01*
X038006Y038785D01*
X038086Y038739D01*
X038164Y038690D01*
X038239Y038637D01*
X038311Y038580D01*
X038381Y038520D01*
X038448Y038457D01*
X038509Y038392D01*
X038568Y038325D01*
X038623Y038255D01*
X038675Y038182D01*
X038723Y038107D01*
X038768Y038030D01*
X038809Y037950D01*
X038846Y037869D01*
X038879Y037786D01*
X038908Y037702D01*
X038933Y037616D01*
X038954Y037530D01*
X038971Y037442D01*
X038984Y037354D01*
X038992Y037265D01*
X038996Y037176D01*
X038996Y037086D01*
X038992Y036997D01*
X038984Y036908D01*
X038971Y036820D01*
X038954Y036732D01*
X038933Y036646D01*
X038908Y036560D01*
X038879Y036476D01*
X038846Y036393D01*
X038809Y036312D01*
X038768Y036232D01*
X038723Y036155D01*
X038675Y036080D01*
X038623Y036007D01*
X038568Y035937D01*
X038509Y035870D01*
X038448Y035805D01*
X036327Y034745D02*
X036099Y034912D01*
X035878Y035089D01*
X035666Y035275D01*
X035462Y035471D01*
X035266Y035675D01*
X035080Y035887D01*
X034903Y036108D01*
X034736Y036336D01*
X023687Y029706D02*
X024309Y028858D01*
X024968Y028037D01*
X025662Y027246D01*
X026389Y026486D01*
X027149Y025759D01*
X027940Y025065D01*
X028761Y024406D01*
X029609Y023784D01*
X030139Y022371D02*
X030042Y021934D01*
X029965Y021494D01*
X029910Y021050D01*
X029875Y020605D01*
X029862Y020158D01*
X029870Y019711D01*
X029900Y019265D01*
X029950Y018821D01*
X030022Y018379D01*
X030114Y017942D01*
X030228Y017509D01*
X019589Y028611D02*
X019402Y028611D01*
X019589Y028798D01*
X019589Y028845D01*
X019542Y028892D01*
X019449Y028892D01*
X019402Y028845D01*
X019312Y028892D02*
X019312Y028611D01*
X019126Y028611D02*
X019126Y028892D01*
X019219Y028798D01*
X019312Y028892D01*
X019312Y028986D02*
X019312Y029267D01*
X019219Y029173D01*
X019126Y029267D01*
X019126Y028986D01*
X019036Y028986D02*
X019036Y029267D01*
X019013Y029379D02*
X019107Y029472D01*
X019200Y029379D01*
X019200Y029659D01*
X019289Y029659D02*
X019383Y029565D01*
X019476Y029659D01*
X019476Y029379D01*
X019449Y029267D02*
X019542Y029267D01*
X019589Y029220D01*
X019589Y029173D01*
X019542Y029127D01*
X019589Y029080D01*
X019589Y029033D01*
X019542Y028986D01*
X019449Y028986D01*
X019402Y029033D01*
X019495Y029127D02*
X019542Y029127D01*
X019402Y029220D02*
X019449Y029267D01*
X019289Y029379D02*
X019289Y029659D01*
X019013Y029659D02*
X019013Y029379D01*
X018877Y029472D02*
X018737Y029472D01*
X018737Y029379D02*
X018737Y029659D01*
X018877Y029659D01*
X018924Y029612D01*
X018924Y029519D01*
X018877Y029472D01*
X018849Y029267D02*
X018849Y028986D01*
X018943Y029080D01*
X019036Y028986D01*
X019036Y028892D02*
X019036Y028611D01*
X018943Y028705D01*
X018849Y028611D01*
X018849Y028892D01*
X018760Y028845D02*
X018760Y028752D01*
X018713Y028705D01*
X018573Y028705D01*
X018573Y028611D02*
X018573Y028892D01*
X018713Y028892D01*
X018760Y028845D01*
X018573Y028986D02*
X018573Y029267D01*
X018713Y029267D01*
X018760Y029220D01*
X018760Y029127D01*
X018713Y029080D01*
X018573Y029080D01*
X019566Y029519D02*
X019752Y029519D01*
X019706Y029659D02*
X019566Y029519D01*
X019706Y029379D02*
X019706Y029659D01*
X016865Y028125D02*
X016865Y027845D01*
X016958Y027845D02*
X016771Y027845D01*
X016682Y027892D02*
X016682Y028079D01*
X016635Y028125D01*
X016495Y028125D01*
X016495Y027845D01*
X016635Y027845D01*
X016682Y027892D01*
X016771Y028032D02*
X016865Y028125D01*
X017500Y030237D02*
X017920Y030143D01*
X018345Y030070D01*
X018772Y030016D01*
X019202Y029983D01*
X019632Y029971D01*
X020063Y029979D01*
X020493Y030008D01*
X020921Y030057D01*
X021346Y030126D01*
X021768Y030216D01*
X022184Y030325D01*
X001325Y035805D02*
X001262Y035872D01*
X001202Y035942D01*
X001145Y036014D01*
X001092Y036089D01*
X001043Y036167D01*
X000997Y036247D01*
X000956Y036329D01*
X000919Y036413D01*
X000886Y036499D01*
X000857Y036587D01*
X000832Y036675D01*
X000812Y036765D01*
X000796Y036856D01*
X000785Y036947D01*
X000778Y037039D01*
X000776Y037131D01*
X000778Y037223D01*
X000785Y037315D01*
X000796Y037406D01*
X000812Y037497D01*
X000832Y037587D01*
X000857Y037675D01*
X000886Y037763D01*
X000919Y037849D01*
X000956Y037933D01*
X000997Y038015D01*
X001043Y038095D01*
X001092Y038173D01*
X001145Y038248D01*
X001202Y038320D01*
X001262Y038390D01*
X001325Y038457D01*
X003446Y034745D02*
X003674Y034912D01*
X003895Y035089D01*
X004107Y035275D01*
X004311Y035471D01*
X004507Y035675D01*
X004693Y035887D01*
X004870Y036108D01*
X005037Y036336D01*
X016086Y029707D02*
X015454Y028846D01*
X014786Y028013D01*
X014082Y027210D01*
X013343Y026439D01*
X012572Y025700D01*
X011769Y024996D01*
X010936Y024328D01*
X010075Y023696D01*
X009545Y022281D02*
X009648Y021855D01*
X009731Y021424D01*
X009794Y020990D01*
X009836Y020553D01*
X009856Y020114D01*
X009856Y019676D01*
X009836Y019237D01*
X009794Y018800D01*
X009731Y018366D01*
X009648Y017935D01*
X009545Y017509D01*
X003977Y001334D02*
X003910Y001271D01*
X003840Y001211D01*
X003768Y001154D01*
X003693Y001101D01*
X003615Y001052D01*
X003535Y001006D01*
X003453Y000965D01*
X003369Y000928D01*
X003283Y000895D01*
X003195Y000866D01*
X003107Y000841D01*
X003017Y000821D01*
X002926Y000805D01*
X002835Y000794D01*
X002743Y000787D01*
X002651Y000785D01*
X002559Y000787D01*
X002467Y000794D01*
X002376Y000805D01*
X002285Y000821D01*
X002195Y000841D01*
X002107Y000866D01*
X002019Y000895D01*
X001933Y000928D01*
X001849Y000965D01*
X001767Y001006D01*
X001687Y001052D01*
X001609Y001101D01*
X001534Y001154D01*
X001462Y001211D01*
X001392Y001271D01*
X001325Y001334D01*
X001253Y002660D02*
X001255Y002734D01*
X001261Y002809D01*
X001271Y002882D01*
X001285Y002956D01*
X001302Y003028D01*
X001324Y003099D01*
X001349Y003169D01*
X001378Y003238D01*
X001410Y003305D01*
X001447Y003370D01*
X001486Y003433D01*
X001529Y003494D01*
X001575Y003552D01*
X001624Y003608D01*
X001676Y003662D01*
X001730Y003712D01*
X001788Y003760D01*
X001847Y003804D01*
X001909Y003845D01*
X001974Y003883D01*
X002040Y003917D01*
X002107Y003948D01*
X002177Y003975D01*
X002247Y003998D01*
X002319Y004018D01*
X002392Y004034D01*
X002465Y004046D01*
X002539Y004054D01*
X002614Y004058D01*
X002688Y004058D01*
X002763Y004054D01*
X002837Y004046D01*
X002910Y004034D01*
X002983Y004018D01*
X003055Y003998D01*
X003125Y003975D01*
X003195Y003948D01*
X003262Y003917D01*
X003328Y003883D01*
X003393Y003845D01*
X003455Y003804D01*
X003514Y003760D01*
X003572Y003712D01*
X003626Y003662D01*
X003678Y003608D01*
X003727Y003552D01*
X003773Y003494D01*
X003816Y003433D01*
X003855Y003370D01*
X003892Y003305D01*
X003924Y003238D01*
X003953Y003169D01*
X003978Y003099D01*
X004000Y003028D01*
X004017Y002956D01*
X004031Y002882D01*
X004041Y002809D01*
X004047Y002734D01*
X004049Y002660D01*
X004047Y002586D01*
X004041Y002511D01*
X004031Y002438D01*
X004017Y002364D01*
X004000Y002292D01*
X003978Y002221D01*
X003953Y002151D01*
X003924Y002082D01*
X003892Y002015D01*
X003855Y001950D01*
X003816Y001887D01*
X003773Y001826D01*
X003727Y001768D01*
X003678Y001712D01*
X003626Y001658D01*
X003572Y001608D01*
X003514Y001560D01*
X003455Y001516D01*
X003393Y001475D01*
X003328Y001437D01*
X003262Y001403D01*
X003195Y001372D01*
X003125Y001345D01*
X003055Y001322D01*
X002983Y001302D01*
X002910Y001286D01*
X002837Y001274D01*
X002763Y001266D01*
X002688Y001262D01*
X002614Y001262D01*
X002539Y001266D01*
X002465Y001274D01*
X002392Y001286D01*
X002319Y001302D01*
X002247Y001322D01*
X002177Y001345D01*
X002107Y001372D01*
X002040Y001403D01*
X001974Y001437D01*
X001909Y001475D01*
X001847Y001516D01*
X001788Y001560D01*
X001730Y001608D01*
X001676Y001658D01*
X001624Y001712D01*
X001575Y001768D01*
X001529Y001826D01*
X001486Y001887D01*
X001447Y001950D01*
X001410Y002015D01*
X001378Y002082D01*
X001349Y002151D01*
X001324Y002221D01*
X001302Y002292D01*
X001285Y002364D01*
X001271Y002438D01*
X001261Y002511D01*
X001255Y002586D01*
X001253Y002660D01*
X003446Y005045D02*
X003674Y004878D01*
X003894Y004701D01*
X004106Y004515D01*
X004311Y004320D01*
X004506Y004115D01*
X004692Y003903D01*
X004869Y003683D01*
X005036Y003455D01*
X017499Y009554D02*
X017926Y009657D01*
X018357Y009740D01*
X018791Y009803D01*
X019228Y009845D01*
X019667Y009865D01*
X020105Y009865D01*
X020544Y009845D01*
X020981Y009803D01*
X021415Y009740D01*
X021846Y009657D01*
X022273Y009554D01*
X035724Y002660D02*
X035726Y002734D01*
X035732Y002809D01*
X035742Y002882D01*
X035756Y002956D01*
X035773Y003028D01*
X035795Y003099D01*
X035820Y003169D01*
X035849Y003238D01*
X035881Y003305D01*
X035918Y003370D01*
X035957Y003433D01*
X036000Y003494D01*
X036046Y003552D01*
X036095Y003608D01*
X036147Y003662D01*
X036201Y003712D01*
X036259Y003760D01*
X036318Y003804D01*
X036380Y003845D01*
X036445Y003883D01*
X036511Y003917D01*
X036578Y003948D01*
X036648Y003975D01*
X036718Y003998D01*
X036790Y004018D01*
X036863Y004034D01*
X036936Y004046D01*
X037010Y004054D01*
X037085Y004058D01*
X037159Y004058D01*
X037234Y004054D01*
X037308Y004046D01*
X037381Y004034D01*
X037454Y004018D01*
X037526Y003998D01*
X037596Y003975D01*
X037666Y003948D01*
X037733Y003917D01*
X037799Y003883D01*
X037864Y003845D01*
X037926Y003804D01*
X037985Y003760D01*
X038043Y003712D01*
X038097Y003662D01*
X038149Y003608D01*
X038198Y003552D01*
X038244Y003494D01*
X038287Y003433D01*
X038326Y003370D01*
X038363Y003305D01*
X038395Y003238D01*
X038424Y003169D01*
X038449Y003099D01*
X038471Y003028D01*
X038488Y002956D01*
X038502Y002882D01*
X038512Y002809D01*
X038518Y002734D01*
X038520Y002660D01*
X038518Y002586D01*
X038512Y002511D01*
X038502Y002438D01*
X038488Y002364D01*
X038471Y002292D01*
X038449Y002221D01*
X038424Y002151D01*
X038395Y002082D01*
X038363Y002015D01*
X038326Y001950D01*
X038287Y001887D01*
X038244Y001826D01*
X038198Y001768D01*
X038149Y001712D01*
X038097Y001658D01*
X038043Y001608D01*
X037985Y001560D01*
X037926Y001516D01*
X037864Y001475D01*
X037799Y001437D01*
X037733Y001403D01*
X037666Y001372D01*
X037596Y001345D01*
X037526Y001322D01*
X037454Y001302D01*
X037381Y001286D01*
X037308Y001274D01*
X037234Y001266D01*
X037159Y001262D01*
X037085Y001262D01*
X037010Y001266D01*
X036936Y001274D01*
X036863Y001286D01*
X036790Y001302D01*
X036718Y001322D01*
X036648Y001345D01*
X036578Y001372D01*
X036511Y001403D01*
X036445Y001437D01*
X036380Y001475D01*
X036318Y001516D01*
X036259Y001560D01*
X036201Y001608D01*
X036147Y001658D01*
X036095Y001712D01*
X036046Y001768D01*
X036000Y001826D01*
X035957Y001887D01*
X035918Y001950D01*
X035881Y002015D01*
X035849Y002082D01*
X035820Y002151D01*
X035795Y002221D01*
X035773Y002292D01*
X035756Y002364D01*
X035742Y002438D01*
X035732Y002511D01*
X035726Y002586D01*
X035724Y002660D01*
X034737Y003455D02*
X034904Y003683D01*
X035081Y003903D01*
X035267Y004115D01*
X035462Y004320D01*
X035667Y004515D01*
X035879Y004701D01*
X036099Y004878D01*
X036327Y005045D01*
X029698Y016095D02*
X028837Y015463D01*
X028004Y014795D01*
X027201Y014091D01*
X026430Y013352D01*
X025691Y012581D01*
X024987Y011778D01*
X024319Y010945D01*
X023687Y010084D01*
D11*
X039570Y000200D02*
X000200Y000200D01*
X000200Y039570D01*
X039570Y039570D01*
X039570Y000200D01*
X023179Y016232D02*
X023181Y016259D01*
X023187Y016286D01*
X023196Y016312D01*
X023209Y016336D01*
X023225Y016359D01*
X023244Y016378D01*
X023266Y016395D01*
X023290Y016409D01*
X023315Y016419D01*
X023342Y016426D01*
X023369Y016429D01*
X023397Y016428D01*
X023424Y016423D01*
X023450Y016415D01*
X023474Y016403D01*
X023497Y016387D01*
X023518Y016369D01*
X023535Y016348D01*
X023550Y016324D01*
X023561Y016299D01*
X023569Y016273D01*
X023573Y016246D01*
X023573Y016218D01*
X023569Y016191D01*
X023561Y016165D01*
X023550Y016140D01*
X023535Y016116D01*
X023518Y016095D01*
X023497Y016077D01*
X023475Y016061D01*
X023450Y016049D01*
X023424Y016041D01*
X023397Y016036D01*
X023369Y016035D01*
X023342Y016038D01*
X023315Y016045D01*
X023290Y016055D01*
X023266Y016069D01*
X023244Y016086D01*
X023225Y016105D01*
X023209Y016128D01*
X023196Y016152D01*
X023187Y016178D01*
X023181Y016205D01*
X023179Y016232D01*
X021447Y016232D02*
X021449Y016259D01*
X021455Y016286D01*
X021464Y016312D01*
X021477Y016336D01*
X021493Y016359D01*
X021512Y016378D01*
X021534Y016395D01*
X021558Y016409D01*
X021583Y016419D01*
X021610Y016426D01*
X021637Y016429D01*
X021665Y016428D01*
X021692Y016423D01*
X021718Y016415D01*
X021742Y016403D01*
X021765Y016387D01*
X021786Y016369D01*
X021803Y016348D01*
X021818Y016324D01*
X021829Y016299D01*
X021837Y016273D01*
X021841Y016246D01*
X021841Y016218D01*
X021837Y016191D01*
X021829Y016165D01*
X021818Y016140D01*
X021803Y016116D01*
X021786Y016095D01*
X021765Y016077D01*
X021743Y016061D01*
X021718Y016049D01*
X021692Y016041D01*
X021665Y016036D01*
X021637Y016035D01*
X021610Y016038D01*
X021583Y016045D01*
X021558Y016055D01*
X021534Y016069D01*
X021512Y016086D01*
X021493Y016105D01*
X021477Y016128D01*
X021464Y016152D01*
X021455Y016178D01*
X021449Y016205D01*
X021447Y016232D01*
X030140Y022370D02*
X038448Y035805D01*
D12*
X024900Y025992D02*
X024900Y022528D01*
X024742Y022370D01*
X021278Y022370D01*
X021120Y022528D01*
X021120Y025992D01*
X021278Y026150D01*
X024742Y026150D01*
X024900Y025992D01*
X019922Y020672D02*
X019785Y020672D01*
X019922Y020672D02*
X019922Y020535D01*
X019922Y019235D02*
X019922Y019098D01*
X019785Y019098D01*
X018485Y019098D02*
X018348Y019098D01*
X018348Y019235D01*
X018348Y020535D02*
X018485Y020672D01*
X021290Y017559D02*
X021644Y017559D01*
X021014Y016575D02*
X021014Y015748D01*
X021149Y013221D02*
X020996Y013067D01*
X020996Y012453D01*
X021149Y012300D01*
X021456Y012300D01*
X021609Y012453D01*
X021609Y013067D02*
X021456Y013221D01*
X021149Y013221D01*
X020689Y013067D02*
X020535Y013221D01*
X020075Y013221D01*
X020075Y012300D01*
X020535Y012300D01*
X020689Y012453D01*
X020689Y013067D01*
X019768Y013067D02*
X019768Y012453D01*
X019614Y012300D01*
X019307Y012300D01*
X019154Y012453D01*
X019154Y013067D01*
X019307Y013221D01*
X019614Y013221D01*
X019768Y013067D01*
X019461Y012607D02*
X019768Y012300D01*
X017926Y012453D02*
X017926Y012760D01*
X017773Y012914D01*
X017466Y012914D01*
X017312Y012760D01*
X017312Y012453D01*
X017466Y012300D01*
X017773Y012300D01*
X017926Y012453D01*
X017005Y012300D02*
X017005Y012760D01*
X016852Y012914D01*
X016392Y012914D01*
X016392Y012300D01*
X016085Y012300D02*
X015624Y012300D01*
X015471Y012453D01*
X015624Y012607D01*
X016085Y012607D01*
X016085Y012760D02*
X016085Y012300D01*
X016085Y012760D02*
X015931Y012914D01*
X015624Y012914D01*
X015164Y013221D02*
X015164Y012300D01*
X014550Y013221D01*
X014550Y012300D01*
X011207Y018688D02*
X010813Y018688D01*
X011010Y019082D01*
X011207Y018688D01*
X017313Y027385D02*
X017707Y027188D01*
X017707Y027582D01*
X017313Y027385D01*
X017313Y028313D02*
X017313Y028707D01*
X017707Y028510D01*
X017313Y028313D01*
X023376Y017559D02*
X023730Y017559D01*
X024006Y016575D02*
X024006Y015748D01*
X025688Y016010D02*
X026082Y015813D01*
X026082Y016207D01*
X025688Y016010D01*
X024986Y013221D02*
X024986Y012300D01*
X024679Y012300D02*
X025293Y012300D01*
X024679Y012914D02*
X024986Y013221D01*
X024372Y013221D02*
X023758Y012607D01*
X023911Y012760D02*
X024372Y012300D01*
X023758Y012300D02*
X023758Y013221D01*
X023451Y013221D02*
X023144Y012914D01*
X022837Y013221D01*
X022837Y012300D01*
X023451Y012300D02*
X023451Y013221D01*
D13*
X023300Y012115D02*
X023300Y011655D01*
X023453Y011655D02*
X023146Y011655D01*
X022993Y011732D02*
X022993Y012039D01*
X022686Y011732D01*
X022763Y011655D01*
X022916Y011655D01*
X022993Y011732D01*
X023146Y011962D02*
X023300Y012115D01*
X023607Y012039D02*
X023683Y012115D01*
X023837Y012115D01*
X023914Y012039D01*
X023914Y011962D01*
X023607Y011655D01*
X023914Y011655D01*
X023559Y011104D02*
X023559Y010797D01*
X023712Y010950D02*
X023405Y010950D01*
X023252Y011027D02*
X023252Y011104D01*
X023175Y011180D01*
X023022Y011180D01*
X022945Y011104D01*
X022792Y011180D02*
X022792Y010720D01*
X022945Y010720D02*
X023252Y011027D01*
X023252Y010720D02*
X022945Y010720D01*
X022638Y011027D02*
X022792Y011180D01*
X022638Y011027D02*
X022485Y011180D01*
X022485Y010720D01*
X022532Y011655D02*
X022225Y011655D01*
X022532Y011962D01*
X022532Y012039D01*
X022456Y012115D01*
X022302Y012115D01*
X022225Y012039D01*
X021612Y011962D02*
X021535Y011962D01*
X021381Y011808D01*
X021381Y011655D02*
X021381Y011962D01*
X021228Y011885D02*
X021151Y011962D01*
X020998Y011962D01*
X020921Y011885D01*
X020921Y011732D01*
X020998Y011655D01*
X021151Y011655D01*
X021228Y011808D02*
X020921Y011808D01*
X020768Y011885D02*
X020768Y011655D01*
X020614Y011655D02*
X020614Y011885D01*
X020691Y011962D01*
X020768Y011885D01*
X020614Y011885D02*
X020537Y011962D01*
X020461Y011962D01*
X020461Y011655D01*
X020307Y011655D02*
X020154Y011655D01*
X020230Y011655D02*
X020230Y011962D01*
X020154Y011962D01*
X020230Y012115D02*
X020230Y012192D01*
X019924Y011962D02*
X020000Y011885D01*
X020000Y011808D01*
X019693Y011808D01*
X019693Y011732D02*
X019693Y011885D01*
X019770Y011962D01*
X019924Y011962D01*
X019924Y011655D02*
X019770Y011655D01*
X019693Y011732D01*
X019540Y011655D02*
X019540Y011885D01*
X019463Y011962D01*
X019310Y011962D01*
X019233Y011885D01*
X019079Y011885D02*
X019003Y011962D01*
X018773Y011962D01*
X018773Y011655D01*
X018619Y011808D02*
X018312Y011808D01*
X018312Y011732D02*
X018312Y011885D01*
X018389Y011962D01*
X018542Y011962D01*
X018619Y011885D01*
X018619Y011808D01*
X018542Y011655D02*
X018389Y011655D01*
X018312Y011732D01*
X018159Y011732D02*
X018082Y011808D01*
X017928Y011808D01*
X017852Y011885D01*
X017928Y011962D01*
X018159Y011962D01*
X018159Y011732D02*
X018082Y011655D01*
X017852Y011655D01*
X017698Y011808D02*
X017391Y011808D01*
X017391Y011732D02*
X017391Y011885D01*
X017468Y011962D01*
X017622Y011962D01*
X017698Y011885D01*
X017698Y011808D01*
X017622Y011655D02*
X017468Y011655D01*
X017391Y011732D01*
X017238Y011655D02*
X017008Y011885D01*
X016931Y011808D02*
X017238Y012115D01*
X016931Y012115D02*
X016931Y011655D01*
X016860Y011180D02*
X017013Y011027D01*
X017167Y011180D01*
X017167Y010720D01*
X017320Y010797D02*
X017397Y010720D01*
X017550Y010720D01*
X017627Y010797D01*
X017627Y010873D01*
X017550Y010950D01*
X017474Y010950D01*
X017550Y010950D02*
X017627Y011027D01*
X017627Y011104D01*
X017550Y011180D01*
X017397Y011180D01*
X017320Y011104D01*
X016860Y011180D02*
X016860Y010720D01*
X017780Y010950D02*
X018087Y010950D01*
X017934Y010797D02*
X017934Y011104D01*
X019079Y011655D02*
X019079Y011885D01*
X019233Y012115D02*
X019233Y011655D01*
X021228Y011808D02*
X021228Y011885D01*
X022686Y011732D02*
X022686Y012039D01*
X022763Y012115D01*
X022916Y012115D01*
X022993Y012039D01*
X022422Y014780D02*
X022115Y014780D01*
X021962Y014780D02*
X021655Y015240D01*
X021962Y015240D02*
X021655Y014780D01*
X022115Y015087D02*
X022269Y015240D01*
X022269Y014780D01*
X027610Y017720D02*
X027610Y018180D01*
X027763Y018027D01*
X027917Y018180D01*
X027917Y017720D01*
X028070Y017720D02*
X028377Y018027D01*
X028377Y018104D01*
X028300Y018180D01*
X028147Y018180D01*
X028070Y018104D01*
X028070Y017720D02*
X028377Y017720D01*
X028530Y017950D02*
X028837Y017950D01*
X029175Y018834D02*
X029482Y018834D01*
X029022Y018988D02*
X029022Y019295D01*
X028945Y019371D01*
X028715Y019371D01*
X028715Y018911D01*
X028945Y018911D01*
X029022Y018988D01*
X028561Y018911D02*
X028561Y019371D01*
X028254Y019371D02*
X028561Y018911D01*
X028254Y018911D02*
X028254Y019371D01*
X028101Y019295D02*
X028024Y019371D01*
X027871Y019371D01*
X027794Y019295D01*
X027794Y018988D01*
X027871Y018911D01*
X028024Y018911D01*
X028101Y018988D01*
X028101Y019141D01*
X027947Y019141D01*
X027985Y023345D02*
X027985Y023805D01*
X028138Y023652D01*
X028292Y023805D01*
X028292Y023345D01*
X028445Y023345D02*
X028752Y023345D01*
X028599Y023345D02*
X028599Y023805D01*
X028445Y023652D01*
X028905Y023575D02*
X029212Y023575D01*
X022337Y029575D02*
X022030Y029575D01*
X022184Y029729D02*
X022184Y029422D01*
X021877Y029345D02*
X021570Y029345D01*
X021417Y029345D02*
X021417Y029805D01*
X021263Y029652D01*
X021110Y029805D01*
X021110Y029345D01*
X021570Y029652D02*
X021724Y029805D01*
X021724Y029345D01*
X015550Y027550D02*
X015090Y027550D01*
X015320Y027320D01*
X015320Y027627D01*
X015320Y027780D02*
X015320Y028087D01*
X015090Y027167D02*
X015550Y027167D01*
X015550Y026860D02*
X015090Y026860D01*
X015243Y027013D01*
X015090Y027167D01*
X014667Y025110D02*
X014547Y025110D01*
X014487Y025050D01*
X014359Y025050D02*
X014359Y024930D01*
X014298Y024870D01*
X014118Y024870D01*
X014118Y024750D02*
X014118Y025110D01*
X014298Y025110D01*
X014359Y025050D01*
X014667Y025110D02*
X014727Y025050D01*
X014727Y024990D01*
X014487Y024750D01*
X014727Y024750D01*
X013930Y024810D02*
X013930Y025110D01*
X013870Y025110D02*
X013990Y025110D01*
X013930Y024810D02*
X013870Y024750D01*
X013810Y024750D01*
X013750Y024810D01*
X013732Y024766D02*
X013425Y024766D01*
X013578Y024613D02*
X013578Y024920D01*
X013272Y024996D02*
X012965Y024996D01*
X013118Y024996D02*
X013118Y024536D01*
X012811Y024536D02*
X012811Y024843D01*
X012658Y024996D01*
X012504Y024843D01*
X012504Y024536D01*
X012351Y024613D02*
X012274Y024536D01*
X012044Y024536D01*
X012044Y024996D01*
X012274Y024996D01*
X012351Y024920D01*
X012351Y024843D01*
X012274Y024766D01*
X012044Y024766D01*
X012274Y024766D02*
X012351Y024689D01*
X012351Y024613D01*
X012504Y024766D02*
X012811Y024766D01*
X011712Y023575D02*
X011405Y023575D01*
X011252Y023575D02*
X010945Y023575D01*
X011175Y023805D01*
X011175Y023345D01*
X011419Y023121D02*
X011649Y023121D01*
X011726Y023045D01*
X011726Y022968D01*
X011649Y022891D01*
X011419Y022891D01*
X011649Y022891D02*
X011726Y022814D01*
X011726Y022738D01*
X011649Y022661D01*
X011419Y022661D01*
X011419Y023121D01*
X011559Y023422D02*
X011559Y023729D01*
X012033Y023121D02*
X012186Y022968D01*
X012186Y022661D01*
X012186Y022891D02*
X011879Y022891D01*
X011879Y022968D02*
X012033Y023121D01*
X011879Y022968D02*
X011879Y022661D01*
X012493Y022661D02*
X012493Y023121D01*
X012340Y023121D02*
X012647Y023121D01*
X012800Y022891D02*
X013107Y022891D01*
X010792Y023345D02*
X010792Y023805D01*
X010638Y023652D01*
X010485Y023805D01*
X010485Y023345D01*
X013609Y020440D02*
X013609Y020057D01*
X013686Y019980D01*
X013839Y019980D01*
X013916Y020057D01*
X013916Y020440D01*
X014070Y020287D02*
X014223Y020440D01*
X014223Y019980D01*
X014070Y019980D02*
X014377Y019980D01*
X014036Y018859D02*
X013883Y018859D01*
X013806Y018783D01*
X013652Y018859D02*
X013652Y018553D01*
X013499Y018399D01*
X013345Y018553D01*
X013345Y018859D01*
X013192Y018783D02*
X013192Y018706D01*
X013115Y018629D01*
X013192Y018553D01*
X013192Y018476D01*
X013115Y018399D01*
X012962Y018399D01*
X012885Y018476D01*
X013038Y018629D02*
X013115Y018629D01*
X013192Y018783D02*
X013115Y018859D01*
X012962Y018859D01*
X012885Y018783D01*
X013806Y018476D02*
X013883Y018399D01*
X014036Y018399D01*
X014113Y018476D01*
X014113Y018553D01*
X014036Y018629D01*
X013959Y018629D01*
X014036Y018629D02*
X014113Y018706D01*
X014113Y018783D01*
X014036Y018859D01*
X014348Y018030D02*
X014305Y017986D01*
X014305Y017900D01*
X014348Y017856D01*
X014305Y017753D02*
X014522Y017753D01*
X014565Y017710D01*
X014565Y017623D01*
X014522Y017580D01*
X014305Y017580D01*
X014522Y017856D02*
X014565Y017900D01*
X014565Y017986D01*
X014522Y018030D01*
X014478Y018030D01*
X014435Y017986D01*
X014435Y017943D01*
X014435Y017986D02*
X014392Y018030D01*
X014348Y018030D01*
X013488Y017109D02*
X013488Y016803D01*
X013334Y016649D01*
X013181Y016803D01*
X013181Y017109D01*
X013027Y017109D02*
X012720Y017109D01*
X012720Y016879D01*
X012874Y016956D01*
X012951Y016956D01*
X013027Y016879D01*
X013027Y016726D01*
X012951Y016649D01*
X012797Y016649D01*
X012720Y016726D01*
X012462Y016450D02*
X012155Y016450D01*
X012002Y016373D02*
X012002Y016297D01*
X011925Y016220D01*
X011772Y016220D01*
X011695Y016297D01*
X011542Y016220D02*
X011542Y016680D01*
X011388Y016527D01*
X011235Y016680D01*
X011235Y016220D01*
X011695Y016604D02*
X011772Y016680D01*
X011925Y016680D01*
X012002Y016604D01*
X012002Y016527D01*
X011925Y016450D01*
X012002Y016373D01*
X011925Y016450D02*
X011849Y016450D01*
X015780Y012115D02*
X015933Y011962D01*
X016087Y012115D01*
X016087Y011655D01*
X016240Y011655D02*
X016317Y011655D01*
X016317Y011732D01*
X016240Y011732D01*
X016240Y011655D01*
X015780Y011655D02*
X015780Y012115D01*
D14*
X015872Y014775D02*
X015968Y014872D01*
X015968Y015065D01*
X016070Y015065D02*
X016070Y014823D01*
X016118Y014775D01*
X016215Y014775D01*
X016263Y014823D01*
X016263Y015065D01*
X016364Y015017D02*
X016364Y014968D01*
X016413Y014920D01*
X016509Y014920D01*
X016558Y014872D01*
X016558Y014823D01*
X016509Y014775D01*
X016413Y014775D01*
X016364Y014823D01*
X016364Y015017D02*
X016413Y015065D01*
X016509Y015065D01*
X016558Y015017D01*
X016659Y015065D02*
X016804Y015065D01*
X016852Y015017D01*
X016852Y014968D01*
X016804Y014920D01*
X016659Y014920D01*
X016659Y014775D02*
X016804Y014775D01*
X016852Y014823D01*
X016852Y014872D01*
X016804Y014920D01*
X016659Y014775D02*
X016659Y015065D01*
X015872Y014775D02*
X015775Y014872D01*
X015775Y015065D01*
X013352Y015690D02*
X013159Y015690D01*
X013256Y015690D02*
X013256Y015400D01*
X013058Y015400D02*
X013058Y015593D01*
X012961Y015690D01*
X012864Y015593D01*
X012864Y015400D01*
X012763Y015448D02*
X012715Y015400D01*
X012570Y015400D01*
X012570Y015690D01*
X012715Y015690D01*
X012763Y015642D01*
X012763Y015593D01*
X012715Y015545D01*
X012570Y015545D01*
X012468Y015497D02*
X012468Y015690D01*
X012275Y015690D02*
X012275Y015497D01*
X012372Y015400D01*
X012468Y015497D01*
X012715Y015545D02*
X012763Y015497D01*
X012763Y015448D01*
X012864Y015545D02*
X013058Y015545D01*
X016531Y017598D02*
X016584Y017544D01*
X016798Y017544D01*
X016851Y017598D01*
X016851Y017704D01*
X016798Y017758D01*
X016691Y017758D01*
X016691Y017651D01*
X016584Y017758D02*
X016531Y017704D01*
X016531Y017598D01*
X016531Y017867D02*
X016851Y018080D01*
X016531Y018080D01*
X016531Y018189D02*
X016531Y018349D01*
X016584Y018402D01*
X016798Y018402D01*
X016851Y018349D01*
X016851Y018189D01*
X016531Y018189D01*
X016531Y017867D02*
X016851Y017867D01*
X018735Y019535D02*
X019535Y019535D01*
X019345Y019445D02*
X019325Y019375D01*
X019345Y019445D02*
X019285Y019485D01*
X019345Y019446D02*
X019327Y019435D01*
X019308Y019427D01*
X019288Y019423D01*
X019267Y019422D01*
X019246Y019426D01*
X019227Y019433D01*
X019209Y019443D01*
X019193Y019456D01*
X019180Y019473D01*
X019170Y019491D01*
X019163Y019510D01*
X019160Y019531D01*
X019161Y019552D01*
X019165Y019572D01*
X019174Y019591D01*
X019185Y019609D01*
X019199Y019624D01*
X019216Y019636D01*
X019235Y019645D01*
X019255Y019650D01*
X019276Y019652D01*
X019296Y019650D01*
X019316Y019644D01*
X019335Y019635D01*
X018825Y019915D02*
X018785Y019875D01*
X018825Y019915D02*
X018825Y019995D01*
X018735Y020085D02*
X018735Y019535D01*
X018825Y019765D02*
X018810Y019751D01*
X018794Y019739D01*
X018775Y019730D01*
X018756Y019725D01*
X018735Y019723D01*
X018715Y019725D01*
X018695Y019730D01*
X018677Y019739D01*
X018660Y019750D01*
X018645Y019765D01*
X018634Y019781D01*
X018625Y019800D01*
X018620Y019820D01*
X018618Y019840D01*
X018620Y019860D01*
X018625Y019880D01*
X018634Y019899D01*
X018645Y019915D01*
X018660Y019930D01*
X018677Y019941D01*
X018695Y019950D01*
X018715Y019955D01*
X018735Y019957D01*
X018756Y019955D01*
X018775Y019950D01*
X018794Y019941D01*
X018810Y019929D01*
X018825Y019915D01*
X019385Y020335D02*
X019370Y020317D01*
X019359Y020298D01*
X019350Y020276D01*
X019345Y020254D01*
X019344Y020231D01*
X019347Y020208D01*
X019353Y020186D01*
X019362Y020166D01*
X019375Y020147D01*
X019391Y020130D01*
X019409Y020116D01*
X019429Y020105D01*
X019451Y020098D01*
X019474Y020094D01*
X019496Y020094D01*
X019519Y020098D01*
X019541Y020105D01*
X019561Y020116D01*
X019579Y020130D01*
X019595Y020147D01*
X019608Y020166D01*
X019617Y020186D01*
X019623Y020208D01*
X019626Y020231D01*
X019625Y020254D01*
X019620Y020276D01*
X019611Y020298D01*
X019600Y020317D01*
X019585Y020335D01*
X019685Y020295D01*
X019585Y020335D02*
X019555Y020245D01*
X021525Y022775D02*
X021525Y023145D01*
X021648Y023022D01*
X021772Y023145D01*
X021772Y022775D01*
X021893Y022837D02*
X021893Y023084D01*
X021955Y023145D01*
X022078Y023145D01*
X022140Y023084D01*
X022262Y023022D02*
X022385Y023145D01*
X022385Y022775D01*
X022262Y022775D02*
X022509Y022775D01*
X022140Y022837D02*
X022078Y022775D01*
X021955Y022775D01*
X021893Y022837D01*
X021984Y014489D02*
X021984Y014440D01*
X021984Y014343D02*
X021984Y014150D01*
X021936Y014150D02*
X022032Y014150D01*
X021835Y014150D02*
X021835Y014295D01*
X021786Y014343D01*
X021641Y014343D01*
X021641Y014150D01*
X021541Y014150D02*
X021445Y014150D01*
X021493Y014150D02*
X021493Y014343D01*
X021445Y014343D01*
X021493Y014440D02*
X021493Y014489D01*
X021343Y014440D02*
X021343Y014150D01*
X021150Y014150D02*
X021150Y014440D01*
X021247Y014343D01*
X021343Y014440D01*
X021936Y014343D02*
X021984Y014343D01*
X022427Y014440D02*
X022427Y014198D01*
X022475Y014150D01*
X022572Y014150D01*
X022620Y014198D01*
X022620Y014440D01*
X022721Y014392D02*
X022721Y014343D01*
X022770Y014295D01*
X022867Y014295D01*
X022915Y014247D01*
X022915Y014198D01*
X022867Y014150D01*
X022770Y014150D01*
X022721Y014198D01*
X022721Y014392D02*
X022770Y014440D01*
X022867Y014440D01*
X022915Y014392D01*
X023016Y014440D02*
X023161Y014440D01*
X023210Y014392D01*
X023210Y014343D01*
X023161Y014295D01*
X023016Y014295D01*
X023016Y014150D02*
X023161Y014150D01*
X023210Y014198D01*
X023210Y014247D01*
X023161Y014295D01*
X023016Y014150D02*
X023016Y014440D01*
X023605Y014440D02*
X023605Y014150D01*
X023751Y014150D01*
X023799Y014198D01*
X023799Y014247D01*
X023751Y014295D01*
X023605Y014295D01*
X023605Y014440D02*
X023751Y014440D01*
X023799Y014392D01*
X023799Y014343D01*
X023751Y014295D01*
D15*
X025760Y019385D02*
X027260Y019385D01*
X027510Y019635D01*
X027510Y020135D01*
X027260Y020385D01*
X025760Y020385D01*
X025510Y020135D01*
X025510Y019635D01*
X025760Y019385D01*
X025760Y020385D02*
X025510Y020635D01*
X025510Y021135D01*
X025760Y021385D01*
X027260Y021385D01*
X027510Y021135D01*
X027510Y020635D01*
X027260Y020385D01*
X027260Y021385D02*
X027510Y021635D01*
X027510Y022135D01*
X027260Y022385D01*
X025760Y022385D01*
X025510Y022135D01*
X025510Y021635D01*
X025760Y021385D01*
X016510Y016010D02*
X016510Y015510D01*
X016260Y015260D01*
X015760Y015260D01*
X015510Y015510D01*
X015260Y015260D01*
X014760Y015260D01*
X014510Y015510D01*
X014260Y015260D01*
X013760Y015260D01*
X013510Y015510D01*
X013510Y016010D01*
X013760Y016260D01*
X014260Y016260D01*
X014510Y016010D01*
X014760Y016260D01*
X015260Y016260D01*
X015510Y016010D01*
X015760Y016260D01*
X016260Y016260D01*
X016510Y016010D01*
X015510Y016010D02*
X015510Y015510D01*
X014510Y015510D02*
X014510Y016010D01*
X014385Y022635D02*
X013885Y022635D01*
X013635Y022885D01*
X013635Y023385D01*
X013885Y023635D01*
X013635Y023885D01*
X013635Y024385D01*
X013885Y024635D01*
X014385Y024635D01*
X014635Y024385D01*
X014635Y023885D01*
X014385Y023635D01*
X014635Y023385D01*
X014635Y022885D01*
X014385Y022635D01*
X014385Y023635D02*
X013885Y023635D01*
X015647Y003806D02*
X015540Y003699D01*
X015540Y003272D01*
X015647Y003165D01*
X015860Y003165D01*
X015967Y003272D01*
X015967Y003699D01*
X015860Y003806D01*
X015647Y003806D01*
X016185Y003592D02*
X016185Y003165D01*
X016185Y003379D02*
X016398Y003592D01*
X016505Y003592D01*
X016722Y003485D02*
X016828Y003592D01*
X017149Y003592D01*
X017149Y003806D02*
X017149Y003165D01*
X016828Y003165D01*
X016722Y003272D01*
X016722Y003485D01*
X017366Y003485D02*
X017473Y003592D01*
X017686Y003592D01*
X017793Y003485D01*
X017793Y003379D01*
X017366Y003379D01*
X017366Y003485D02*
X017366Y003272D01*
X017473Y003165D01*
X017686Y003165D01*
X018011Y003165D02*
X018011Y003592D01*
X018224Y003592D02*
X018331Y003592D01*
X018224Y003592D02*
X018011Y003379D01*
X019192Y003165D02*
X019192Y003806D01*
X019619Y003165D01*
X019619Y003806D01*
X019837Y003592D02*
X019837Y003272D01*
X019944Y003165D01*
X020264Y003165D01*
X020264Y003592D01*
X020482Y003592D02*
X020588Y003592D01*
X020695Y003485D01*
X020802Y003592D01*
X020909Y003485D01*
X020909Y003165D01*
X020695Y003165D02*
X020695Y003485D01*
X020482Y003592D02*
X020482Y003165D01*
X021126Y003165D02*
X021126Y003806D01*
X021126Y003592D02*
X021446Y003592D01*
X021553Y003485D01*
X021553Y003272D01*
X021446Y003165D01*
X021126Y003165D01*
X021771Y003272D02*
X021771Y003485D01*
X021877Y003592D01*
X022091Y003592D01*
X022198Y003485D01*
X022198Y003379D01*
X021771Y003379D01*
X021771Y003272D02*
X021877Y003165D01*
X022091Y003165D01*
X022415Y003165D02*
X022415Y003592D01*
X022415Y003379D02*
X022629Y003592D01*
X022735Y003592D01*
X022952Y003592D02*
X022952Y003485D01*
X023059Y003485D01*
X023059Y003592D01*
X022952Y003592D01*
X022952Y003272D02*
X022952Y003165D01*
X023059Y003165D01*
X023059Y003272D01*
X022952Y003272D01*
X023919Y003272D02*
X024026Y003165D01*
X024239Y003165D01*
X024346Y003272D01*
X024346Y003485D01*
X024239Y003592D01*
X024133Y003592D01*
X023919Y003485D01*
X023919Y003806D01*
X024346Y003806D01*
X024564Y003699D02*
X024670Y003806D01*
X024884Y003806D01*
X024991Y003699D01*
X024991Y003592D01*
X024884Y003485D01*
X024991Y003379D01*
X024991Y003272D01*
X024884Y003165D01*
X024670Y003165D01*
X024564Y003272D01*
X024777Y003485D02*
X024884Y003485D01*
X025208Y003485D02*
X025422Y003699D01*
X025635Y003806D01*
X025853Y003699D02*
X025853Y003272D01*
X026280Y003699D01*
X026280Y003272D01*
X026173Y003165D01*
X025960Y003165D01*
X025853Y003272D01*
X025635Y003272D02*
X025529Y003165D01*
X025315Y003165D01*
X025208Y003272D01*
X025208Y003485D01*
X025529Y003485D01*
X025635Y003379D01*
X025635Y003272D01*
X025853Y003699D02*
X025960Y003806D01*
X026173Y003806D01*
X026280Y003699D01*
X026497Y003485D02*
X026818Y003485D01*
X026924Y003379D01*
X026924Y003272D01*
X026818Y003165D01*
X026604Y003165D01*
X026497Y003272D01*
X026497Y003485D01*
X026711Y003699D01*
X026924Y003806D01*
D16*
X025496Y014732D02*
X025580Y014815D01*
X025524Y014871D01*
X025580Y014815D02*
X025663Y014899D01*
X025246Y015149D02*
X025190Y015205D01*
X025107Y015121D01*
X025190Y015205D02*
X025274Y015288D01*
X026084Y017274D02*
X026084Y017589D01*
X026084Y017274D02*
X026359Y017274D01*
X026517Y017746D02*
X026753Y017746D01*
X027186Y017589D02*
X027186Y017274D01*
X026911Y017274D01*
X026753Y018359D02*
X026635Y018359D01*
X026635Y018438D01*
X026635Y018359D02*
X026517Y018359D01*
X026635Y018832D02*
X026635Y018911D01*
X026517Y018911D01*
X026635Y018911D02*
X026753Y018911D01*
X025121Y019142D02*
X025121Y019260D01*
X025042Y019260D01*
X025121Y019260D02*
X025121Y019378D01*
X024728Y019260D02*
X024649Y019260D01*
X024649Y019221D01*
X024649Y019142D01*
X024649Y019260D02*
X024649Y019378D01*
X024390Y019121D02*
X024390Y018649D01*
X024154Y018885D02*
X023996Y018885D01*
X024075Y018964D01*
X024154Y018885D01*
X024124Y018915D02*
X024026Y018915D01*
X024075Y018963D02*
X024075Y018963D01*
X023760Y019082D02*
X023760Y019161D01*
X023642Y019161D01*
X023760Y018728D02*
X023760Y018649D01*
X023642Y018649D01*
X023760Y018649D02*
X023878Y018649D01*
X023130Y018649D02*
X023130Y019121D01*
X022911Y018878D02*
X022911Y018760D01*
X022832Y018760D01*
X022911Y018760D02*
X022911Y018642D01*
X022438Y018760D02*
X022359Y018760D01*
X022359Y018642D01*
X022286Y018642D02*
X022286Y018760D01*
X022207Y018760D01*
X022286Y018760D02*
X022286Y018878D01*
X022359Y018878D02*
X022359Y018760D01*
X021813Y018760D02*
X021734Y018760D01*
X021734Y018642D01*
X021734Y018760D02*
X021734Y018878D01*
X020871Y019517D02*
X020871Y019635D01*
X020792Y019635D01*
X020871Y019635D02*
X020871Y019674D01*
X020871Y019753D01*
X020478Y019635D02*
X020399Y019635D01*
X020399Y019517D01*
X020399Y019635D02*
X020399Y019753D01*
X020399Y020767D02*
X020399Y020846D01*
X020399Y020885D01*
X020478Y020885D01*
X020399Y020885D02*
X020399Y021003D01*
X020792Y020885D02*
X020871Y020885D01*
X020871Y021003D01*
X020871Y020885D02*
X020871Y020767D01*
X019411Y021517D02*
X019411Y021635D01*
X019332Y021635D01*
X019411Y021635D02*
X019411Y021753D01*
X018938Y021635D02*
X018859Y021635D01*
X018859Y021517D01*
X018859Y021635D02*
X018859Y021753D01*
X018411Y021753D02*
X018411Y021635D01*
X018332Y021635D01*
X018411Y021635D02*
X018411Y021517D01*
X017938Y021635D02*
X017859Y021635D01*
X017859Y021517D01*
X017859Y021635D02*
X017859Y021753D01*
X017811Y023149D02*
X017811Y023464D01*
X017984Y023510D02*
X018063Y023510D01*
X017984Y023510D02*
X017984Y023392D01*
X017984Y023510D02*
X017984Y023628D01*
X018457Y023510D02*
X018536Y023510D01*
X018536Y023628D01*
X018536Y023510D02*
X018536Y023392D01*
X017811Y023149D02*
X017575Y023149D01*
X017378Y023661D02*
X017142Y023661D01*
X016709Y023464D02*
X016709Y023149D01*
X016945Y023149D01*
X015779Y023274D02*
X015779Y023510D01*
X015661Y023510D01*
X015779Y023510D02*
X015779Y023746D01*
X015109Y023510D02*
X014991Y023510D01*
X014991Y023746D01*
X014991Y023510D02*
X014991Y023274D01*
X014883Y022455D02*
X013387Y022455D01*
X013387Y022061D02*
X013387Y021943D01*
X013387Y021589D02*
X013387Y021471D01*
X013387Y021077D02*
X013387Y020959D01*
X013387Y020565D02*
X014883Y020565D01*
X014607Y020762D02*
X014529Y020841D01*
X014529Y020683D01*
X014607Y020762D01*
X014603Y020758D02*
X014529Y020758D01*
X014529Y020710D02*
X014555Y020710D01*
X014563Y020807D02*
X014529Y020807D01*
X014883Y020959D02*
X014883Y021077D01*
X014883Y021471D02*
X014883Y021589D01*
X014883Y021943D02*
X014883Y022061D01*
X015734Y021128D02*
X015734Y021010D01*
X015813Y021010D01*
X015734Y021010D02*
X015734Y020892D01*
X016207Y021010D02*
X016286Y021010D01*
X016286Y021128D01*
X016286Y021010D02*
X016286Y020892D01*
X016774Y019503D02*
X016774Y019385D01*
X016853Y019385D01*
X016774Y019385D02*
X016774Y019267D01*
X017167Y019385D02*
X017246Y019385D01*
X017246Y019424D01*
X017246Y019503D01*
X017246Y019385D02*
X017246Y019267D01*
X017399Y019267D02*
X017399Y019385D01*
X017478Y019385D01*
X017399Y019385D02*
X017399Y019503D01*
X017792Y019385D02*
X017871Y019385D01*
X017871Y019424D01*
X017871Y019503D01*
X017871Y019385D02*
X017871Y019267D01*
X019392Y018621D02*
X019510Y018621D01*
X019510Y018542D01*
X019510Y018621D02*
X019628Y018621D01*
X019510Y018228D02*
X019510Y018149D01*
X019549Y018149D01*
X019628Y018149D01*
X019628Y018036D02*
X019510Y018036D01*
X019510Y017957D01*
X019510Y018036D02*
X019392Y018036D01*
X019392Y018149D02*
X019510Y018149D01*
X019510Y017563D02*
X019510Y017484D01*
X019628Y017484D01*
X019510Y017484D02*
X019392Y017484D01*
X018536Y017128D02*
X018536Y017010D01*
X018457Y017010D01*
X018536Y017010D02*
X018536Y016892D01*
X018063Y017010D02*
X017984Y017010D01*
X017984Y016892D01*
X017984Y017010D02*
X017984Y017128D01*
X017378Y016411D02*
X017260Y016411D01*
X017260Y016332D01*
X017260Y016411D02*
X017142Y016411D01*
X017260Y015938D02*
X017260Y015859D01*
X017378Y015859D01*
X017260Y015859D02*
X017142Y015859D01*
X015786Y017169D02*
X015353Y017169D01*
X015346Y016996D02*
X015385Y016996D01*
X015385Y016917D01*
X015385Y016996D02*
X015503Y016996D01*
X015346Y016996D02*
X015267Y016996D01*
X015385Y016603D02*
X015385Y016524D01*
X015503Y016524D01*
X015385Y016524D02*
X015267Y016524D01*
X015786Y017169D02*
X015786Y017484D01*
X015195Y017642D02*
X015195Y017878D01*
X015786Y018036D02*
X015786Y018351D01*
X015353Y018351D01*
X015392Y018524D02*
X015510Y018524D01*
X015510Y018603D01*
X015510Y018524D02*
X015628Y018524D01*
X015510Y018917D02*
X015510Y018996D01*
X015471Y018996D01*
X015392Y018996D01*
X015510Y018996D02*
X015628Y018996D01*
X015128Y019109D02*
X015010Y019109D01*
X015010Y019188D01*
X015010Y019109D02*
X014892Y019109D01*
X015010Y019582D02*
X015010Y019661D01*
X014892Y019661D01*
X015010Y019661D02*
X015128Y019661D01*
X012811Y018464D02*
X012811Y018149D01*
X012536Y018149D01*
X012378Y018621D02*
X012142Y018621D01*
X011709Y018464D02*
X011709Y018149D01*
X011984Y018149D01*
X012142Y019359D02*
X012260Y019359D01*
X012260Y019438D01*
X012260Y019359D02*
X012378Y019359D01*
X012260Y019832D02*
X012260Y019911D01*
X012142Y019911D01*
X012260Y019911D02*
X012378Y019911D01*
X011904Y021274D02*
X011904Y021510D01*
X011786Y021510D01*
X011904Y021510D02*
X011904Y021746D01*
X012024Y021628D02*
X012024Y021510D01*
X012103Y021510D01*
X012024Y021510D02*
X012024Y021392D01*
X012417Y021510D02*
X012496Y021510D01*
X012496Y021549D01*
X012496Y021628D01*
X012496Y021510D02*
X012496Y021392D01*
X011234Y021510D02*
X011116Y021510D01*
X011116Y021746D01*
X011116Y021510D02*
X011116Y021274D01*
X014960Y025445D02*
X015043Y025529D01*
X014988Y025584D01*
X015043Y025529D02*
X015127Y025612D01*
X014737Y026002D02*
X014654Y025918D01*
X014709Y025863D01*
X014654Y025918D02*
X014570Y025835D01*
X017024Y025709D02*
X017024Y025984D01*
X017024Y025709D02*
X017339Y025709D01*
X017378Y025411D02*
X017260Y025411D01*
X017260Y025332D01*
X017260Y025411D02*
X017142Y025411D01*
X017260Y024938D02*
X017260Y024859D01*
X017378Y024859D01*
X017260Y024859D02*
X017142Y024859D01*
X018392Y024859D02*
X018510Y024859D01*
X018510Y024938D01*
X018510Y024859D02*
X018628Y024859D01*
X018510Y025332D02*
X018510Y025411D01*
X018392Y025411D01*
X018510Y025411D02*
X018628Y025411D01*
X018661Y026142D02*
X018661Y026260D01*
X018582Y026260D01*
X018661Y026260D02*
X018661Y026378D01*
X018188Y026260D02*
X018109Y026260D01*
X018109Y026142D01*
X018109Y026260D02*
X018109Y026378D01*
X017496Y026378D02*
X017496Y026142D01*
X017024Y026536D02*
X017024Y026811D01*
X017339Y026811D01*
X019524Y027709D02*
X019524Y027984D01*
X019524Y027709D02*
X019839Y027709D01*
X019996Y028142D02*
X019996Y028378D01*
X019839Y028811D02*
X019524Y028811D01*
X019524Y028536D01*
X021017Y028411D02*
X021135Y028411D01*
X021135Y028332D01*
X021135Y028411D02*
X021253Y028411D01*
X021135Y027938D02*
X021135Y027859D01*
X021253Y027859D01*
X021135Y027859D02*
X021017Y027859D01*
X021774Y027878D02*
X021774Y027760D01*
X021853Y027760D01*
X021774Y027760D02*
X021774Y027642D01*
X022167Y027760D02*
X022246Y027760D01*
X022246Y027799D01*
X022246Y027878D01*
X022246Y027760D02*
X022246Y027642D01*
X023859Y027628D02*
X023859Y027510D01*
X023938Y027510D01*
X023859Y027510D02*
X023859Y027392D01*
X024332Y027510D02*
X024411Y027510D01*
X024411Y027628D01*
X024411Y027510D02*
X024411Y027392D01*
X026392Y024496D02*
X026510Y024496D01*
X026510Y024417D01*
X026510Y024496D02*
X026628Y024496D01*
X026510Y024103D02*
X026510Y024024D01*
X026549Y024024D01*
X026628Y024024D01*
X026510Y024024D02*
X026392Y024024D01*
X026392Y023286D02*
X026510Y023286D01*
X026510Y023207D01*
X026510Y023286D02*
X026628Y023286D01*
X026510Y022813D02*
X026510Y022734D01*
X026628Y022734D01*
X026510Y022734D02*
X026392Y022734D01*
X027810Y022360D02*
X027960Y022360D01*
X027885Y022360D02*
X027885Y021985D01*
X027810Y021910D01*
X027735Y021910D01*
X027660Y021985D01*
X027913Y021601D02*
X027991Y021601D01*
X027913Y021601D02*
X027913Y020419D01*
X027991Y020419D01*
X028090Y021010D02*
X028092Y021044D01*
X028098Y021078D01*
X028108Y021111D01*
X028121Y021142D01*
X028139Y021172D01*
X028159Y021200D01*
X028183Y021225D01*
X028209Y021247D01*
X028237Y021265D01*
X028268Y021281D01*
X028300Y021293D01*
X028334Y021301D01*
X028368Y021305D01*
X028402Y021305D01*
X028436Y021301D01*
X028470Y021293D01*
X028502Y021281D01*
X028532Y021265D01*
X028561Y021247D01*
X028587Y021225D01*
X028611Y021200D01*
X028631Y021172D01*
X028649Y021142D01*
X028662Y021111D01*
X028672Y021078D01*
X028678Y021044D01*
X028680Y021010D01*
X028678Y020976D01*
X028672Y020942D01*
X028662Y020909D01*
X028649Y020878D01*
X028631Y020848D01*
X028611Y020820D01*
X028587Y020795D01*
X028561Y020773D01*
X028533Y020755D01*
X028502Y020739D01*
X028470Y020727D01*
X028436Y020719D01*
X028402Y020715D01*
X028368Y020715D01*
X028334Y020719D01*
X028300Y020727D01*
X028268Y020739D01*
X028237Y020755D01*
X028209Y020773D01*
X028183Y020795D01*
X028159Y020820D01*
X028139Y020848D01*
X028121Y020878D01*
X028108Y020909D01*
X028098Y020942D01*
X028092Y020976D01*
X028090Y021010D01*
X028779Y021601D02*
X028857Y021601D01*
X028857Y020419D01*
X028779Y020419D01*
X028806Y021910D02*
X028656Y021910D01*
X028581Y021985D01*
X028581Y022135D02*
X028731Y022210D01*
X028806Y022210D01*
X028881Y022135D01*
X028881Y021985D01*
X028806Y021910D01*
X028581Y022135D02*
X028581Y022360D01*
X028881Y022360D01*
X028421Y022285D02*
X028421Y022135D01*
X028346Y022060D01*
X028120Y022060D01*
X028120Y021910D02*
X028120Y022360D01*
X028346Y022360D01*
X028421Y022285D01*
X024246Y021003D02*
X024246Y020885D01*
X024167Y020885D01*
X024246Y020885D02*
X024246Y020767D01*
X023853Y020885D02*
X023774Y020885D01*
X023774Y020846D01*
X023774Y020767D01*
X023774Y020885D02*
X023774Y021003D01*
X019753Y023774D02*
X019674Y023774D01*
X019635Y023774D01*
X019635Y023853D01*
X019635Y023774D02*
X019517Y023774D01*
X019635Y024167D02*
X019635Y024246D01*
X019517Y024246D01*
X019635Y024246D02*
X019753Y024246D01*
X013130Y016265D02*
X012980Y016115D01*
X012819Y016040D02*
X012744Y015965D01*
X012519Y015965D01*
X012519Y015815D02*
X012519Y016265D01*
X012744Y016265D01*
X012819Y016190D01*
X012819Y016040D01*
X012980Y015815D02*
X013280Y015815D01*
X013130Y015815D02*
X013130Y016265D01*
X012359Y016265D02*
X012209Y016265D01*
X012284Y016265D02*
X012284Y015890D01*
X012209Y015815D01*
X012134Y015815D01*
X012059Y015890D01*
X014591Y014137D02*
X014675Y014220D01*
X014731Y014164D01*
X014675Y014220D02*
X014758Y014304D01*
X015009Y013886D02*
X015065Y013830D01*
X015148Y013914D01*
X015065Y013830D02*
X014981Y013747D01*
D17*
X016184Y019385D03*
D18*
G36*
X014044Y014368D02*
X013975Y014299D01*
X013906Y014368D01*
X013975Y014437D01*
X014044Y014368D01*
G37*
G36*
X014512Y026133D02*
X014581Y026064D01*
X014512Y025995D01*
X014443Y026064D01*
X014512Y026133D01*
G37*
G36*
X025314Y026564D02*
X025383Y026633D01*
X025452Y026564D01*
X025383Y026495D01*
X025314Y026564D01*
G37*
G36*
X025795Y014549D02*
X025726Y014618D01*
X025795Y014687D01*
X025864Y014618D01*
X025795Y014549D01*
G37*
D19*
X019680Y019420D02*
X019580Y019570D01*
X019680Y019570D02*
X019580Y019420D01*
X019240Y020230D02*
X019140Y020230D01*
X019140Y020255D01*
X019240Y020355D01*
X019240Y020380D01*
X019140Y020380D01*
X018760Y020300D02*
X018760Y020275D01*
X018710Y020225D01*
X018710Y020150D01*
X018710Y020225D02*
X018660Y020275D01*
X018660Y020300D01*
D20*
X024474Y025835D02*
X024476Y025855D01*
X024481Y025875D01*
X024491Y025893D01*
X024503Y025910D01*
X024518Y025924D01*
X024536Y025934D01*
X024555Y025942D01*
X024575Y025946D01*
X024595Y025946D01*
X024615Y025942D01*
X024634Y025934D01*
X024652Y025924D01*
X024667Y025910D01*
X024679Y025893D01*
X024689Y025875D01*
X024694Y025855D01*
X024696Y025835D01*
X024694Y025815D01*
X024689Y025795D01*
X024679Y025777D01*
X024667Y025760D01*
X024652Y025746D01*
X024634Y025736D01*
X024615Y025728D01*
X024595Y025724D01*
X024575Y025724D01*
X024555Y025728D01*
X024536Y025736D01*
X024518Y025746D01*
X024503Y025760D01*
X024491Y025777D01*
X024481Y025795D01*
X024476Y025815D01*
X024474Y025835D01*
D21*
X017730Y028510D03*
X017290Y027385D03*
X025665Y016010D03*
D22*
X011010Y019105D03*
M02*
